%TF.GenerationSoftware,KiCad,Pcbnew,(6.0.0-0)*%
%TF.CreationDate,2022-01-05T21:11:28+01:00*%
%TF.ProjectId,218_trigger_mod,3231385f-7472-4696-9767-65725f6d6f64,rev?*%
%TF.SameCoordinates,Original*%
%TF.FileFunction,Legend,Top*%
%TF.FilePolarity,Positive*%
%FSLAX46Y46*%
G04 Gerber Fmt 4.6, Leading zero omitted, Abs format (unit mm)*
G04 Created by KiCad (PCBNEW (6.0.0-0)) date 2022-01-05 21:11:28*
%MOMM*%
%LPD*%
G01*
G04 APERTURE LIST*
%ADD10C,0.150000*%
%ADD11C,0.076200*%
%ADD12C,0.152400*%
%ADD13C,0.120000*%
G04 APERTURE END LIST*
D10*
X122733809Y-102580380D02*
X122733809Y-101580380D01*
X122829047Y-102199428D02*
X123114761Y-102580380D01*
X123114761Y-101913714D02*
X122733809Y-102294666D01*
X123924285Y-102532761D02*
X123829047Y-102580380D01*
X123638571Y-102580380D01*
X123543333Y-102532761D01*
X123495714Y-102437523D01*
X123495714Y-102056571D01*
X123543333Y-101961333D01*
X123638571Y-101913714D01*
X123829047Y-101913714D01*
X123924285Y-101961333D01*
X123971904Y-102056571D01*
X123971904Y-102151809D01*
X123495714Y-102247047D01*
X124305238Y-101913714D02*
X124543333Y-102580380D01*
X124781428Y-101913714D02*
X124543333Y-102580380D01*
X124448095Y-102818476D01*
X124400476Y-102866095D01*
X124305238Y-102913714D01*
X122850476Y-97380380D02*
X122755238Y-97332761D01*
X122707619Y-97285142D01*
X122660000Y-97189904D01*
X122660000Y-96904190D01*
X122707619Y-96808952D01*
X122755238Y-96761333D01*
X122850476Y-96713714D01*
X122993333Y-96713714D01*
X123088571Y-96761333D01*
X123136190Y-96808952D01*
X123183809Y-96904190D01*
X123183809Y-97189904D01*
X123136190Y-97285142D01*
X123088571Y-97332761D01*
X122993333Y-97380380D01*
X122850476Y-97380380D01*
X124040952Y-96713714D02*
X124040952Y-97380380D01*
X123612380Y-96713714D02*
X123612380Y-97237523D01*
X123660000Y-97332761D01*
X123755238Y-97380380D01*
X123898095Y-97380380D01*
X123993333Y-97332761D01*
X124040952Y-97285142D01*
X124374285Y-96713714D02*
X124755238Y-96713714D01*
X124517142Y-96380380D02*
X124517142Y-97237523D01*
X124564761Y-97332761D01*
X124660000Y-97380380D01*
X124755238Y-97380380D01*
X122598095Y-104699428D02*
X123360000Y-104699428D01*
X122979047Y-105080380D02*
X122979047Y-104318476D01*
X124360000Y-105080380D02*
X123788571Y-105080380D01*
X124074285Y-105080380D02*
X124074285Y-104080380D01*
X123979047Y-104223238D01*
X123883809Y-104318476D01*
X123788571Y-104366095D01*
X125264761Y-104080380D02*
X124788571Y-104080380D01*
X124740952Y-104556571D01*
X124788571Y-104508952D01*
X124883809Y-104461333D01*
X125121904Y-104461333D01*
X125217142Y-104508952D01*
X125264761Y-104556571D01*
X125312380Y-104651809D01*
X125312380Y-104889904D01*
X125264761Y-104985142D01*
X125217142Y-105032761D01*
X125121904Y-105080380D01*
X124883809Y-105080380D01*
X124788571Y-105032761D01*
X124740952Y-104985142D01*
X125598095Y-104080380D02*
X125931428Y-105080380D01*
X126264761Y-104080380D01*
X123348095Y-106778000D02*
X123252857Y-106730380D01*
X123110000Y-106730380D01*
X122967142Y-106778000D01*
X122871904Y-106873238D01*
X122824285Y-106968476D01*
X122776666Y-107158952D01*
X122776666Y-107301809D01*
X122824285Y-107492285D01*
X122871904Y-107587523D01*
X122967142Y-107682761D01*
X123110000Y-107730380D01*
X123205238Y-107730380D01*
X123348095Y-107682761D01*
X123395714Y-107635142D01*
X123395714Y-107301809D01*
X123205238Y-107301809D01*
X123824285Y-107730380D02*
X123824285Y-106730380D01*
X124395714Y-107730380D01*
X124395714Y-106730380D01*
X124871904Y-107730380D02*
X124871904Y-106730380D01*
X125110000Y-106730380D01*
X125252857Y-106778000D01*
X125348095Y-106873238D01*
X125395714Y-106968476D01*
X125443333Y-107158952D01*
X125443333Y-107301809D01*
X125395714Y-107492285D01*
X125348095Y-107587523D01*
X125252857Y-107682761D01*
X125110000Y-107730380D01*
X124871904Y-107730380D01*
X147787976Y-121687619D02*
X147835595Y-121640000D01*
X147930833Y-121592380D01*
X148168928Y-121592380D01*
X148264166Y-121640000D01*
X148311785Y-121687619D01*
X148359404Y-121782857D01*
X148359404Y-121878095D01*
X148311785Y-122020952D01*
X147740357Y-122592380D01*
X148359404Y-122592380D01*
X149311785Y-122592380D02*
X148740357Y-122592380D01*
X149026071Y-122592380D02*
X149026071Y-121592380D01*
X148930833Y-121735238D01*
X148835595Y-121830476D01*
X148740357Y-121878095D01*
X149883214Y-122020952D02*
X149787976Y-121973333D01*
X149740357Y-121925714D01*
X149692738Y-121830476D01*
X149692738Y-121782857D01*
X149740357Y-121687619D01*
X149787976Y-121640000D01*
X149883214Y-121592380D01*
X150073690Y-121592380D01*
X150168928Y-121640000D01*
X150216547Y-121687619D01*
X150264166Y-121782857D01*
X150264166Y-121830476D01*
X150216547Y-121925714D01*
X150168928Y-121973333D01*
X150073690Y-122020952D01*
X149883214Y-122020952D01*
X149787976Y-122068571D01*
X149740357Y-122116190D01*
X149692738Y-122211428D01*
X149692738Y-122401904D01*
X149740357Y-122497142D01*
X149787976Y-122544761D01*
X149883214Y-122592380D01*
X150073690Y-122592380D01*
X150168928Y-122544761D01*
X150216547Y-122497142D01*
X150264166Y-122401904D01*
X150264166Y-122211428D01*
X150216547Y-122116190D01*
X150168928Y-122068571D01*
X150073690Y-122020952D01*
X150692738Y-122592380D02*
X150692738Y-121925714D01*
X150692738Y-122116190D02*
X150740357Y-122020952D01*
X150787976Y-121973333D01*
X150883214Y-121925714D01*
X150978452Y-121925714D01*
X152073690Y-122592380D02*
X152073690Y-121925714D01*
X152073690Y-122116190D02*
X152121309Y-122020952D01*
X152168928Y-121973333D01*
X152264166Y-121925714D01*
X152359404Y-121925714D01*
X153073690Y-122544761D02*
X152978452Y-122592380D01*
X152787976Y-122592380D01*
X152692738Y-122544761D01*
X152645119Y-122449523D01*
X152645119Y-122068571D01*
X152692738Y-121973333D01*
X152787976Y-121925714D01*
X152978452Y-121925714D01*
X153073690Y-121973333D01*
X153121309Y-122068571D01*
X153121309Y-122163809D01*
X152645119Y-122259047D01*
X153407023Y-121925714D02*
X153787976Y-121925714D01*
X153549880Y-121592380D02*
X153549880Y-122449523D01*
X153597500Y-122544761D01*
X153692738Y-122592380D01*
X153787976Y-122592380D01*
X154121309Y-122592380D02*
X154121309Y-121925714D01*
X154121309Y-122116190D02*
X154168928Y-122020952D01*
X154216547Y-121973333D01*
X154311785Y-121925714D01*
X154407023Y-121925714D01*
X154740357Y-122592380D02*
X154740357Y-121925714D01*
X154740357Y-121592380D02*
X154692738Y-121640000D01*
X154740357Y-121687619D01*
X154787976Y-121640000D01*
X154740357Y-121592380D01*
X154740357Y-121687619D01*
X155645119Y-121925714D02*
X155645119Y-122735238D01*
X155597500Y-122830476D01*
X155549880Y-122878095D01*
X155454642Y-122925714D01*
X155311785Y-122925714D01*
X155216547Y-122878095D01*
X155645119Y-122544761D02*
X155549880Y-122592380D01*
X155359404Y-122592380D01*
X155264166Y-122544761D01*
X155216547Y-122497142D01*
X155168928Y-122401904D01*
X155168928Y-122116190D01*
X155216547Y-122020952D01*
X155264166Y-121973333D01*
X155359404Y-121925714D01*
X155549880Y-121925714D01*
X155645119Y-121973333D01*
X156549880Y-121925714D02*
X156549880Y-122735238D01*
X156502261Y-122830476D01*
X156454642Y-122878095D01*
X156359404Y-122925714D01*
X156216547Y-122925714D01*
X156121309Y-122878095D01*
X156549880Y-122544761D02*
X156454642Y-122592380D01*
X156264166Y-122592380D01*
X156168928Y-122544761D01*
X156121309Y-122497142D01*
X156073690Y-122401904D01*
X156073690Y-122116190D01*
X156121309Y-122020952D01*
X156168928Y-121973333D01*
X156264166Y-121925714D01*
X156454642Y-121925714D01*
X156549880Y-121973333D01*
X157407023Y-122544761D02*
X157311785Y-122592380D01*
X157121309Y-122592380D01*
X157026071Y-122544761D01*
X156978452Y-122449523D01*
X156978452Y-122068571D01*
X157026071Y-121973333D01*
X157121309Y-121925714D01*
X157311785Y-121925714D01*
X157407023Y-121973333D01*
X157454642Y-122068571D01*
X157454642Y-122163809D01*
X156978452Y-122259047D01*
X157883214Y-122592380D02*
X157883214Y-121925714D01*
X157883214Y-122116190D02*
X157930833Y-122020952D01*
X157978452Y-121973333D01*
X158073690Y-121925714D01*
X158168928Y-121925714D01*
X159264166Y-122592380D02*
X159264166Y-121925714D01*
X159264166Y-122020952D02*
X159311785Y-121973333D01*
X159407023Y-121925714D01*
X159549880Y-121925714D01*
X159645119Y-121973333D01*
X159692738Y-122068571D01*
X159692738Y-122592380D01*
X159692738Y-122068571D02*
X159740357Y-121973333D01*
X159835595Y-121925714D01*
X159978452Y-121925714D01*
X160073690Y-121973333D01*
X160121309Y-122068571D01*
X160121309Y-122592380D01*
X160740357Y-122592380D02*
X160645119Y-122544761D01*
X160597500Y-122497142D01*
X160549880Y-122401904D01*
X160549880Y-122116190D01*
X160597500Y-122020952D01*
X160645119Y-121973333D01*
X160740357Y-121925714D01*
X160883214Y-121925714D01*
X160978452Y-121973333D01*
X161026071Y-122020952D01*
X161073690Y-122116190D01*
X161073690Y-122401904D01*
X161026071Y-122497142D01*
X160978452Y-122544761D01*
X160883214Y-122592380D01*
X160740357Y-122592380D01*
X161930833Y-122592380D02*
X161930833Y-121592380D01*
X161930833Y-122544761D02*
X161835595Y-122592380D01*
X161645119Y-122592380D01*
X161549880Y-122544761D01*
X161502261Y-122497142D01*
X161454642Y-122401904D01*
X161454642Y-122116190D01*
X161502261Y-122020952D01*
X161549880Y-121973333D01*
X161645119Y-121925714D01*
X161835595Y-121925714D01*
X161930833Y-121973333D01*
X147835595Y-124202380D02*
X147835595Y-123535714D01*
X147835595Y-123726190D02*
X147883214Y-123630952D01*
X147930833Y-123583333D01*
X148026071Y-123535714D01*
X148121309Y-123535714D01*
X148835595Y-124154761D02*
X148740357Y-124202380D01*
X148549880Y-124202380D01*
X148454642Y-124154761D01*
X148407023Y-124059523D01*
X148407023Y-123678571D01*
X148454642Y-123583333D01*
X148549880Y-123535714D01*
X148740357Y-123535714D01*
X148835595Y-123583333D01*
X148883214Y-123678571D01*
X148883214Y-123773809D01*
X148407023Y-123869047D01*
X149216547Y-123535714D02*
X149454642Y-124202380D01*
X149692738Y-123535714D01*
X150073690Y-124107142D02*
X150121309Y-124154761D01*
X150073690Y-124202380D01*
X150026071Y-124154761D01*
X150073690Y-124107142D01*
X150073690Y-124202380D01*
X150502261Y-123916666D02*
X150978452Y-123916666D01*
X150407023Y-124202380D02*
X150740357Y-123202380D01*
X151073690Y-124202380D01*
X122738095Y-99113714D02*
X122738095Y-100113714D01*
X122738095Y-99161333D02*
X122833333Y-99113714D01*
X123023809Y-99113714D01*
X123119047Y-99161333D01*
X123166666Y-99208952D01*
X123214285Y-99304190D01*
X123214285Y-99589904D01*
X123166666Y-99685142D01*
X123119047Y-99732761D01*
X123023809Y-99780380D01*
X122833333Y-99780380D01*
X122738095Y-99732761D01*
X124071428Y-99113714D02*
X124071428Y-99780380D01*
X123642857Y-99113714D02*
X123642857Y-99637523D01*
X123690476Y-99732761D01*
X123785714Y-99780380D01*
X123928571Y-99780380D01*
X124023809Y-99732761D01*
X124071428Y-99685142D01*
X124690476Y-99780380D02*
X124595238Y-99732761D01*
X124547619Y-99637523D01*
X124547619Y-98780380D01*
X125023809Y-99732761D02*
X125119047Y-99780380D01*
X125309523Y-99780380D01*
X125404761Y-99732761D01*
X125452380Y-99637523D01*
X125452380Y-99589904D01*
X125404761Y-99494666D01*
X125309523Y-99447047D01*
X125166666Y-99447047D01*
X125071428Y-99399428D01*
X125023809Y-99304190D01*
X125023809Y-99256571D01*
X125071428Y-99161333D01*
X125166666Y-99113714D01*
X125309523Y-99113714D01*
X125404761Y-99161333D01*
X126261904Y-99732761D02*
X126166666Y-99780380D01*
X125976190Y-99780380D01*
X125880952Y-99732761D01*
X125833333Y-99637523D01*
X125833333Y-99256571D01*
X125880952Y-99161333D01*
X125976190Y-99113714D01*
X126166666Y-99113714D01*
X126261904Y-99161333D01*
X126309523Y-99256571D01*
X126309523Y-99351809D01*
X125833333Y-99447047D01*
X122698095Y-109799428D02*
X123460000Y-109799428D01*
X124460000Y-110180380D02*
X123888571Y-110180380D01*
X124174285Y-110180380D02*
X124174285Y-109180380D01*
X124079047Y-109323238D01*
X123983809Y-109418476D01*
X123888571Y-109466095D01*
X125364761Y-109180380D02*
X124888571Y-109180380D01*
X124840952Y-109656571D01*
X124888571Y-109608952D01*
X124983809Y-109561333D01*
X125221904Y-109561333D01*
X125317142Y-109608952D01*
X125364761Y-109656571D01*
X125412380Y-109751809D01*
X125412380Y-109989904D01*
X125364761Y-110085142D01*
X125317142Y-110132761D01*
X125221904Y-110180380D01*
X124983809Y-110180380D01*
X124888571Y-110132761D01*
X124840952Y-110085142D01*
X125698095Y-109180380D02*
X126031428Y-110180380D01*
X126364761Y-109180380D01*
%TO.C,U1*%
X153658095Y-85777380D02*
X153658095Y-86586904D01*
X153705714Y-86682142D01*
X153753333Y-86729761D01*
X153848571Y-86777380D01*
X154039047Y-86777380D01*
X154134285Y-86729761D01*
X154181904Y-86682142D01*
X154229523Y-86586904D01*
X154229523Y-85777380D01*
X155229523Y-86777380D02*
X154658095Y-86777380D01*
X154943809Y-86777380D02*
X154943809Y-85777380D01*
X154848571Y-85920238D01*
X154753333Y-86015476D01*
X154658095Y-86063095D01*
X153902380Y-98319047D02*
X153902380Y-97747619D01*
X154902380Y-98033333D02*
X153902380Y-98033333D01*
X154902380Y-96938095D02*
X154902380Y-97414285D01*
X153902380Y-97414285D01*
X153902380Y-96414285D02*
X153902380Y-96319047D01*
X153950000Y-96223809D01*
X153997619Y-96176190D01*
X154092857Y-96128571D01*
X154283333Y-96080952D01*
X154521428Y-96080952D01*
X154711904Y-96128571D01*
X154807142Y-96176190D01*
X154854761Y-96223809D01*
X154902380Y-96319047D01*
X154902380Y-96414285D01*
X154854761Y-96509523D01*
X154807142Y-96557142D01*
X154711904Y-96604761D01*
X154521428Y-96652380D01*
X154283333Y-96652380D01*
X154092857Y-96604761D01*
X153997619Y-96557142D01*
X153950000Y-96509523D01*
X153902380Y-96414285D01*
X153902380Y-95747619D02*
X153902380Y-95080952D01*
X154902380Y-95509523D01*
X154235714Y-94271428D02*
X154902380Y-94271428D01*
X153854761Y-94509523D02*
X154569047Y-94747619D01*
X154569047Y-94128571D01*
D11*
%TO.C,R5*%
X138317695Y-101685466D02*
X137930647Y-101956400D01*
X138317695Y-102149923D02*
X137504895Y-102149923D01*
X137504895Y-101840285D01*
X137543600Y-101762876D01*
X137582304Y-101724171D01*
X137659714Y-101685466D01*
X137775828Y-101685466D01*
X137853238Y-101724171D01*
X137891942Y-101762876D01*
X137930647Y-101840285D01*
X137930647Y-102149923D01*
X137504895Y-100950076D02*
X137504895Y-101337123D01*
X137891942Y-101375828D01*
X137853238Y-101337123D01*
X137814533Y-101259714D01*
X137814533Y-101066190D01*
X137853238Y-100988780D01*
X137891942Y-100950076D01*
X137969352Y-100911371D01*
X138162876Y-100911371D01*
X138240285Y-100950076D01*
X138278990Y-100988780D01*
X138317695Y-101066190D01*
X138317695Y-101259714D01*
X138278990Y-101337123D01*
X138240285Y-101375828D01*
D12*
X138622466Y-109041800D02*
X138622466Y-109854600D01*
X138622466Y-109448200D02*
X137200066Y-109448200D01*
X137403266Y-109583666D01*
X137538733Y-109719133D01*
X137606466Y-109854600D01*
X138622466Y-108432200D02*
X137200066Y-108432200D01*
X138622466Y-107619400D02*
X137809666Y-108229000D01*
X137200066Y-107619400D02*
X138012866Y-108432200D01*
D11*
%TO.C,R2*%
X148840533Y-116391695D02*
X148569600Y-116004647D01*
X148376076Y-116391695D02*
X148376076Y-115578895D01*
X148685714Y-115578895D01*
X148763123Y-115617600D01*
X148801828Y-115656304D01*
X148840533Y-115733714D01*
X148840533Y-115849828D01*
X148801828Y-115927238D01*
X148763123Y-115965942D01*
X148685714Y-116004647D01*
X148376076Y-116004647D01*
X149150171Y-115656304D02*
X149188876Y-115617600D01*
X149266285Y-115578895D01*
X149459809Y-115578895D01*
X149537219Y-115617600D01*
X149575923Y-115656304D01*
X149614628Y-115733714D01*
X149614628Y-115811123D01*
X149575923Y-115927238D01*
X149111466Y-116391695D01*
X149614628Y-116391695D01*
D12*
X156195200Y-116546466D02*
X155382400Y-116546466D01*
X155788800Y-116546466D02*
X155788800Y-115124066D01*
X155653333Y-115327266D01*
X155517866Y-115462733D01*
X155382400Y-115530466D01*
X156804800Y-116546466D02*
X156804800Y-115124066D01*
X157617600Y-116546466D02*
X157008000Y-115733666D01*
X157617600Y-115124066D02*
X156804800Y-115936866D01*
D11*
%TO.C,R8*%
X148864533Y-119867695D02*
X148593600Y-119480647D01*
X148400076Y-119867695D02*
X148400076Y-119054895D01*
X148709714Y-119054895D01*
X148787123Y-119093600D01*
X148825828Y-119132304D01*
X148864533Y-119209714D01*
X148864533Y-119325828D01*
X148825828Y-119403238D01*
X148787123Y-119441942D01*
X148709714Y-119480647D01*
X148400076Y-119480647D01*
X149328990Y-119403238D02*
X149251580Y-119364533D01*
X149212876Y-119325828D01*
X149174171Y-119248419D01*
X149174171Y-119209714D01*
X149212876Y-119132304D01*
X149251580Y-119093600D01*
X149328990Y-119054895D01*
X149483809Y-119054895D01*
X149561219Y-119093600D01*
X149599923Y-119132304D01*
X149638628Y-119209714D01*
X149638628Y-119248419D01*
X149599923Y-119325828D01*
X149561219Y-119364533D01*
X149483809Y-119403238D01*
X149328990Y-119403238D01*
X149251580Y-119441942D01*
X149212876Y-119480647D01*
X149174171Y-119558057D01*
X149174171Y-119712876D01*
X149212876Y-119790285D01*
X149251580Y-119828990D01*
X149328990Y-119867695D01*
X149483809Y-119867695D01*
X149561219Y-119828990D01*
X149599923Y-119790285D01*
X149638628Y-119712876D01*
X149638628Y-119558057D01*
X149599923Y-119480647D01*
X149561219Y-119441942D01*
X149483809Y-119403238D01*
D12*
X156195200Y-119944466D02*
X155382400Y-119944466D01*
X155788800Y-119944466D02*
X155788800Y-118522066D01*
X155653333Y-118725266D01*
X155517866Y-118860733D01*
X155382400Y-118928466D01*
X156804800Y-119944466D02*
X156804800Y-118522066D01*
X157617600Y-119944466D02*
X157008000Y-119131666D01*
X157617600Y-118522066D02*
X156804800Y-119334866D01*
D11*
%TO.C,R11*%
X138799485Y-95297695D02*
X138528552Y-94910647D01*
X138335028Y-95297695D02*
X138335028Y-94484895D01*
X138644666Y-94484895D01*
X138722076Y-94523600D01*
X138760780Y-94562304D01*
X138799485Y-94639714D01*
X138799485Y-94755828D01*
X138760780Y-94833238D01*
X138722076Y-94871942D01*
X138644666Y-94910647D01*
X138335028Y-94910647D01*
X139573580Y-95297695D02*
X139109123Y-95297695D01*
X139341352Y-95297695D02*
X139341352Y-94484895D01*
X139263942Y-94601009D01*
X139186533Y-94678419D01*
X139109123Y-94717123D01*
X140347676Y-95297695D02*
X139883219Y-95297695D01*
X140115447Y-95297695D02*
X140115447Y-94484895D01*
X140038038Y-94601009D01*
X139960628Y-94678419D01*
X139883219Y-94717123D01*
D12*
X130326866Y-95564466D02*
X129514066Y-95564466D01*
X129920466Y-95564466D02*
X129920466Y-94142066D01*
X129785000Y-94345266D01*
X129649533Y-94480733D01*
X129514066Y-94548466D01*
X131207400Y-94142066D02*
X131342866Y-94142066D01*
X131478333Y-94209800D01*
X131546066Y-94277533D01*
X131613800Y-94413000D01*
X131681533Y-94683933D01*
X131681533Y-95022600D01*
X131613800Y-95293533D01*
X131546066Y-95429000D01*
X131478333Y-95496733D01*
X131342866Y-95564466D01*
X131207400Y-95564466D01*
X131071933Y-95496733D01*
X131004200Y-95429000D01*
X130936466Y-95293533D01*
X130868733Y-95022600D01*
X130868733Y-94683933D01*
X130936466Y-94413000D01*
X131004200Y-94277533D01*
X131071933Y-94209800D01*
X131207400Y-94142066D01*
X132291133Y-95564466D02*
X132291133Y-94142066D01*
X133103933Y-95564466D02*
X132494333Y-94751666D01*
X133103933Y-94142066D02*
X132291133Y-94954866D01*
D11*
%TO.C,R12*%
X138719485Y-92867695D02*
X138448552Y-92480647D01*
X138255028Y-92867695D02*
X138255028Y-92054895D01*
X138564666Y-92054895D01*
X138642076Y-92093600D01*
X138680780Y-92132304D01*
X138719485Y-92209714D01*
X138719485Y-92325828D01*
X138680780Y-92403238D01*
X138642076Y-92441942D01*
X138564666Y-92480647D01*
X138255028Y-92480647D01*
X139493580Y-92867695D02*
X139029123Y-92867695D01*
X139261352Y-92867695D02*
X139261352Y-92054895D01*
X139183942Y-92171009D01*
X139106533Y-92248419D01*
X139029123Y-92287123D01*
X139803219Y-92132304D02*
X139841923Y-92093600D01*
X139919333Y-92054895D01*
X140112857Y-92054895D01*
X140190266Y-92093600D01*
X140228971Y-92132304D01*
X140267676Y-92209714D01*
X140267676Y-92287123D01*
X140228971Y-92403238D01*
X139764514Y-92867695D01*
X140267676Y-92867695D01*
D12*
X131004200Y-92314466D02*
X130191400Y-92314466D01*
X130597800Y-92314466D02*
X130597800Y-90892066D01*
X130462333Y-91095266D01*
X130326866Y-91230733D01*
X130191400Y-91298466D01*
X131613800Y-92314466D02*
X131613800Y-90892066D01*
X132426600Y-92314466D02*
X131817000Y-91501666D01*
X132426600Y-90892066D02*
X131613800Y-91704866D01*
D10*
%TO.C,C2*%
X165982142Y-93912666D02*
X166029761Y-93960285D01*
X166077380Y-94103142D01*
X166077380Y-94198380D01*
X166029761Y-94341238D01*
X165934523Y-94436476D01*
X165839285Y-94484095D01*
X165648809Y-94531714D01*
X165505952Y-94531714D01*
X165315476Y-94484095D01*
X165220238Y-94436476D01*
X165125000Y-94341238D01*
X165077380Y-94198380D01*
X165077380Y-94103142D01*
X165125000Y-93960285D01*
X165172619Y-93912666D01*
X165172619Y-93531714D02*
X165125000Y-93484095D01*
X165077380Y-93388857D01*
X165077380Y-93150761D01*
X165125000Y-93055523D01*
X165172619Y-93007904D01*
X165267857Y-92960285D01*
X165363095Y-92960285D01*
X165505952Y-93007904D01*
X166077380Y-93579333D01*
X166077380Y-92960285D01*
X169060380Y-94869047D02*
X169060380Y-95440476D01*
X169060380Y-95154761D02*
X168060380Y-95154761D01*
X168203238Y-95250000D01*
X168298476Y-95345238D01*
X168346095Y-95440476D01*
X168060380Y-94250000D02*
X168060380Y-94154761D01*
X168108000Y-94059523D01*
X168155619Y-94011904D01*
X168250857Y-93964285D01*
X168441333Y-93916666D01*
X168679428Y-93916666D01*
X168869904Y-93964285D01*
X168965142Y-94011904D01*
X169012761Y-94059523D01*
X169060380Y-94154761D01*
X169060380Y-94250000D01*
X169012761Y-94345238D01*
X168965142Y-94392857D01*
X168869904Y-94440476D01*
X168679428Y-94488095D01*
X168441333Y-94488095D01*
X168250857Y-94440476D01*
X168155619Y-94392857D01*
X168108000Y-94345238D01*
X168060380Y-94250000D01*
X168060380Y-93297619D02*
X168060380Y-93202380D01*
X168108000Y-93107142D01*
X168155619Y-93059523D01*
X168250857Y-93011904D01*
X168441333Y-92964285D01*
X168679428Y-92964285D01*
X168869904Y-93011904D01*
X168965142Y-93059523D01*
X169012761Y-93107142D01*
X169060380Y-93202380D01*
X169060380Y-93297619D01*
X169012761Y-93392857D01*
X168965142Y-93440476D01*
X168869904Y-93488095D01*
X168679428Y-93535714D01*
X168441333Y-93535714D01*
X168250857Y-93488095D01*
X168155619Y-93440476D01*
X168108000Y-93392857D01*
X168060380Y-93297619D01*
X168393714Y-92535714D02*
X169060380Y-92535714D01*
X168488952Y-92535714D02*
X168441333Y-92488095D01*
X168393714Y-92392857D01*
X168393714Y-92250000D01*
X168441333Y-92154761D01*
X168536571Y-92107142D01*
X169060380Y-92107142D01*
D11*
%TO.C,R10*%
X138719485Y-98417695D02*
X138448552Y-98030647D01*
X138255028Y-98417695D02*
X138255028Y-97604895D01*
X138564666Y-97604895D01*
X138642076Y-97643600D01*
X138680780Y-97682304D01*
X138719485Y-97759714D01*
X138719485Y-97875828D01*
X138680780Y-97953238D01*
X138642076Y-97991942D01*
X138564666Y-98030647D01*
X138255028Y-98030647D01*
X139493580Y-98417695D02*
X139029123Y-98417695D01*
X139261352Y-98417695D02*
X139261352Y-97604895D01*
X139183942Y-97721009D01*
X139106533Y-97798419D01*
X139029123Y-97837123D01*
X139996742Y-97604895D02*
X140074152Y-97604895D01*
X140151561Y-97643600D01*
X140190266Y-97682304D01*
X140228971Y-97759714D01*
X140267676Y-97914533D01*
X140267676Y-98108057D01*
X140228971Y-98262876D01*
X140190266Y-98340285D01*
X140151561Y-98378990D01*
X140074152Y-98417695D01*
X139996742Y-98417695D01*
X139919333Y-98378990D01*
X139880628Y-98340285D01*
X139841923Y-98262876D01*
X139803219Y-98108057D01*
X139803219Y-97914533D01*
X139841923Y-97759714D01*
X139880628Y-97682304D01*
X139919333Y-97643600D01*
X139996742Y-97604895D01*
D12*
X130267866Y-98882466D02*
X129455066Y-98882466D01*
X129861466Y-98882466D02*
X129861466Y-97460066D01*
X129726000Y-97663266D01*
X129590533Y-97798733D01*
X129455066Y-97866466D01*
X131148400Y-97460066D02*
X131283866Y-97460066D01*
X131419333Y-97527800D01*
X131487066Y-97595533D01*
X131554800Y-97731000D01*
X131622533Y-98001933D01*
X131622533Y-98340600D01*
X131554800Y-98611533D01*
X131487066Y-98747000D01*
X131419333Y-98814733D01*
X131283866Y-98882466D01*
X131148400Y-98882466D01*
X131012933Y-98814733D01*
X130945200Y-98747000D01*
X130877466Y-98611533D01*
X130809733Y-98340600D01*
X130809733Y-98001933D01*
X130877466Y-97731000D01*
X130945200Y-97595533D01*
X131012933Y-97527800D01*
X131148400Y-97460066D01*
X132232133Y-98882466D02*
X132232133Y-97460066D01*
X133044933Y-98882466D02*
X132435333Y-98069666D01*
X133044933Y-97460066D02*
X132232133Y-98272866D01*
D11*
%TO.C,R6*%
X148904533Y-109567695D02*
X148633600Y-109180647D01*
X148440076Y-109567695D02*
X148440076Y-108754895D01*
X148749714Y-108754895D01*
X148827123Y-108793600D01*
X148865828Y-108832304D01*
X148904533Y-108909714D01*
X148904533Y-109025828D01*
X148865828Y-109103238D01*
X148827123Y-109141942D01*
X148749714Y-109180647D01*
X148440076Y-109180647D01*
X149601219Y-108754895D02*
X149446400Y-108754895D01*
X149368990Y-108793600D01*
X149330285Y-108832304D01*
X149252876Y-108948419D01*
X149214171Y-109103238D01*
X149214171Y-109412876D01*
X149252876Y-109490285D01*
X149291580Y-109528990D01*
X149368990Y-109567695D01*
X149523809Y-109567695D01*
X149601219Y-109528990D01*
X149639923Y-109490285D01*
X149678628Y-109412876D01*
X149678628Y-109219352D01*
X149639923Y-109141942D01*
X149601219Y-109103238D01*
X149523809Y-109064533D01*
X149368990Y-109064533D01*
X149291580Y-109103238D01*
X149252876Y-109141942D01*
X149214171Y-109219352D01*
D12*
X155650866Y-109662466D02*
X154838066Y-109662466D01*
X155244466Y-109662466D02*
X155244466Y-108240066D01*
X155109000Y-108443266D01*
X154973533Y-108578733D01*
X154838066Y-108646466D01*
X156531400Y-108240066D02*
X156666866Y-108240066D01*
X156802333Y-108307800D01*
X156870066Y-108375533D01*
X156937800Y-108511000D01*
X157005533Y-108781933D01*
X157005533Y-109120600D01*
X156937800Y-109391533D01*
X156870066Y-109527000D01*
X156802333Y-109594733D01*
X156666866Y-109662466D01*
X156531400Y-109662466D01*
X156395933Y-109594733D01*
X156328200Y-109527000D01*
X156260466Y-109391533D01*
X156192733Y-109120600D01*
X156192733Y-108781933D01*
X156260466Y-108511000D01*
X156328200Y-108375533D01*
X156395933Y-108307800D01*
X156531400Y-108240066D01*
X157615133Y-109662466D02*
X157615133Y-108240066D01*
X158427933Y-109662466D02*
X157818333Y-108849666D01*
X158427933Y-108240066D02*
X157615133Y-109052866D01*
D10*
%TO.C,U2*%
X136822380Y-87501904D02*
X137631904Y-87501904D01*
X137727142Y-87454285D01*
X137774761Y-87406666D01*
X137822380Y-87311428D01*
X137822380Y-87120952D01*
X137774761Y-87025714D01*
X137727142Y-86978095D01*
X137631904Y-86930476D01*
X136822380Y-86930476D01*
X136917619Y-86501904D02*
X136870000Y-86454285D01*
X136822380Y-86359047D01*
X136822380Y-86120952D01*
X136870000Y-86025714D01*
X136917619Y-85978095D01*
X137012857Y-85930476D01*
X137108095Y-85930476D01*
X137250952Y-85978095D01*
X137822380Y-86549523D01*
X137822380Y-85930476D01*
X141630952Y-85952380D02*
X142202380Y-85952380D01*
X141916666Y-86952380D02*
X141916666Y-85952380D01*
X143011904Y-86952380D02*
X142535714Y-86952380D01*
X142535714Y-85952380D01*
X143535714Y-85952380D02*
X143630952Y-85952380D01*
X143726190Y-86000000D01*
X143773809Y-86047619D01*
X143821428Y-86142857D01*
X143869047Y-86333333D01*
X143869047Y-86571428D01*
X143821428Y-86761904D01*
X143773809Y-86857142D01*
X143726190Y-86904761D01*
X143630952Y-86952380D01*
X143535714Y-86952380D01*
X143440476Y-86904761D01*
X143392857Y-86857142D01*
X143345238Y-86761904D01*
X143297619Y-86571428D01*
X143297619Y-86333333D01*
X143345238Y-86142857D01*
X143392857Y-86047619D01*
X143440476Y-86000000D01*
X143535714Y-85952380D01*
X144202380Y-85952380D02*
X144869047Y-85952380D01*
X144440476Y-86952380D01*
X145773809Y-86952380D02*
X145202380Y-86952380D01*
X145488095Y-86952380D02*
X145488095Y-85952380D01*
X145392857Y-86095238D01*
X145297619Y-86190476D01*
X145202380Y-86238095D01*
D11*
%TO.C,R9*%
X161931695Y-99831466D02*
X161544647Y-100102400D01*
X161931695Y-100295923D02*
X161118895Y-100295923D01*
X161118895Y-99986285D01*
X161157600Y-99908876D01*
X161196304Y-99870171D01*
X161273714Y-99831466D01*
X161389828Y-99831466D01*
X161467238Y-99870171D01*
X161505942Y-99908876D01*
X161544647Y-99986285D01*
X161544647Y-100295923D01*
X161931695Y-99444419D02*
X161931695Y-99289600D01*
X161892990Y-99212190D01*
X161854285Y-99173485D01*
X161738171Y-99096076D01*
X161583352Y-99057371D01*
X161273714Y-99057371D01*
X161196304Y-99096076D01*
X161157600Y-99134780D01*
X161118895Y-99212190D01*
X161118895Y-99367009D01*
X161157600Y-99444419D01*
X161196304Y-99483123D01*
X161273714Y-99521828D01*
X161467238Y-99521828D01*
X161544647Y-99483123D01*
X161583352Y-99444419D01*
X161622057Y-99367009D01*
X161622057Y-99212190D01*
X161583352Y-99134780D01*
X161544647Y-99096076D01*
X161467238Y-99057371D01*
D12*
X160979533Y-93987933D02*
X160911800Y-93920200D01*
X160844066Y-93784733D01*
X160844066Y-93446066D01*
X160911800Y-93310600D01*
X160979533Y-93242866D01*
X161115000Y-93175133D01*
X161250466Y-93175133D01*
X161453666Y-93242866D01*
X162266466Y-94055666D01*
X162266466Y-93175133D01*
X160844066Y-92294600D02*
X160844066Y-92159133D01*
X160911800Y-92023666D01*
X160979533Y-91955933D01*
X161115000Y-91888200D01*
X161385933Y-91820466D01*
X161724600Y-91820466D01*
X161995533Y-91888200D01*
X162131000Y-91955933D01*
X162198733Y-92023666D01*
X162266466Y-92159133D01*
X162266466Y-92294600D01*
X162198733Y-92430066D01*
X162131000Y-92497800D01*
X161995533Y-92565533D01*
X161724600Y-92633266D01*
X161385933Y-92633266D01*
X161115000Y-92565533D01*
X160979533Y-92497800D01*
X160911800Y-92430066D01*
X160844066Y-92294600D01*
X162266466Y-91210866D02*
X160844066Y-91210866D01*
X162266466Y-90398066D02*
X161453666Y-91007666D01*
X160844066Y-90398066D02*
X161656866Y-91210866D01*
D10*
%TO.C,D1*%
X128321904Y-118072380D02*
X128321904Y-117072380D01*
X128560000Y-117072380D01*
X128702857Y-117120000D01*
X128798095Y-117215238D01*
X128845714Y-117310476D01*
X128893333Y-117500952D01*
X128893333Y-117643809D01*
X128845714Y-117834285D01*
X128798095Y-117929523D01*
X128702857Y-118024761D01*
X128560000Y-118072380D01*
X128321904Y-118072380D01*
X129845714Y-118072380D02*
X129274285Y-118072380D01*
X129560000Y-118072380D02*
X129560000Y-117072380D01*
X129464761Y-117215238D01*
X129369523Y-117310476D01*
X129274285Y-117358095D01*
D11*
%TO.C,R13*%
X124117695Y-83772514D02*
X123730647Y-84043447D01*
X124117695Y-84236971D02*
X123304895Y-84236971D01*
X123304895Y-83927333D01*
X123343600Y-83849923D01*
X123382304Y-83811219D01*
X123459714Y-83772514D01*
X123575828Y-83772514D01*
X123653238Y-83811219D01*
X123691942Y-83849923D01*
X123730647Y-83927333D01*
X123730647Y-84236971D01*
X124117695Y-82998419D02*
X124117695Y-83462876D01*
X124117695Y-83230647D02*
X123304895Y-83230647D01*
X123421009Y-83308057D01*
X123498419Y-83385466D01*
X123537123Y-83462876D01*
X123304895Y-82727485D02*
X123304895Y-82224323D01*
X123614533Y-82495257D01*
X123614533Y-82379142D01*
X123653238Y-82301733D01*
X123691942Y-82263028D01*
X123769352Y-82224323D01*
X123962876Y-82224323D01*
X124040285Y-82263028D01*
X124078990Y-82301733D01*
X124117695Y-82379142D01*
X124117695Y-82611371D01*
X124078990Y-82688780D01*
X124040285Y-82727485D01*
D12*
X129780866Y-83972466D02*
X128968066Y-83972466D01*
X129374466Y-83972466D02*
X129374466Y-82550066D01*
X129239000Y-82753266D01*
X129103533Y-82888733D01*
X128968066Y-82956466D01*
X130661400Y-82550066D02*
X130796866Y-82550066D01*
X130932333Y-82617800D01*
X131000066Y-82685533D01*
X131067800Y-82821000D01*
X131135533Y-83091933D01*
X131135533Y-83430600D01*
X131067800Y-83701533D01*
X131000066Y-83837000D01*
X130932333Y-83904733D01*
X130796866Y-83972466D01*
X130661400Y-83972466D01*
X130525933Y-83904733D01*
X130458200Y-83837000D01*
X130390466Y-83701533D01*
X130322733Y-83430600D01*
X130322733Y-83091933D01*
X130390466Y-82821000D01*
X130458200Y-82685533D01*
X130525933Y-82617800D01*
X130661400Y-82550066D01*
X131745133Y-83972466D02*
X131745133Y-82550066D01*
X132557933Y-83972466D02*
X131948333Y-83159666D01*
X132557933Y-82550066D02*
X131745133Y-83362866D01*
D10*
%TO.C,D2*%
X139771904Y-118102380D02*
X139771904Y-117102380D01*
X140010000Y-117102380D01*
X140152857Y-117150000D01*
X140248095Y-117245238D01*
X140295714Y-117340476D01*
X140343333Y-117530952D01*
X140343333Y-117673809D01*
X140295714Y-117864285D01*
X140248095Y-117959523D01*
X140152857Y-118054761D01*
X140010000Y-118102380D01*
X139771904Y-118102380D01*
X140724285Y-117197619D02*
X140771904Y-117150000D01*
X140867142Y-117102380D01*
X141105238Y-117102380D01*
X141200476Y-117150000D01*
X141248095Y-117197619D01*
X141295714Y-117292857D01*
X141295714Y-117388095D01*
X141248095Y-117530952D01*
X140676666Y-118102380D01*
X141295714Y-118102380D01*
%TO.C,C3*%
X144939333Y-96690142D02*
X144891714Y-96737761D01*
X144748857Y-96785380D01*
X144653619Y-96785380D01*
X144510761Y-96737761D01*
X144415523Y-96642523D01*
X144367904Y-96547285D01*
X144320285Y-96356809D01*
X144320285Y-96213952D01*
X144367904Y-96023476D01*
X144415523Y-95928238D01*
X144510761Y-95833000D01*
X144653619Y-95785380D01*
X144748857Y-95785380D01*
X144891714Y-95833000D01*
X144939333Y-95880619D01*
X145272666Y-95785380D02*
X145891714Y-95785380D01*
X145558380Y-96166333D01*
X145701238Y-96166333D01*
X145796476Y-96213952D01*
X145844095Y-96261571D01*
X145891714Y-96356809D01*
X145891714Y-96594904D01*
X145844095Y-96690142D01*
X145796476Y-96737761D01*
X145701238Y-96785380D01*
X145415523Y-96785380D01*
X145320285Y-96737761D01*
X145272666Y-96690142D01*
X143990952Y-93802380D02*
X143419523Y-93802380D01*
X143705238Y-93802380D02*
X143705238Y-92802380D01*
X143610000Y-92945238D01*
X143514761Y-93040476D01*
X143419523Y-93088095D01*
X144610000Y-92802380D02*
X144705238Y-92802380D01*
X144800476Y-92850000D01*
X144848095Y-92897619D01*
X144895714Y-92992857D01*
X144943333Y-93183333D01*
X144943333Y-93421428D01*
X144895714Y-93611904D01*
X144848095Y-93707142D01*
X144800476Y-93754761D01*
X144705238Y-93802380D01*
X144610000Y-93802380D01*
X144514761Y-93754761D01*
X144467142Y-93707142D01*
X144419523Y-93611904D01*
X144371904Y-93421428D01*
X144371904Y-93183333D01*
X144419523Y-92992857D01*
X144467142Y-92897619D01*
X144514761Y-92850000D01*
X144610000Y-92802380D01*
X145562380Y-92802380D02*
X145657619Y-92802380D01*
X145752857Y-92850000D01*
X145800476Y-92897619D01*
X145848095Y-92992857D01*
X145895714Y-93183333D01*
X145895714Y-93421428D01*
X145848095Y-93611904D01*
X145800476Y-93707142D01*
X145752857Y-93754761D01*
X145657619Y-93802380D01*
X145562380Y-93802380D01*
X145467142Y-93754761D01*
X145419523Y-93707142D01*
X145371904Y-93611904D01*
X145324285Y-93421428D01*
X145324285Y-93183333D01*
X145371904Y-92992857D01*
X145419523Y-92897619D01*
X145467142Y-92850000D01*
X145562380Y-92802380D01*
X146324285Y-93135714D02*
X146324285Y-93802380D01*
X146324285Y-93230952D02*
X146371904Y-93183333D01*
X146467142Y-93135714D01*
X146610000Y-93135714D01*
X146705238Y-93183333D01*
X146752857Y-93278571D01*
X146752857Y-93802380D01*
%TO.C,D3*%
X129101904Y-122302380D02*
X129101904Y-121302380D01*
X129340000Y-121302380D01*
X129482857Y-121350000D01*
X129578095Y-121445238D01*
X129625714Y-121540476D01*
X129673333Y-121730952D01*
X129673333Y-121873809D01*
X129625714Y-122064285D01*
X129578095Y-122159523D01*
X129482857Y-122254761D01*
X129340000Y-122302380D01*
X129101904Y-122302380D01*
X130006666Y-121302380D02*
X130625714Y-121302380D01*
X130292380Y-121683333D01*
X130435238Y-121683333D01*
X130530476Y-121730952D01*
X130578095Y-121778571D01*
X130625714Y-121873809D01*
X130625714Y-122111904D01*
X130578095Y-122207142D01*
X130530476Y-122254761D01*
X130435238Y-122302380D01*
X130149523Y-122302380D01*
X130054285Y-122254761D01*
X130006666Y-122207142D01*
X125358095Y-120222380D02*
X125358095Y-119222380D01*
X125929523Y-120222380D02*
X125500952Y-119650952D01*
X125929523Y-119222380D02*
X125358095Y-119793809D01*
%TO.C,C1*%
X131424142Y-109012666D02*
X131471761Y-109060285D01*
X131519380Y-109203142D01*
X131519380Y-109298380D01*
X131471761Y-109441238D01*
X131376523Y-109536476D01*
X131281285Y-109584095D01*
X131090809Y-109631714D01*
X130947952Y-109631714D01*
X130757476Y-109584095D01*
X130662238Y-109536476D01*
X130567000Y-109441238D01*
X130519380Y-109298380D01*
X130519380Y-109203142D01*
X130567000Y-109060285D01*
X130614619Y-109012666D01*
X131519380Y-108060285D02*
X131519380Y-108631714D01*
X131519380Y-108346000D02*
X130519380Y-108346000D01*
X130662238Y-108441238D01*
X130757476Y-108536476D01*
X130805095Y-108631714D01*
X127647619Y-110540476D02*
X127600000Y-110492857D01*
X127552380Y-110397619D01*
X127552380Y-110159523D01*
X127600000Y-110064285D01*
X127647619Y-110016666D01*
X127742857Y-109969047D01*
X127838095Y-109969047D01*
X127980952Y-110016666D01*
X128552380Y-110588095D01*
X128552380Y-109969047D01*
X127647619Y-109588095D02*
X127600000Y-109540476D01*
X127552380Y-109445238D01*
X127552380Y-109207142D01*
X127600000Y-109111904D01*
X127647619Y-109064285D01*
X127742857Y-109016666D01*
X127838095Y-109016666D01*
X127980952Y-109064285D01*
X128552380Y-109635714D01*
X128552380Y-109016666D01*
X127552380Y-108397619D02*
X127552380Y-108302380D01*
X127600000Y-108207142D01*
X127647619Y-108159523D01*
X127742857Y-108111904D01*
X127933333Y-108064285D01*
X128171428Y-108064285D01*
X128361904Y-108111904D01*
X128457142Y-108159523D01*
X128504761Y-108207142D01*
X128552380Y-108302380D01*
X128552380Y-108397619D01*
X128504761Y-108492857D01*
X128457142Y-108540476D01*
X128361904Y-108588095D01*
X128171428Y-108635714D01*
X127933333Y-108635714D01*
X127742857Y-108588095D01*
X127647619Y-108540476D01*
X127600000Y-108492857D01*
X127552380Y-108397619D01*
X127885714Y-107635714D02*
X128552380Y-107635714D01*
X127980952Y-107635714D02*
X127933333Y-107588095D01*
X127885714Y-107492857D01*
X127885714Y-107350000D01*
X127933333Y-107254761D01*
X128028571Y-107207142D01*
X128552380Y-107207142D01*
D11*
%TO.C,R3*%
X124117695Y-86135466D02*
X123730647Y-86406400D01*
X124117695Y-86599923D02*
X123304895Y-86599923D01*
X123304895Y-86290285D01*
X123343600Y-86212876D01*
X123382304Y-86174171D01*
X123459714Y-86135466D01*
X123575828Y-86135466D01*
X123653238Y-86174171D01*
X123691942Y-86212876D01*
X123730647Y-86290285D01*
X123730647Y-86599923D01*
X123304895Y-85864533D02*
X123304895Y-85361371D01*
X123614533Y-85632304D01*
X123614533Y-85516190D01*
X123653238Y-85438780D01*
X123691942Y-85400076D01*
X123769352Y-85361371D01*
X123962876Y-85361371D01*
X124040285Y-85400076D01*
X124078990Y-85438780D01*
X124117695Y-85516190D01*
X124117695Y-85748419D01*
X124078990Y-85825828D01*
X124040285Y-85864533D01*
D12*
X129780866Y-86722466D02*
X128968066Y-86722466D01*
X129374466Y-86722466D02*
X129374466Y-85300066D01*
X129239000Y-85503266D01*
X129103533Y-85638733D01*
X128968066Y-85706466D01*
X130661400Y-85300066D02*
X130796866Y-85300066D01*
X130932333Y-85367800D01*
X131000066Y-85435533D01*
X131067800Y-85571000D01*
X131135533Y-85841933D01*
X131135533Y-86180600D01*
X131067800Y-86451533D01*
X131000066Y-86587000D01*
X130932333Y-86654733D01*
X130796866Y-86722466D01*
X130661400Y-86722466D01*
X130525933Y-86654733D01*
X130458200Y-86587000D01*
X130390466Y-86451533D01*
X130322733Y-86180600D01*
X130322733Y-85841933D01*
X130390466Y-85571000D01*
X130458200Y-85435533D01*
X130525933Y-85367800D01*
X130661400Y-85300066D01*
X131745133Y-86722466D02*
X131745133Y-85300066D01*
X132557933Y-86722466D02*
X131948333Y-85909666D01*
X132557933Y-85300066D02*
X131745133Y-86112866D01*
D10*
%TO.C,D4*%
X139011904Y-122272380D02*
X139011904Y-121272380D01*
X139250000Y-121272380D01*
X139392857Y-121320000D01*
X139488095Y-121415238D01*
X139535714Y-121510476D01*
X139583333Y-121700952D01*
X139583333Y-121843809D01*
X139535714Y-122034285D01*
X139488095Y-122129523D01*
X139392857Y-122224761D01*
X139250000Y-122272380D01*
X139011904Y-122272380D01*
X140440476Y-121605714D02*
X140440476Y-122272380D01*
X140202380Y-121224761D02*
X139964285Y-121939047D01*
X140583333Y-121939047D01*
D11*
%TO.C,R4*%
X148890533Y-112905695D02*
X148619600Y-112518647D01*
X148426076Y-112905695D02*
X148426076Y-112092895D01*
X148735714Y-112092895D01*
X148813123Y-112131600D01*
X148851828Y-112170304D01*
X148890533Y-112247714D01*
X148890533Y-112363828D01*
X148851828Y-112441238D01*
X148813123Y-112479942D01*
X148735714Y-112518647D01*
X148426076Y-112518647D01*
X149587219Y-112363828D02*
X149587219Y-112905695D01*
X149393695Y-112054190D02*
X149200171Y-112634761D01*
X149703333Y-112634761D01*
D12*
X154093000Y-111568066D02*
X154973533Y-111568066D01*
X154499400Y-112109933D01*
X154702600Y-112109933D01*
X154838066Y-112177666D01*
X154905800Y-112245400D01*
X154973533Y-112380866D01*
X154973533Y-112719533D01*
X154905800Y-112855000D01*
X154838066Y-112922733D01*
X154702600Y-112990466D01*
X154296200Y-112990466D01*
X154160733Y-112922733D01*
X154093000Y-112855000D01*
X155650866Y-112990466D02*
X155921800Y-112990466D01*
X156057266Y-112922733D01*
X156125000Y-112855000D01*
X156260466Y-112651800D01*
X156328200Y-112380866D01*
X156328200Y-111839000D01*
X156260466Y-111703533D01*
X156192733Y-111635800D01*
X156057266Y-111568066D01*
X155786333Y-111568066D01*
X155650866Y-111635800D01*
X155583133Y-111703533D01*
X155515400Y-111839000D01*
X155515400Y-112177666D01*
X155583133Y-112313133D01*
X155650866Y-112380866D01*
X155786333Y-112448600D01*
X156057266Y-112448600D01*
X156192733Y-112380866D01*
X156260466Y-112313133D01*
X156328200Y-112177666D01*
X157208733Y-111568066D02*
X157344200Y-111568066D01*
X157479666Y-111635800D01*
X157547400Y-111703533D01*
X157615133Y-111839000D01*
X157682866Y-112109933D01*
X157682866Y-112448600D01*
X157615133Y-112719533D01*
X157547400Y-112855000D01*
X157479666Y-112922733D01*
X157344200Y-112990466D01*
X157208733Y-112990466D01*
X157073266Y-112922733D01*
X157005533Y-112855000D01*
X156937800Y-112719533D01*
X156870066Y-112448600D01*
X156870066Y-112109933D01*
X156937800Y-111839000D01*
X157005533Y-111703533D01*
X157073266Y-111635800D01*
X157208733Y-111568066D01*
X158292466Y-112990466D02*
X158292466Y-111568066D01*
X159105266Y-112990466D02*
X158495666Y-112177666D01*
X159105266Y-111568066D02*
X158292466Y-112380866D01*
D11*
%TO.C,R1*%
X135417695Y-101785466D02*
X135030647Y-102056400D01*
X135417695Y-102249923D02*
X134604895Y-102249923D01*
X134604895Y-101940285D01*
X134643600Y-101862876D01*
X134682304Y-101824171D01*
X134759714Y-101785466D01*
X134875828Y-101785466D01*
X134953238Y-101824171D01*
X134991942Y-101862876D01*
X135030647Y-101940285D01*
X135030647Y-102249923D01*
X135417695Y-101011371D02*
X135417695Y-101475828D01*
X135417695Y-101243600D02*
X134604895Y-101243600D01*
X134721009Y-101321009D01*
X134798419Y-101398419D01*
X134837123Y-101475828D01*
D12*
X135643466Y-109054800D02*
X135643466Y-109867600D01*
X135643466Y-109461200D02*
X134221066Y-109461200D01*
X134424266Y-109596666D01*
X134559733Y-109732133D01*
X134627466Y-109867600D01*
X135643466Y-108445200D02*
X134221066Y-108445200D01*
X135643466Y-107632400D02*
X134830666Y-108242000D01*
X134221066Y-107632400D02*
X135033866Y-108445200D01*
D11*
%TO.C,R7*%
X165867695Y-111385466D02*
X165480647Y-111656400D01*
X165867695Y-111849923D02*
X165054895Y-111849923D01*
X165054895Y-111540285D01*
X165093600Y-111462876D01*
X165132304Y-111424171D01*
X165209714Y-111385466D01*
X165325828Y-111385466D01*
X165403238Y-111424171D01*
X165441942Y-111462876D01*
X165480647Y-111540285D01*
X165480647Y-111849923D01*
X165054895Y-111114533D02*
X165054895Y-110572666D01*
X165867695Y-110921009D01*
D12*
X166330466Y-104719133D02*
X166330466Y-105531933D01*
X166330466Y-105125533D02*
X164908066Y-105125533D01*
X165111266Y-105261000D01*
X165246733Y-105396466D01*
X165314466Y-105531933D01*
X164908066Y-103838600D02*
X164908066Y-103703133D01*
X164975800Y-103567666D01*
X165043533Y-103499933D01*
X165179000Y-103432200D01*
X165449933Y-103364466D01*
X165788600Y-103364466D01*
X166059533Y-103432200D01*
X166195000Y-103499933D01*
X166262733Y-103567666D01*
X166330466Y-103703133D01*
X166330466Y-103838600D01*
X166262733Y-103974066D01*
X166195000Y-104041800D01*
X166059533Y-104109533D01*
X165788600Y-104177266D01*
X165449933Y-104177266D01*
X165179000Y-104109533D01*
X165043533Y-104041800D01*
X164975800Y-103974066D01*
X164908066Y-103838600D01*
X166330466Y-102754866D02*
X164908066Y-102754866D01*
X166330466Y-101942066D02*
X165517666Y-102551666D01*
X164908066Y-101942066D02*
X165720866Y-102754866D01*
D13*
%TO.C,U1*%
X157070000Y-105225000D02*
X157070000Y-87325000D01*
X151770000Y-105225000D02*
X157070000Y-105225000D01*
X157070000Y-87325000D02*
X155420000Y-87325000D01*
X153420000Y-87325000D02*
X151770000Y-87325000D01*
X151770000Y-87325000D02*
X151770000Y-105225000D01*
X153420000Y-87325000D02*
G75*
G03*
X155420000Y-87325000I1000000J0D01*
G01*
%TO.C,J1*%
X121726000Y-111058000D02*
X120396000Y-111058000D01*
X121726000Y-109728000D02*
X121726000Y-111058000D01*
X119066000Y-108458000D02*
X119066000Y-95698000D01*
X121726000Y-108458000D02*
X119066000Y-108458000D01*
X121726000Y-95698000D02*
X119066000Y-95698000D01*
X121726000Y-108458000D02*
X121726000Y-95698000D01*
D12*
%TO.C,R5*%
X138789000Y-104725180D02*
X137112600Y-104725180D01*
X138789000Y-113208780D02*
X137011000Y-113208780D01*
X138789000Y-113208780D02*
G75*
G03*
X139043000Y-112954780I0J254000D01*
G01*
X136757000Y-112954780D02*
G75*
G03*
X137011000Y-113208780I254000J0D01*
G01*
X137112600Y-104725180D02*
G75*
G03*
X136858600Y-104979180I0J-254000D01*
G01*
X139043000Y-104979180D02*
G75*
G03*
X138789000Y-104725180I-254000J0D01*
G01*
%TO.C,R2*%
X152161220Y-116713000D02*
X152161220Y-114935000D01*
X160644820Y-116713000D02*
X160644820Y-115036600D01*
X152415220Y-114681000D02*
G75*
G03*
X152161220Y-114935000I0J-254000D01*
G01*
X160390820Y-116967000D02*
G75*
G03*
X160644820Y-116713000I0J254000D01*
G01*
X152161220Y-116713000D02*
G75*
G03*
X152415220Y-116967000I254000J0D01*
G01*
X160644820Y-115036600D02*
G75*
G03*
X160390820Y-114782600I-254000J0D01*
G01*
%TO.C,R8*%
X152189180Y-118491000D02*
X152189180Y-120167400D01*
X160672780Y-118491000D02*
X160672780Y-120269000D01*
X160418780Y-120523000D02*
G75*
G03*
X160672780Y-120269000I0J254000D01*
G01*
X160672780Y-118491000D02*
G75*
G03*
X160418780Y-118237000I-254000J0D01*
G01*
X152443180Y-118237000D02*
G75*
G03*
X152189180Y-118491000I0J-254000D01*
G01*
X152189180Y-120167400D02*
G75*
G03*
X152443180Y-120421400I254000J0D01*
G01*
%TO.C,R11*%
X135780780Y-94111000D02*
X135780780Y-95889000D01*
X127297180Y-94111000D02*
X127297180Y-95787400D01*
X127297180Y-95787400D02*
G75*
G03*
X127551180Y-96041400I254000J0D01*
G01*
X135526780Y-96143000D02*
G75*
G03*
X135780780Y-95889000I0J254000D01*
G01*
X135780780Y-94111000D02*
G75*
G03*
X135526780Y-93857000I-254000J0D01*
G01*
X127551180Y-93857000D02*
G75*
G03*
X127297180Y-94111000I0J-254000D01*
G01*
%TO.C,R12*%
X135780780Y-90861000D02*
X135780780Y-92639000D01*
X127297180Y-90861000D02*
X127297180Y-92537400D01*
X127551180Y-90607000D02*
G75*
G03*
X127297180Y-90861000I0J-254000D01*
G01*
X135526780Y-92893000D02*
G75*
G03*
X135780780Y-92639000I0J254000D01*
G01*
X135780780Y-90861000D02*
G75*
G03*
X135526780Y-90607000I-254000J0D01*
G01*
X127297180Y-92537400D02*
G75*
G03*
X127551180Y-92791400I254000J0D01*
G01*
D13*
%TO.C,C2*%
X167478000Y-97370000D02*
X167478000Y-90130000D01*
X163738000Y-90130000D02*
X167478000Y-90130000D01*
X163738000Y-97370000D02*
X163738000Y-90130000D01*
X163738000Y-97370000D02*
X167478000Y-97370000D01*
D12*
%TO.C,R10*%
X135846820Y-99049000D02*
X135846820Y-97372600D01*
X127363220Y-99049000D02*
X127363220Y-97271000D01*
X135846820Y-97372600D02*
G75*
G03*
X135592820Y-97118600I-254000J0D01*
G01*
X135592820Y-99303000D02*
G75*
G03*
X135846820Y-99049000I0J254000D01*
G01*
X127363220Y-99049000D02*
G75*
G03*
X127617220Y-99303000I254000J0D01*
G01*
X127617220Y-97017000D02*
G75*
G03*
X127363220Y-97271000I0J-254000D01*
G01*
%TO.C,R6*%
X160644820Y-109829000D02*
X160644820Y-108152600D01*
X152161220Y-109829000D02*
X152161220Y-108051000D01*
X160390820Y-110083000D02*
G75*
G03*
X160644820Y-109829000I0J254000D01*
G01*
X152161220Y-109829000D02*
G75*
G03*
X152415220Y-110083000I254000J0D01*
G01*
X152415220Y-107797000D02*
G75*
G03*
X152161220Y-108051000I0J-254000D01*
G01*
X160644820Y-108152600D02*
G75*
G03*
X160390820Y-107898600I-254000J0D01*
G01*
D13*
%TO.C,U2*%
X138370000Y-84090000D02*
X138370000Y-85740000D01*
X148650000Y-84090000D02*
X138370000Y-84090000D01*
X148650000Y-89390000D02*
X148650000Y-84090000D01*
X138370000Y-89390000D02*
X148650000Y-89390000D01*
X138370000Y-87740000D02*
X138370000Y-89390000D01*
X138370000Y-87740000D02*
G75*
G03*
X138370000Y-85740000I0J1000000D01*
G01*
D12*
%TO.C,R9*%
X162433000Y-88181180D02*
X160756600Y-88181180D01*
X162433000Y-96664780D02*
X160655000Y-96664780D01*
X160401000Y-96410780D02*
G75*
G03*
X160655000Y-96664780I254000J0D01*
G01*
X160756600Y-88181180D02*
G75*
G03*
X160502600Y-88435180I0J-254000D01*
G01*
X162433000Y-96664780D02*
G75*
G03*
X162687000Y-96410780I0J254000D01*
G01*
X162687000Y-88435180D02*
G75*
G03*
X162433000Y-88181180I-254000J0D01*
G01*
D13*
%TO.C,D1*%
X131370000Y-119110000D02*
X131370000Y-116170000D01*
X126710000Y-119110000D02*
X126710000Y-118980000D01*
X132150000Y-118980000D02*
X132150000Y-119110000D01*
X132150000Y-119110000D02*
X126710000Y-119110000D01*
X132150000Y-116300000D02*
X132150000Y-116170000D01*
X131130000Y-119110000D02*
X131130000Y-116170000D01*
X131250000Y-119110000D02*
X131250000Y-116170000D01*
X126710000Y-116170000D02*
X126710000Y-116300000D01*
X132150000Y-116170000D02*
X126710000Y-116170000D01*
D12*
%TO.C,R13*%
X126291220Y-84139000D02*
X126291220Y-82361000D01*
X134774820Y-84139000D02*
X134774820Y-82462600D01*
X134520820Y-84393000D02*
G75*
G03*
X134774820Y-84139000I0J254000D01*
G01*
X126291220Y-84139000D02*
G75*
G03*
X126545220Y-84393000I254000J0D01*
G01*
X126545220Y-82107000D02*
G75*
G03*
X126291220Y-82361000I0J-254000D01*
G01*
X134774820Y-82462600D02*
G75*
G03*
X134520820Y-82208600I-254000J0D01*
G01*
D13*
%TO.C,D2*%
X138340000Y-116170000D02*
X138340000Y-119110000D01*
X137440000Y-119110000D02*
X142880000Y-119110000D01*
X138460000Y-116170000D02*
X138460000Y-119110000D01*
X137440000Y-118980000D02*
X137440000Y-119110000D01*
X138220000Y-116170000D02*
X138220000Y-119110000D01*
X142880000Y-116170000D02*
X142880000Y-116300000D01*
X142880000Y-119110000D02*
X142880000Y-118980000D01*
X137440000Y-116300000D02*
X137440000Y-116170000D01*
X137440000Y-116170000D02*
X142880000Y-116170000D01*
%TO.C,C3*%
X148730000Y-94480000D02*
X141490000Y-94480000D01*
X148730000Y-98220000D02*
X148730000Y-94480000D01*
X148730000Y-98220000D02*
X141490000Y-98220000D01*
X141490000Y-98220000D02*
X141490000Y-94480000D01*
%TO.C,D3*%
X127610000Y-120400000D02*
X127610000Y-123340000D01*
X127730000Y-120400000D02*
X127730000Y-123340000D01*
X132150000Y-123340000D02*
X132150000Y-123210000D01*
X126710000Y-120400000D02*
X132150000Y-120400000D01*
X126710000Y-120530000D02*
X126710000Y-120400000D01*
X126710000Y-123210000D02*
X126710000Y-123340000D01*
X132150000Y-120400000D02*
X132150000Y-120530000D01*
X127490000Y-120400000D02*
X127490000Y-123340000D01*
X126710000Y-123340000D02*
X132150000Y-123340000D01*
%TO.C,C1*%
X129180000Y-105230000D02*
X132920000Y-105230000D01*
X129180000Y-112470000D02*
X132920000Y-112470000D01*
X129180000Y-112470000D02*
X129180000Y-105230000D01*
X132920000Y-112470000D02*
X132920000Y-105230000D01*
D12*
%TO.C,R3*%
X126291220Y-86889000D02*
X126291220Y-85111000D01*
X134774820Y-86889000D02*
X134774820Y-85212600D01*
X134774820Y-85212600D02*
G75*
G03*
X134520820Y-84958600I-254000J0D01*
G01*
X126545220Y-84857000D02*
G75*
G03*
X126291220Y-85111000I0J-254000D01*
G01*
X134520820Y-87143000D02*
G75*
G03*
X134774820Y-86889000I0J254000D01*
G01*
X126291220Y-86889000D02*
G75*
G03*
X126545220Y-87143000I254000J0D01*
G01*
D13*
%TO.C,D4*%
X137440000Y-120400000D02*
X137440000Y-120530000D01*
X141980000Y-123340000D02*
X141980000Y-120400000D01*
X142880000Y-120400000D02*
X137440000Y-120400000D01*
X141860000Y-123340000D02*
X141860000Y-120400000D01*
X142100000Y-123340000D02*
X142100000Y-120400000D01*
X142880000Y-120530000D02*
X142880000Y-120400000D01*
X142880000Y-123210000D02*
X142880000Y-123340000D01*
X137440000Y-123340000D02*
X137440000Y-123210000D01*
X142880000Y-123340000D02*
X137440000Y-123340000D01*
D12*
%TO.C,R4*%
X152161220Y-113157000D02*
X152161220Y-111379000D01*
X160644820Y-113157000D02*
X160644820Y-111480600D01*
X160390820Y-113411000D02*
G75*
G03*
X160644820Y-113157000I0J254000D01*
G01*
X152161220Y-113157000D02*
G75*
G03*
X152415220Y-113411000I254000J0D01*
G01*
X152415220Y-111125000D02*
G75*
G03*
X152161220Y-111379000I0J-254000D01*
G01*
X160644820Y-111480600D02*
G75*
G03*
X160390820Y-111226600I-254000J0D01*
G01*
%TO.C,R1*%
X134161000Y-113274820D02*
X135837400Y-113274820D01*
X134161000Y-104791220D02*
X135939000Y-104791220D01*
X135837400Y-113274820D02*
G75*
G03*
X136091400Y-113020820I0J254000D01*
G01*
X133907000Y-113020820D02*
G75*
G03*
X134161000Y-113274820I254000J0D01*
G01*
X136193000Y-105045220D02*
G75*
G03*
X135939000Y-104791220I-254000J0D01*
G01*
X134161000Y-104791220D02*
G75*
G03*
X133907000Y-105045220I0J-254000D01*
G01*
%TO.C,R7*%
X166497000Y-108208780D02*
X164719000Y-108208780D01*
X166497000Y-99725180D02*
X164820600Y-99725180D01*
X164465000Y-107954780D02*
G75*
G03*
X164719000Y-108208780I254000J0D01*
G01*
X166751000Y-99979180D02*
G75*
G03*
X166497000Y-99725180I-254000J0D01*
G01*
X166497000Y-108208780D02*
G75*
G03*
X166751000Y-107954780I0J254000D01*
G01*
X164820600Y-99725180D02*
G75*
G03*
X164566600Y-99979180I0J-254000D01*
G01*
%TD*%
M02*
