%TF.GenerationSoftware,KiCad,Pcbnew,(6.0.0-0)*%
%TF.CreationDate,2022-01-05T21:11:28+01:00*%
%TF.ProjectId,218_trigger_mod,3231385f-7472-4696-9767-65725f6d6f64,rev?*%
%TF.SameCoordinates,Original*%
%TF.FileFunction,Copper,L2,Bot*%
%TF.FilePolarity,Positive*%
%FSLAX46Y46*%
G04 Gerber Fmt 4.6, Leading zero omitted, Abs format (unit mm)*
G04 Created by KiCad (PCBNEW (6.0.0-0)) date 2022-01-05 21:11:28*
%MOMM*%
%LPD*%
G01*
G04 APERTURE LIST*
%TA.AperFunction,ComponentPad*%
%ADD10R,1.600000X1.600000*%
%TD*%
%TA.AperFunction,ComponentPad*%
%ADD11O,1.600000X1.600000*%
%TD*%
%TA.AperFunction,ComponentPad*%
%ADD12R,1.700000X1.700000*%
%TD*%
%TA.AperFunction,ComponentPad*%
%ADD13O,1.700000X1.700000*%
%TD*%
%TA.AperFunction,ComponentPad*%
%ADD14C,1.320800*%
%TD*%
%TA.AperFunction,ComponentPad*%
%ADD15C,1.600000*%
%TD*%
%TA.AperFunction,ComponentPad*%
%ADD16R,2.200000X2.200000*%
%TD*%
%TA.AperFunction,ComponentPad*%
%ADD17O,2.200000X2.200000*%
%TD*%
%TA.AperFunction,ViaPad*%
%ADD18C,0.800000*%
%TD*%
%TA.AperFunction,Conductor*%
%ADD19C,0.500000*%
%TD*%
%TA.AperFunction,Conductor*%
%ADD20C,1.000000*%
%TD*%
G04 APERTURE END LIST*
D10*
%TO.P,U1,1*%
%TO.N,Net-(C1-Pad1)*%
X150610000Y-88655000D03*
D11*
%TO.P,U1,2,-*%
X150610000Y-91195000D03*
%TO.P,U1,3,+*%
%TO.N,/key*%
X150610000Y-93735000D03*
%TO.P,U1,4,V+*%
%TO.N,+15V*%
X150610000Y-96275000D03*
%TO.P,U1,5,+*%
%TO.N,Net-(C1-Pad2)*%
X150610000Y-98815000D03*
%TO.P,U1,6,-*%
%TO.N,Net-(R2-Pad1)*%
X150610000Y-101355000D03*
%TO.P,U1,7*%
%TO.N,Net-(R4-Pad2)*%
X150610000Y-103895000D03*
%TO.P,U1,8*%
%TO.N,Net-(R7-Pad2)*%
X158230000Y-103895000D03*
%TO.P,U1,9,-*%
%TO.N,Net-(R6-Pad2)*%
X158230000Y-101355000D03*
%TO.P,U1,10,+*%
%TO.N,GND*%
X158230000Y-98815000D03*
%TO.P,U1,11,V-*%
%TO.N,-15V*%
X158230000Y-96275000D03*
%TO.P,U1,12,+*%
%TO.N,GND*%
X158230000Y-93735000D03*
%TO.P,U1,13,-*%
%TO.N,Net-(R10-Pad2)*%
X158230000Y-91195000D03*
%TO.P,U1,14*%
%TO.N,Net-(R12-Pad1)*%
X158230000Y-88655000D03*
%TD*%
D12*
%TO.P,J1,1,Pin_1*%
%TO.N,-15V*%
X120396000Y-109728000D03*
D13*
%TO.P,J1,2,Pin_2*%
%TO.N,GND*%
X120396000Y-107188000D03*
%TO.P,J1,3,Pin_3*%
%TO.N,+15V*%
X120396000Y-104648000D03*
%TO.P,J1,4,Pin_4*%
%TO.N,/key*%
X120396000Y-102108000D03*
%TO.P,J1,5,Pin_5*%
%TO.N,/pulse*%
X120396000Y-99568000D03*
%TO.P,J1,6,Pin_6*%
%TO.N,/out*%
X120396000Y-97028000D03*
%TD*%
D14*
%TO.P,R5,1*%
%TO.N,Net-(D2-Pad2)*%
X137900000Y-114080000D03*
%TO.P,R5,2*%
%TO.N,Net-(R4-Pad2)*%
X137900000Y-103920000D03*
%TD*%
%TO.P,R2,1*%
%TO.N,Net-(R2-Pad1)*%
X151290000Y-115824000D03*
%TO.P,R2,2*%
%TO.N,GND*%
X161450000Y-115824000D03*
%TD*%
%TO.P,R8,1*%
%TO.N,Net-(R7-Pad2)*%
X161544000Y-119380000D03*
%TO.P,R8,2*%
%TO.N,Net-(D1-Pad2)*%
X151384000Y-119380000D03*
%TD*%
%TO.P,R11,1*%
%TO.N,Net-(R10-Pad2)*%
X136652000Y-95000000D03*
%TO.P,R11,2*%
%TO.N,/out*%
X126492000Y-95000000D03*
%TD*%
%TO.P,R12,1*%
%TO.N,Net-(R12-Pad1)*%
X136652000Y-91750000D03*
%TO.P,R12,2*%
%TO.N,/out*%
X126492000Y-91750000D03*
%TD*%
D15*
%TO.P,C2,1*%
%TO.N,-15V*%
X165608000Y-96250000D03*
%TO.P,C2,2*%
%TO.N,GND*%
X165608000Y-91250000D03*
%TD*%
D14*
%TO.P,R10,1*%
%TO.N,Net-(R10-Pad1)*%
X126492000Y-98160000D03*
%TO.P,R10,2*%
%TO.N,Net-(R10-Pad2)*%
X136652000Y-98160000D03*
%TD*%
%TO.P,R6,1*%
%TO.N,Net-(R4-Pad2)*%
X151290000Y-108940000D03*
%TO.P,R6,2*%
%TO.N,Net-(R6-Pad2)*%
X161450000Y-108940000D03*
%TD*%
D10*
%TO.P,U2,1,NULL*%
%TO.N,unconnected-(U2-Pad1)*%
X139700000Y-90550000D03*
D11*
%TO.P,U2,2,-*%
%TO.N,Net-(R13-Pad1)*%
X142240000Y-90550000D03*
%TO.P,U2,3,+*%
%TO.N,GND*%
X144780000Y-90550000D03*
%TO.P,U2,4,V-*%
%TO.N,-15V*%
X147320000Y-90550000D03*
%TO.P,U2,5,NULL*%
%TO.N,unconnected-(U2-Pad5)*%
X147320000Y-82930000D03*
%TO.P,U2,6*%
%TO.N,Net-(R10-Pad1)*%
X144780000Y-82930000D03*
%TO.P,U2,7,V+*%
%TO.N,+15V*%
X142240000Y-82930000D03*
%TO.P,U2,8,NC*%
%TO.N,unconnected-(U2-Pad8)*%
X139700000Y-82930000D03*
%TD*%
D14*
%TO.P,R9,1*%
%TO.N,Net-(D3-Pad2)*%
X161544000Y-97536000D03*
%TO.P,R9,2*%
%TO.N,Net-(R10-Pad2)*%
X161544000Y-87376000D03*
%TD*%
D16*
%TO.P,D1,1,K*%
%TO.N,GND*%
X133240000Y-117640000D03*
D17*
%TO.P,D1,2,A*%
%TO.N,Net-(D1-Pad2)*%
X125620000Y-117640000D03*
%TD*%
D14*
%TO.P,R13,1*%
%TO.N,Net-(R13-Pad1)*%
X125420000Y-83250000D03*
%TO.P,R13,2*%
%TO.N,Net-(R10-Pad1)*%
X135580000Y-83250000D03*
%TD*%
D16*
%TO.P,D2,1,K*%
%TO.N,GND*%
X136350000Y-117640000D03*
D17*
%TO.P,D2,2,A*%
%TO.N,Net-(D2-Pad2)*%
X143970000Y-117640000D03*
%TD*%
D15*
%TO.P,C3,1*%
%TO.N,+15V*%
X147610000Y-96350000D03*
%TO.P,C3,2*%
%TO.N,GND*%
X142610000Y-96350000D03*
%TD*%
D16*
%TO.P,D3,1,K*%
%TO.N,Net-(D1-Pad2)*%
X125620000Y-121870000D03*
D17*
%TO.P,D3,2,A*%
%TO.N,Net-(D3-Pad2)*%
X133240000Y-121870000D03*
%TD*%
D15*
%TO.P,C1,1*%
%TO.N,Net-(C1-Pad1)*%
X131050000Y-111350000D03*
%TO.P,C1,2*%
%TO.N,Net-(C1-Pad2)*%
X131050000Y-106350000D03*
%TD*%
D14*
%TO.P,R3,1*%
%TO.N,/pulse*%
X125420000Y-86000000D03*
%TO.P,R3,2*%
%TO.N,Net-(R13-Pad1)*%
X135580000Y-86000000D03*
%TD*%
D16*
%TO.P,D4,1,K*%
%TO.N,Net-(D2-Pad2)*%
X143970000Y-121870000D03*
D17*
%TO.P,D4,2,A*%
%TO.N,Net-(D3-Pad2)*%
X136350000Y-121870000D03*
%TD*%
D14*
%TO.P,R4,1*%
%TO.N,Net-(R2-Pad1)*%
X151290000Y-112268000D03*
%TO.P,R4,2*%
%TO.N,Net-(R4-Pad2)*%
X161450000Y-112268000D03*
%TD*%
%TO.P,R1,1*%
%TO.N,Net-(C1-Pad2)*%
X135050000Y-103920000D03*
%TO.P,R1,2*%
%TO.N,GND*%
X135050000Y-114080000D03*
%TD*%
%TO.P,R7,1*%
%TO.N,Net-(R6-Pad2)*%
X165608000Y-109080000D03*
%TO.P,R7,2*%
%TO.N,Net-(R7-Pad2)*%
X165608000Y-98920000D03*
%TD*%
D18*
%TO.N,-15V*%
X153500000Y-95750000D03*
X131064000Y-96750000D03*
%TO.N,Net-(R6-Pad2)*%
X156000000Y-107250000D03*
%TO.N,Net-(R10-Pad1)*%
X130750000Y-88250000D03*
%TD*%
D19*
%TO.N,Net-(C1-Pad1)*%
X132930000Y-103660348D02*
X142090348Y-94500000D01*
X142090348Y-94500000D02*
X147305000Y-94500000D01*
X132930000Y-109470000D02*
X132930000Y-103660348D01*
X131050000Y-111350000D02*
X132930000Y-109470000D01*
X147305000Y-94500000D02*
X150610000Y-91195000D01*
D20*
%TO.N,+15V*%
X152896117Y-85256459D02*
X154949510Y-87309852D01*
X151409999Y-97074999D02*
X150610000Y-96275000D01*
X142161958Y-87500000D02*
X143705979Y-85955979D01*
X143705979Y-85955979D02*
X144405499Y-85256459D01*
X144405499Y-85256459D02*
X152896117Y-85256459D01*
X154949510Y-87309852D02*
X154949510Y-95996854D01*
X129721180Y-97668820D02*
X129721180Y-93528820D01*
X153871365Y-97074999D02*
X151409999Y-97074999D01*
X147610000Y-96350000D02*
X150535000Y-96350000D01*
X129721180Y-93528820D02*
X135750000Y-87500000D01*
X120396000Y-104648000D02*
X122742000Y-104648000D01*
X154949510Y-95996854D02*
X153871365Y-97074999D01*
X122742000Y-104648000D02*
X129721180Y-97668820D01*
X135750000Y-87500000D02*
X142161958Y-87500000D01*
X142240000Y-84490000D02*
X143705979Y-85955979D01*
X142240000Y-82930000D02*
X142240000Y-84490000D01*
%TO.N,-15V*%
X136250000Y-88750000D02*
X131064000Y-93936000D01*
X165370000Y-96012000D02*
X158493000Y-96012000D01*
X146155490Y-87155490D02*
X144560980Y-88750000D01*
X152250000Y-86500000D02*
X153500000Y-87750000D01*
X147320000Y-90550000D02*
X147320000Y-88320000D01*
X146810980Y-86500000D02*
X152250000Y-86500000D01*
X131064000Y-93936000D02*
X131064000Y-96750000D01*
X165608000Y-96250000D02*
X165370000Y-96012000D01*
X144560980Y-88750000D02*
X136250000Y-88750000D01*
X147320000Y-88320000D02*
X146155490Y-87155490D01*
X146155490Y-87155490D02*
X146810980Y-86500000D01*
X153500000Y-87750000D02*
X153500000Y-95750000D01*
X158493000Y-96012000D02*
X158230000Y-96275000D01*
D19*
%TO.N,Net-(D2-Pad2)*%
X140410000Y-114080000D02*
X137900000Y-114080000D01*
X143600000Y-117270000D02*
X140410000Y-114080000D01*
%TO.N,Net-(R2-Pad1)*%
X151290000Y-112268000D02*
X149360489Y-110338489D01*
X149360489Y-110338489D02*
X149360489Y-102604511D01*
X149360489Y-102604511D02*
X150610000Y-101355000D01*
%TO.N,Net-(R4-Pad2)*%
X151290000Y-108940000D02*
X150880000Y-108530000D01*
X150880000Y-108530000D02*
X150880000Y-104165000D01*
%TO.N,Net-(R6-Pad2)*%
X158230000Y-101355000D02*
X156000000Y-103585000D01*
X156000000Y-103585000D02*
X156000000Y-107250000D01*
%TO.N,Net-(R7-Pad2)*%
X158230000Y-103895000D02*
X159815000Y-103895000D01*
X164790000Y-98920000D02*
X165608000Y-98920000D01*
X161036000Y-119380000D02*
X158230000Y-116574000D01*
X161544000Y-119380000D02*
X161036000Y-119380000D01*
X159815000Y-103895000D02*
X164790000Y-98920000D01*
X158230000Y-116574000D02*
X158230000Y-103895000D01*
%TO.N,Net-(R10-Pad1)*%
X130750000Y-87146054D02*
X134646054Y-83250000D01*
X134646054Y-83250000D02*
X135580000Y-83250000D01*
X130750000Y-88250000D02*
X130750000Y-87146054D01*
%TD*%
%TA.AperFunction,Conductor*%
%TO.N,GND*%
G36*
X139153086Y-81528002D02*
G01*
X139199579Y-81581658D01*
X139209683Y-81651932D01*
X139180189Y-81716512D01*
X139138214Y-81748195D01*
X139048242Y-81790149D01*
X139048236Y-81790153D01*
X139043251Y-81792477D01*
X139036242Y-81797385D01*
X138860211Y-81920643D01*
X138860208Y-81920645D01*
X138855700Y-81923802D01*
X138693802Y-82085700D01*
X138690645Y-82090208D01*
X138690643Y-82090211D01*
X138659483Y-82134712D01*
X138562477Y-82273251D01*
X138560154Y-82278233D01*
X138560151Y-82278238D01*
X138470506Y-82470484D01*
X138465716Y-82480757D01*
X138464294Y-82486065D01*
X138464293Y-82486067D01*
X138421843Y-82644491D01*
X138406457Y-82701913D01*
X138386502Y-82930000D01*
X138406457Y-83158087D01*
X138407881Y-83163400D01*
X138407881Y-83163402D01*
X138462538Y-83367381D01*
X138465716Y-83379243D01*
X138468039Y-83384224D01*
X138468039Y-83384225D01*
X138560151Y-83581762D01*
X138560154Y-83581767D01*
X138562477Y-83586749D01*
X138601066Y-83641859D01*
X138688856Y-83767236D01*
X138693802Y-83774300D01*
X138855700Y-83936198D01*
X138860208Y-83939355D01*
X138860211Y-83939357D01*
X138911453Y-83975237D01*
X139043251Y-84067523D01*
X139048233Y-84069846D01*
X139048238Y-84069849D01*
X139209022Y-84144823D01*
X139250757Y-84164284D01*
X139256065Y-84165706D01*
X139256067Y-84165707D01*
X139466598Y-84222119D01*
X139466600Y-84222119D01*
X139471913Y-84223543D01*
X139700000Y-84243498D01*
X139928087Y-84223543D01*
X139933400Y-84222119D01*
X139933402Y-84222119D01*
X140143933Y-84165707D01*
X140143935Y-84165706D01*
X140149243Y-84164284D01*
X140190978Y-84144823D01*
X140351762Y-84069849D01*
X140351767Y-84069846D01*
X140356749Y-84067523D01*
X140488547Y-83975237D01*
X140539789Y-83939357D01*
X140539792Y-83939355D01*
X140544300Y-83936198D01*
X140706198Y-83774300D01*
X140711145Y-83767236D01*
X140798934Y-83641859D01*
X140837523Y-83586749D01*
X140839846Y-83581767D01*
X140839849Y-83581762D01*
X140855805Y-83547543D01*
X140902722Y-83494258D01*
X140970999Y-83474797D01*
X141038959Y-83495339D01*
X141084195Y-83547543D01*
X141100151Y-83581762D01*
X141100154Y-83581767D01*
X141102477Y-83586749D01*
X141141066Y-83641859D01*
X141208713Y-83738469D01*
X141231500Y-83810740D01*
X141231500Y-84428157D01*
X141230763Y-84441764D01*
X141227524Y-84471583D01*
X141226676Y-84479388D01*
X141227213Y-84485523D01*
X141231050Y-84529388D01*
X141231379Y-84534214D01*
X141231500Y-84536686D01*
X141231500Y-84539769D01*
X141231801Y-84542837D01*
X141235690Y-84582506D01*
X141235812Y-84583819D01*
X141239685Y-84628084D01*
X141243913Y-84676413D01*
X141245400Y-84681532D01*
X141245920Y-84686833D01*
X141272791Y-84775834D01*
X141273126Y-84776967D01*
X141289595Y-84833650D01*
X141299091Y-84866336D01*
X141301544Y-84871068D01*
X141303084Y-84876169D01*
X141305978Y-84881612D01*
X141346731Y-84958260D01*
X141347343Y-84959426D01*
X141372622Y-85008193D01*
X141390108Y-85041926D01*
X141393431Y-85046089D01*
X141395934Y-85050796D01*
X141454755Y-85122918D01*
X141455446Y-85123774D01*
X141486738Y-85162973D01*
X141489242Y-85165477D01*
X141489884Y-85166195D01*
X141493585Y-85170528D01*
X141520935Y-85204062D01*
X141556267Y-85233291D01*
X141565037Y-85241273D01*
X142190649Y-85866885D01*
X142224675Y-85929197D01*
X142219610Y-86000012D01*
X142190649Y-86045075D01*
X141781129Y-86454595D01*
X141718817Y-86488621D01*
X141692034Y-86491500D01*
X136823489Y-86491500D01*
X136755368Y-86471498D01*
X136708875Y-86417842D01*
X136698771Y-86347568D01*
X136704176Y-86324998D01*
X136719615Y-86279517D01*
X136719615Y-86279515D01*
X136721473Y-86274043D01*
X136723816Y-86257888D01*
X136751766Y-86065112D01*
X136752299Y-86061438D01*
X136753908Y-86000000D01*
X136734251Y-85786072D01*
X136727369Y-85761668D01*
X136681854Y-85600287D01*
X136675938Y-85579309D01*
X136631687Y-85489576D01*
X136583475Y-85391814D01*
X136580921Y-85386635D01*
X136452384Y-85214502D01*
X136404837Y-85170550D01*
X136298870Y-85072595D01*
X136298867Y-85072593D01*
X136294630Y-85068676D01*
X136112943Y-84954040D01*
X135913408Y-84874434D01*
X135907748Y-84873308D01*
X135907744Y-84873307D01*
X135708374Y-84833650D01*
X135708371Y-84833650D01*
X135702707Y-84832523D01*
X135696932Y-84832447D01*
X135696928Y-84832447D01*
X135589255Y-84831038D01*
X135487896Y-84829711D01*
X135482199Y-84830690D01*
X135482198Y-84830690D01*
X135281867Y-84865113D01*
X135276170Y-84866092D01*
X135074620Y-84940448D01*
X134889994Y-85050288D01*
X134885654Y-85054094D01*
X134885650Y-85054097D01*
X134791767Y-85136431D01*
X134728477Y-85191935D01*
X134595478Y-85360644D01*
X134592789Y-85365755D01*
X134592787Y-85365758D01*
X134541979Y-85462328D01*
X134495450Y-85550765D01*
X134431745Y-85755931D01*
X134406494Y-85969271D01*
X134420545Y-86183640D01*
X134473426Y-86391859D01*
X134563366Y-86586954D01*
X134687353Y-86762392D01*
X134691487Y-86766419D01*
X134785369Y-86857875D01*
X134820206Y-86919736D01*
X134816069Y-86990612D01*
X134786542Y-87037224D01*
X129051801Y-92771965D01*
X129041658Y-92781067D01*
X129012155Y-92804788D01*
X129008188Y-92809516D01*
X128979889Y-92843241D01*
X128976708Y-92846889D01*
X128975065Y-92848701D01*
X128972871Y-92850895D01*
X128945538Y-92884169D01*
X128944876Y-92884967D01*
X128885026Y-92956294D01*
X128882458Y-92960964D01*
X128879077Y-92965081D01*
X128848040Y-93022965D01*
X128835203Y-93046906D01*
X128834574Y-93048065D01*
X128792718Y-93124201D01*
X128792715Y-93124209D01*
X128789747Y-93129607D01*
X128788135Y-93134689D01*
X128785618Y-93139383D01*
X128758418Y-93228351D01*
X128758098Y-93229379D01*
X128729945Y-93318126D01*
X128729351Y-93323422D01*
X128727793Y-93328518D01*
X128727170Y-93334654D01*
X128718398Y-93421007D01*
X128718269Y-93422213D01*
X128712680Y-93472047D01*
X128712680Y-93475574D01*
X128712625Y-93476559D01*
X128712178Y-93482239D01*
X128707806Y-93525282D01*
X128708386Y-93531413D01*
X128712121Y-93570929D01*
X128712680Y-93582787D01*
X128712680Y-97198895D01*
X128692678Y-97267016D01*
X128675775Y-97287990D01*
X127867491Y-98096274D01*
X127805179Y-98130300D01*
X127734364Y-98125235D01*
X127677528Y-98082688D01*
X127652925Y-98018708D01*
X127652443Y-98013455D01*
X127648205Y-97967333D01*
X127646780Y-97951828D01*
X127646780Y-97951827D01*
X127646251Y-97946072D01*
X127641115Y-97927859D01*
X127613645Y-97830461D01*
X127587938Y-97739309D01*
X127583386Y-97730077D01*
X127495475Y-97551814D01*
X127492921Y-97546635D01*
X127394512Y-97414849D01*
X127367837Y-97379126D01*
X127367836Y-97379125D01*
X127364384Y-97374502D01*
X127360148Y-97370586D01*
X127210870Y-97232595D01*
X127210867Y-97232593D01*
X127206630Y-97228676D01*
X127024943Y-97114040D01*
X126825408Y-97034434D01*
X126819748Y-97033308D01*
X126819744Y-97033307D01*
X126620374Y-96993650D01*
X126620371Y-96993650D01*
X126614707Y-96992523D01*
X126608932Y-96992447D01*
X126608928Y-96992447D01*
X126501255Y-96991038D01*
X126399896Y-96989711D01*
X126394199Y-96990690D01*
X126394198Y-96990690D01*
X126196585Y-97024646D01*
X126188170Y-97026092D01*
X125986620Y-97100448D01*
X125801994Y-97210288D01*
X125797654Y-97214094D01*
X125797650Y-97214097D01*
X125644818Y-97348128D01*
X125640477Y-97351935D01*
X125636902Y-97356470D01*
X125636901Y-97356471D01*
X125634626Y-97359357D01*
X125507478Y-97520644D01*
X125504789Y-97525755D01*
X125504787Y-97525758D01*
X125464683Y-97601983D01*
X125407450Y-97710765D01*
X125343745Y-97915931D01*
X125318494Y-98129271D01*
X125332545Y-98343640D01*
X125385426Y-98551859D01*
X125475366Y-98746954D01*
X125599353Y-98922392D01*
X125753236Y-99072298D01*
X125758032Y-99075503D01*
X125758035Y-99075505D01*
X125927055Y-99188440D01*
X125927060Y-99188443D01*
X125931860Y-99191650D01*
X125937169Y-99193931D01*
X125937171Y-99193932D01*
X126123932Y-99274172D01*
X126123936Y-99274173D01*
X126129242Y-99276453D01*
X126134874Y-99277727D01*
X126134876Y-99277728D01*
X126333137Y-99322590D01*
X126333142Y-99322591D01*
X126338774Y-99323865D01*
X126344545Y-99324092D01*
X126350275Y-99324846D01*
X126349982Y-99327072D01*
X126407970Y-99346607D01*
X126452316Y-99402050D01*
X126459648Y-99472667D01*
X126424827Y-99538938D01*
X122361171Y-103602595D01*
X122298859Y-103636621D01*
X122272076Y-103639500D01*
X121354799Y-103639500D01*
X121286678Y-103619498D01*
X121276707Y-103612382D01*
X121154414Y-103515800D01*
X121154410Y-103515798D01*
X121150359Y-103512598D01*
X121109053Y-103489796D01*
X121059084Y-103439364D01*
X121044312Y-103369921D01*
X121069428Y-103303516D01*
X121096780Y-103276909D01*
X121143985Y-103243238D01*
X121275860Y-103149173D01*
X121288578Y-103136500D01*
X121403329Y-103022149D01*
X121434096Y-102991489D01*
X121446594Y-102974097D01*
X121561435Y-102814277D01*
X121564453Y-102810077D01*
X121589717Y-102758960D01*
X121661136Y-102614453D01*
X121661137Y-102614451D01*
X121663430Y-102609811D01*
X121728370Y-102396069D01*
X121757529Y-102174590D01*
X121758737Y-102125166D01*
X121759074Y-102111365D01*
X121759074Y-102111361D01*
X121759156Y-102108000D01*
X121740852Y-101885361D01*
X121686431Y-101668702D01*
X121597354Y-101463840D01*
X121476014Y-101276277D01*
X121325670Y-101111051D01*
X121321619Y-101107852D01*
X121321615Y-101107848D01*
X121154414Y-100975800D01*
X121154410Y-100975798D01*
X121150359Y-100972598D01*
X121109053Y-100949796D01*
X121059084Y-100899364D01*
X121044312Y-100829921D01*
X121069428Y-100763516D01*
X121096780Y-100736909D01*
X121143985Y-100703238D01*
X121275860Y-100609173D01*
X121434096Y-100451489D01*
X121493594Y-100368689D01*
X121561435Y-100274277D01*
X121564453Y-100270077D01*
X121590450Y-100217477D01*
X121661136Y-100074453D01*
X121661137Y-100074451D01*
X121663430Y-100069811D01*
X121728370Y-99856069D01*
X121757529Y-99634590D01*
X121757611Y-99631240D01*
X121759074Y-99571365D01*
X121759074Y-99571361D01*
X121759156Y-99568000D01*
X121740852Y-99345361D01*
X121686431Y-99128702D01*
X121597354Y-98923840D01*
X121485972Y-98751670D01*
X121478822Y-98740617D01*
X121478820Y-98740614D01*
X121476014Y-98736277D01*
X121325670Y-98571051D01*
X121321619Y-98567852D01*
X121321615Y-98567848D01*
X121154414Y-98435800D01*
X121154410Y-98435798D01*
X121150359Y-98432598D01*
X121109053Y-98409796D01*
X121059084Y-98359364D01*
X121044312Y-98289921D01*
X121069428Y-98223516D01*
X121096780Y-98196909D01*
X121148524Y-98160000D01*
X121275860Y-98069173D01*
X121281439Y-98063614D01*
X121377118Y-97968268D01*
X121434096Y-97911489D01*
X121462544Y-97871900D01*
X121561435Y-97734277D01*
X121564453Y-97730077D01*
X121569612Y-97719640D01*
X121661136Y-97534453D01*
X121661137Y-97534451D01*
X121663430Y-97529811D01*
X121715218Y-97359357D01*
X121726865Y-97321023D01*
X121726865Y-97321021D01*
X121728370Y-97316069D01*
X121757529Y-97094590D01*
X121757720Y-97086765D01*
X121759074Y-97031365D01*
X121759074Y-97031361D01*
X121759156Y-97028000D01*
X121740852Y-96805361D01*
X121686431Y-96588702D01*
X121597354Y-96383840D01*
X121507227Y-96244525D01*
X121478822Y-96200617D01*
X121478820Y-96200614D01*
X121476014Y-96196277D01*
X121325670Y-96031051D01*
X121321619Y-96027852D01*
X121321615Y-96027848D01*
X121154414Y-95895800D01*
X121154410Y-95895798D01*
X121150359Y-95892598D01*
X120954789Y-95784638D01*
X120949920Y-95782914D01*
X120949916Y-95782912D01*
X120749087Y-95711795D01*
X120749083Y-95711794D01*
X120744212Y-95710069D01*
X120739119Y-95709162D01*
X120739116Y-95709161D01*
X120529373Y-95671800D01*
X120529367Y-95671799D01*
X120524284Y-95670894D01*
X120450452Y-95669992D01*
X120306081Y-95668228D01*
X120306079Y-95668228D01*
X120300911Y-95668165D01*
X120080091Y-95701955D01*
X119867756Y-95771357D01*
X119669607Y-95874507D01*
X119665474Y-95877610D01*
X119665471Y-95877612D01*
X119495100Y-96005530D01*
X119490965Y-96008635D01*
X119472605Y-96027848D01*
X119342624Y-96163865D01*
X119336629Y-96170138D01*
X119333715Y-96174410D01*
X119333714Y-96174411D01*
X119307106Y-96213417D01*
X119210743Y-96354680D01*
X119116688Y-96557305D01*
X119056989Y-96772570D01*
X119033251Y-96994695D01*
X119033548Y-96999848D01*
X119033548Y-96999851D01*
X119040660Y-97123197D01*
X119046110Y-97217715D01*
X119047247Y-97222761D01*
X119047248Y-97222767D01*
X119070796Y-97327253D01*
X119095222Y-97435639D01*
X119154637Y-97581961D01*
X119176316Y-97635350D01*
X119179266Y-97642616D01*
X119202830Y-97681069D01*
X119288822Y-97821395D01*
X119295987Y-97833088D01*
X119442250Y-98001938D01*
X119614126Y-98144632D01*
X119656780Y-98169557D01*
X119687445Y-98187476D01*
X119736169Y-98239114D01*
X119749240Y-98308897D01*
X119722509Y-98374669D01*
X119682055Y-98408027D01*
X119669607Y-98414507D01*
X119665474Y-98417610D01*
X119665471Y-98417612D01*
X119497800Y-98543503D01*
X119490965Y-98548635D01*
X119482870Y-98557106D01*
X119340515Y-98706072D01*
X119336629Y-98710138D01*
X119210743Y-98894680D01*
X119195003Y-98928590D01*
X119129827Y-99069000D01*
X119116688Y-99097305D01*
X119056989Y-99312570D01*
X119033251Y-99534695D01*
X119033548Y-99539848D01*
X119033548Y-99539851D01*
X119040642Y-99662875D01*
X119046110Y-99757715D01*
X119047247Y-99762761D01*
X119047248Y-99762767D01*
X119067119Y-99850939D01*
X119095222Y-99975639D01*
X119179266Y-100182616D01*
X119230019Y-100265438D01*
X119283493Y-100352699D01*
X119295987Y-100373088D01*
X119442250Y-100541938D01*
X119614126Y-100684632D01*
X119684595Y-100725811D01*
X119687445Y-100727476D01*
X119736169Y-100779114D01*
X119749240Y-100848897D01*
X119722509Y-100914669D01*
X119682055Y-100948027D01*
X119669607Y-100954507D01*
X119665474Y-100957610D01*
X119665471Y-100957612D01*
X119641247Y-100975800D01*
X119490965Y-101088635D01*
X119336629Y-101250138D01*
X119210743Y-101434680D01*
X119195003Y-101468590D01*
X119125654Y-101617990D01*
X119116688Y-101637305D01*
X119056989Y-101852570D01*
X119033251Y-102074695D01*
X119033548Y-102079848D01*
X119033548Y-102079851D01*
X119044701Y-102273286D01*
X119046110Y-102297715D01*
X119047247Y-102302761D01*
X119047248Y-102302767D01*
X119062541Y-102370624D01*
X119095222Y-102515639D01*
X119179266Y-102722616D01*
X119217564Y-102785113D01*
X119283493Y-102892699D01*
X119295987Y-102913088D01*
X119442250Y-103081938D01*
X119614126Y-103224632D01*
X119673050Y-103259064D01*
X119687445Y-103267476D01*
X119736169Y-103319114D01*
X119749240Y-103388897D01*
X119722509Y-103454669D01*
X119682055Y-103488027D01*
X119669607Y-103494507D01*
X119665474Y-103497610D01*
X119665471Y-103497612D01*
X119529396Y-103599780D01*
X119490965Y-103628635D01*
X119336629Y-103790138D01*
X119333715Y-103794410D01*
X119333714Y-103794411D01*
X119269005Y-103889271D01*
X119210743Y-103974680D01*
X119208564Y-103979375D01*
X119143728Y-104119053D01*
X119116688Y-104177305D01*
X119056989Y-104392570D01*
X119033251Y-104614695D01*
X119033548Y-104619848D01*
X119033548Y-104619851D01*
X119040660Y-104743197D01*
X119046110Y-104837715D01*
X119047247Y-104842761D01*
X119047248Y-104842767D01*
X119061128Y-104904355D01*
X119095222Y-105055639D01*
X119179266Y-105262616D01*
X119212477Y-105316812D01*
X119282713Y-105431426D01*
X119295987Y-105453088D01*
X119442250Y-105621938D01*
X119614126Y-105764632D01*
X119687955Y-105807774D01*
X119736679Y-105859412D01*
X119749750Y-105929195D01*
X119723019Y-105994967D01*
X119682562Y-106028327D01*
X119674457Y-106032546D01*
X119665738Y-106038036D01*
X119495433Y-106165905D01*
X119487726Y-106172748D01*
X119340590Y-106326717D01*
X119334104Y-106334727D01*
X119214098Y-106510649D01*
X119209000Y-106519623D01*
X119119338Y-106712783D01*
X119115775Y-106722470D01*
X119060389Y-106922183D01*
X119061912Y-106930607D01*
X119074292Y-106934000D01*
X121714344Y-106934000D01*
X121727875Y-106930027D01*
X121729180Y-106920947D01*
X121687214Y-106753875D01*
X121683894Y-106744124D01*
X121598972Y-106548814D01*
X121594105Y-106539739D01*
X121478426Y-106360926D01*
X121472136Y-106352757D01*
X121328806Y-106195240D01*
X121321273Y-106188215D01*
X121154139Y-106056222D01*
X121145556Y-106050520D01*
X121108602Y-106030120D01*
X121058631Y-105979687D01*
X121043859Y-105910245D01*
X121068975Y-105843839D01*
X121096327Y-105817232D01*
X121263151Y-105698238D01*
X121275860Y-105689173D01*
X121278886Y-105686157D01*
X121343588Y-105657570D01*
X121359976Y-105656500D01*
X122680157Y-105656500D01*
X122693764Y-105657237D01*
X122725262Y-105660659D01*
X122725267Y-105660659D01*
X122731388Y-105661324D01*
X122757638Y-105659027D01*
X122781388Y-105656950D01*
X122786214Y-105656621D01*
X122788686Y-105656500D01*
X122791769Y-105656500D01*
X122803738Y-105655326D01*
X122834506Y-105652310D01*
X122835819Y-105652188D01*
X122880084Y-105648315D01*
X122928413Y-105644087D01*
X122933532Y-105642600D01*
X122938833Y-105642080D01*
X123027834Y-105615209D01*
X123028967Y-105614874D01*
X123112414Y-105590630D01*
X123112418Y-105590628D01*
X123118336Y-105588909D01*
X123123068Y-105586456D01*
X123128169Y-105584916D01*
X123133612Y-105582022D01*
X123210260Y-105541269D01*
X123211426Y-105540657D01*
X123288453Y-105500729D01*
X123293926Y-105497892D01*
X123298089Y-105494569D01*
X123302796Y-105492066D01*
X123374918Y-105433245D01*
X123375774Y-105432554D01*
X123414973Y-105401262D01*
X123417477Y-105398758D01*
X123418195Y-105398116D01*
X123422528Y-105394415D01*
X123456062Y-105367065D01*
X123485288Y-105331737D01*
X123493277Y-105322958D01*
X130390559Y-98425675D01*
X130400702Y-98416573D01*
X130425398Y-98396717D01*
X130430205Y-98392852D01*
X130462500Y-98354364D01*
X130465657Y-98350746D01*
X130467301Y-98348933D01*
X130469489Y-98346745D01*
X130487534Y-98324777D01*
X130496748Y-98313561D01*
X130497589Y-98312548D01*
X130553375Y-98246065D01*
X130553378Y-98246060D01*
X130557334Y-98241346D01*
X130559902Y-98236676D01*
X130563283Y-98232559D01*
X130600532Y-98163090D01*
X130607157Y-98150734D01*
X130607786Y-98149575D01*
X130649642Y-98073439D01*
X130649645Y-98073431D01*
X130652613Y-98068033D01*
X130654225Y-98062951D01*
X130656742Y-98058257D01*
X130683942Y-97969289D01*
X130684288Y-97968178D01*
X130684557Y-97967333D01*
X130712415Y-97879514D01*
X130713009Y-97874218D01*
X130714567Y-97869122D01*
X130716092Y-97854109D01*
X130742874Y-97788358D01*
X130800952Y-97747524D01*
X130860111Y-97743831D01*
X130860232Y-97742682D01*
X131050796Y-97762711D01*
X131050798Y-97762711D01*
X131056925Y-97763355D01*
X131139424Y-97755847D01*
X131247749Y-97745989D01*
X131247752Y-97745988D01*
X131253888Y-97745430D01*
X131259794Y-97743692D01*
X131259798Y-97743691D01*
X131398663Y-97702821D01*
X131443619Y-97689590D01*
X131449077Y-97686737D01*
X131449081Y-97686735D01*
X131585450Y-97615442D01*
X131618890Y-97597960D01*
X131773025Y-97474032D01*
X131900154Y-97322526D01*
X131903121Y-97317128D01*
X131903125Y-97317123D01*
X131992467Y-97154608D01*
X131995433Y-97149213D01*
X132007270Y-97111900D01*
X132053373Y-96966564D01*
X132053373Y-96966563D01*
X132055235Y-96960694D01*
X132072500Y-96806773D01*
X132072500Y-94969271D01*
X135478494Y-94969271D01*
X135492545Y-95183640D01*
X135545426Y-95391859D01*
X135635366Y-95586954D01*
X135759353Y-95762392D01*
X135913236Y-95912298D01*
X135918032Y-95915503D01*
X135918035Y-95915505D01*
X136087055Y-96028440D01*
X136087060Y-96028443D01*
X136091860Y-96031650D01*
X136097169Y-96033931D01*
X136097171Y-96033932D01*
X136283932Y-96114172D01*
X136283936Y-96114173D01*
X136289242Y-96116453D01*
X136294874Y-96117727D01*
X136294876Y-96117728D01*
X136493137Y-96162590D01*
X136493142Y-96162591D01*
X136498774Y-96163865D01*
X136504545Y-96164092D01*
X136504547Y-96164092D01*
X136570614Y-96166688D01*
X136713438Y-96172299D01*
X136838168Y-96154214D01*
X136920321Y-96142303D01*
X136920325Y-96142302D01*
X136926043Y-96141473D01*
X136931515Y-96139615D01*
X136931517Y-96139615D01*
X137124007Y-96074273D01*
X137124009Y-96074272D01*
X137129471Y-96072418D01*
X137316909Y-95967448D01*
X137379364Y-95915505D01*
X137477640Y-95833769D01*
X137482078Y-95830078D01*
X137591520Y-95698489D01*
X137615757Y-95669347D01*
X137619448Y-95664909D01*
X137724418Y-95477471D01*
X137727969Y-95467012D01*
X137791615Y-95279517D01*
X137791615Y-95279515D01*
X137793473Y-95274043D01*
X137795310Y-95261379D01*
X137817348Y-95109378D01*
X137824299Y-95061438D01*
X137825908Y-95000000D01*
X137806251Y-94786072D01*
X137799369Y-94761668D01*
X137749507Y-94584874D01*
X137747938Y-94579309D01*
X137652921Y-94386635D01*
X137524384Y-94214502D01*
X137499971Y-94191935D01*
X137370870Y-94072595D01*
X137370867Y-94072593D01*
X137366630Y-94068676D01*
X137184943Y-93954040D01*
X136985408Y-93874434D01*
X136979748Y-93873308D01*
X136979744Y-93873307D01*
X136780374Y-93833650D01*
X136780371Y-93833650D01*
X136774707Y-93832523D01*
X136768932Y-93832447D01*
X136768928Y-93832447D01*
X136661255Y-93831038D01*
X136559896Y-93829711D01*
X136554199Y-93830690D01*
X136554198Y-93830690D01*
X136543973Y-93832447D01*
X136348170Y-93866092D01*
X136146620Y-93940448D01*
X135961994Y-94050288D01*
X135957654Y-94054094D01*
X135957650Y-94054097D01*
X135815499Y-94178761D01*
X135800477Y-94191935D01*
X135667478Y-94360644D01*
X135664789Y-94365755D01*
X135664787Y-94365758D01*
X135648741Y-94396257D01*
X135567450Y-94550765D01*
X135503745Y-94755931D01*
X135478494Y-94969271D01*
X132072500Y-94969271D01*
X132072500Y-94405925D01*
X132092502Y-94337804D01*
X132109405Y-94316830D01*
X135473397Y-90952838D01*
X135535709Y-90918812D01*
X135606524Y-90923877D01*
X135663360Y-90966424D01*
X135688171Y-91032944D01*
X135673080Y-91102318D01*
X135670088Y-91107334D01*
X135667478Y-91110644D01*
X135567450Y-91300765D01*
X135503745Y-91505931D01*
X135478494Y-91719271D01*
X135492545Y-91933640D01*
X135545426Y-92141859D01*
X135635366Y-92336954D01*
X135759353Y-92512392D01*
X135913236Y-92662298D01*
X135918032Y-92665503D01*
X135918035Y-92665505D01*
X136087055Y-92778440D01*
X136087060Y-92778443D01*
X136091860Y-92781650D01*
X136097169Y-92783931D01*
X136097171Y-92783932D01*
X136283932Y-92864172D01*
X136283936Y-92864173D01*
X136289242Y-92866453D01*
X136294874Y-92867727D01*
X136294876Y-92867728D01*
X136493137Y-92912590D01*
X136493142Y-92912591D01*
X136498774Y-92913865D01*
X136504545Y-92914092D01*
X136504547Y-92914092D01*
X136570614Y-92916688D01*
X136713438Y-92922299D01*
X136838168Y-92904214D01*
X136920321Y-92892303D01*
X136920325Y-92892302D01*
X136926043Y-92891473D01*
X136931515Y-92889615D01*
X136931517Y-92889615D01*
X137124007Y-92824273D01*
X137124009Y-92824272D01*
X137129471Y-92822418D01*
X137316909Y-92717448D01*
X137379364Y-92665505D01*
X137477640Y-92583769D01*
X137482078Y-92580078D01*
X137578389Y-92464277D01*
X137615757Y-92419347D01*
X137619448Y-92414909D01*
X137724418Y-92227471D01*
X137734660Y-92197301D01*
X137791615Y-92029517D01*
X137791615Y-92029515D01*
X137793473Y-92024043D01*
X137801103Y-91971424D01*
X137817529Y-91858131D01*
X137824299Y-91811438D01*
X137825908Y-91750000D01*
X137806251Y-91536072D01*
X137799369Y-91511668D01*
X137780532Y-91444879D01*
X137747938Y-91329309D01*
X137713552Y-91259580D01*
X137655475Y-91141814D01*
X137652921Y-91136635D01*
X137546361Y-90993933D01*
X137527837Y-90969126D01*
X137527836Y-90969125D01*
X137524384Y-90964502D01*
X137474957Y-90918812D01*
X137370870Y-90822595D01*
X137370867Y-90822593D01*
X137366630Y-90818676D01*
X137184943Y-90704040D01*
X136985408Y-90624434D01*
X136979748Y-90623308D01*
X136979744Y-90623307D01*
X136780374Y-90583650D01*
X136780371Y-90583650D01*
X136774707Y-90582523D01*
X136768932Y-90582447D01*
X136768928Y-90582447D01*
X136661255Y-90581038D01*
X136559896Y-90579711D01*
X136554199Y-90580690D01*
X136554198Y-90580690D01*
X136353867Y-90615113D01*
X136348170Y-90616092D01*
X136146620Y-90690448D01*
X136141658Y-90693400D01*
X135998657Y-90778476D01*
X135929886Y-90796116D01*
X135862496Y-90773775D01*
X135817882Y-90718547D01*
X135810210Y-90647966D01*
X135845139Y-90581096D01*
X136630830Y-89795405D01*
X136693142Y-89761379D01*
X136719925Y-89758500D01*
X138265500Y-89758500D01*
X138333621Y-89778502D01*
X138380114Y-89832158D01*
X138391500Y-89884500D01*
X138391500Y-91398134D01*
X138398255Y-91460316D01*
X138449385Y-91596705D01*
X138536739Y-91713261D01*
X138653295Y-91800615D01*
X138789684Y-91851745D01*
X138851866Y-91858500D01*
X140548134Y-91858500D01*
X140610316Y-91851745D01*
X140746705Y-91800615D01*
X140863261Y-91713261D01*
X140950615Y-91596705D01*
X141001745Y-91460316D01*
X141002917Y-91449526D01*
X141003803Y-91447394D01*
X141004425Y-91444778D01*
X141004848Y-91444879D01*
X141030155Y-91383965D01*
X141088517Y-91343537D01*
X141159471Y-91341078D01*
X141220490Y-91377371D01*
X141227489Y-91386031D01*
X141230643Y-91389789D01*
X141233802Y-91394300D01*
X141395700Y-91556198D01*
X141400208Y-91559355D01*
X141400211Y-91559357D01*
X141441542Y-91588297D01*
X141583251Y-91687523D01*
X141588233Y-91689846D01*
X141588238Y-91689849D01*
X141784765Y-91781490D01*
X141790757Y-91784284D01*
X141796065Y-91785706D01*
X141796067Y-91785707D01*
X142006598Y-91842119D01*
X142006600Y-91842119D01*
X142011913Y-91843543D01*
X142240000Y-91863498D01*
X142468087Y-91843543D01*
X142473400Y-91842119D01*
X142473402Y-91842119D01*
X142683933Y-91785707D01*
X142683935Y-91785706D01*
X142689243Y-91784284D01*
X142695235Y-91781490D01*
X142891762Y-91689849D01*
X142891767Y-91689846D01*
X142896749Y-91687523D01*
X143038458Y-91588297D01*
X143079789Y-91559357D01*
X143079792Y-91559355D01*
X143084300Y-91556198D01*
X143246198Y-91394300D01*
X143377523Y-91206749D01*
X143379846Y-91201767D01*
X143379849Y-91201762D01*
X143396081Y-91166951D01*
X143442998Y-91113666D01*
X143511275Y-91094205D01*
X143579235Y-91114747D01*
X143624471Y-91166951D01*
X143640586Y-91201511D01*
X143646069Y-91211007D01*
X143771028Y-91389467D01*
X143778084Y-91397875D01*
X143932125Y-91551916D01*
X143940533Y-91558972D01*
X144118993Y-91683931D01*
X144128489Y-91689414D01*
X144325947Y-91781490D01*
X144336239Y-91785236D01*
X144508503Y-91831394D01*
X144522599Y-91831058D01*
X144526000Y-91823116D01*
X144526000Y-90422000D01*
X144546002Y-90353879D01*
X144599658Y-90307386D01*
X144652000Y-90296000D01*
X144908000Y-90296000D01*
X144976121Y-90316002D01*
X145022614Y-90369658D01*
X145034000Y-90422000D01*
X145034000Y-91817967D01*
X145037973Y-91831498D01*
X145046522Y-91832727D01*
X145223761Y-91785236D01*
X145234053Y-91781490D01*
X145431511Y-91689414D01*
X145441007Y-91683931D01*
X145619467Y-91558972D01*
X145627875Y-91551916D01*
X145781916Y-91397875D01*
X145788972Y-91389467D01*
X145913931Y-91211007D01*
X145919414Y-91201511D01*
X145935529Y-91166951D01*
X145982446Y-91113666D01*
X146050723Y-91094205D01*
X146118683Y-91114747D01*
X146163919Y-91166951D01*
X146180151Y-91201762D01*
X146180154Y-91201767D01*
X146182477Y-91206749D01*
X146313802Y-91394300D01*
X146475700Y-91556198D01*
X146480208Y-91559355D01*
X146480211Y-91559357D01*
X146521542Y-91588297D01*
X146663251Y-91687523D01*
X146668233Y-91689846D01*
X146668238Y-91689849D01*
X146864765Y-91781490D01*
X146870757Y-91784284D01*
X146876065Y-91785706D01*
X146876067Y-91785707D01*
X147086598Y-91842119D01*
X147086600Y-91842119D01*
X147091913Y-91843543D01*
X147320000Y-91863498D01*
X147548087Y-91843543D01*
X147553400Y-91842119D01*
X147553402Y-91842119D01*
X147763933Y-91785707D01*
X147763935Y-91785706D01*
X147769243Y-91784284D01*
X147775235Y-91781490D01*
X147971762Y-91689849D01*
X147971767Y-91689846D01*
X147976749Y-91687523D01*
X148118458Y-91588297D01*
X148159789Y-91559357D01*
X148159792Y-91559355D01*
X148164300Y-91556198D01*
X148326198Y-91394300D01*
X148457523Y-91206749D01*
X148459846Y-91201767D01*
X148459849Y-91201762D01*
X148551961Y-91004225D01*
X148551961Y-91004224D01*
X148554284Y-90999243D01*
X148561479Y-90972393D01*
X148612119Y-90783402D01*
X148612119Y-90783400D01*
X148613543Y-90778087D01*
X148633498Y-90550000D01*
X148613543Y-90321913D01*
X148611959Y-90316002D01*
X148555707Y-90106067D01*
X148555706Y-90106065D01*
X148554284Y-90100757D01*
X148551500Y-90094787D01*
X148459849Y-89898238D01*
X148459846Y-89898233D01*
X148457523Y-89893251D01*
X148351287Y-89741531D01*
X148328500Y-89669260D01*
X148328500Y-88381843D01*
X148329237Y-88368236D01*
X148332659Y-88336738D01*
X148332659Y-88336733D01*
X148333324Y-88330612D01*
X148328950Y-88280612D01*
X148328621Y-88275786D01*
X148328500Y-88273314D01*
X148328500Y-88270231D01*
X148325873Y-88243435D01*
X148324310Y-88227494D01*
X148324188Y-88226181D01*
X148319074Y-88167734D01*
X148316087Y-88133587D01*
X148314600Y-88128468D01*
X148314080Y-88123167D01*
X148287209Y-88034166D01*
X148286874Y-88033033D01*
X148262630Y-87949586D01*
X148262628Y-87949582D01*
X148260909Y-87943664D01*
X148258456Y-87938932D01*
X148256916Y-87933831D01*
X148213269Y-87851740D01*
X148212657Y-87850574D01*
X148172729Y-87773547D01*
X148169892Y-87768074D01*
X148166569Y-87763911D01*
X148164066Y-87759204D01*
X148127309Y-87714135D01*
X148099755Y-87648705D01*
X148111950Y-87578763D01*
X148160022Y-87526518D01*
X148224952Y-87508500D01*
X149214998Y-87508500D01*
X149283119Y-87528502D01*
X149329612Y-87582158D01*
X149339716Y-87652432D01*
X149332980Y-87678729D01*
X149311029Y-87737282D01*
X149311027Y-87737288D01*
X149308255Y-87744684D01*
X149301500Y-87806866D01*
X149301500Y-89503134D01*
X149308255Y-89565316D01*
X149359385Y-89701705D01*
X149446739Y-89818261D01*
X149563295Y-89905615D01*
X149699684Y-89956745D01*
X149710474Y-89957917D01*
X149712606Y-89958803D01*
X149715222Y-89959425D01*
X149715121Y-89959848D01*
X149776035Y-89985155D01*
X149816463Y-90043517D01*
X149818922Y-90114471D01*
X149782629Y-90175490D01*
X149773969Y-90182489D01*
X149770207Y-90185646D01*
X149765700Y-90188802D01*
X149603802Y-90350700D01*
X149472477Y-90538251D01*
X149470154Y-90543233D01*
X149470151Y-90543238D01*
X149401507Y-90690448D01*
X149375716Y-90745757D01*
X149374294Y-90751065D01*
X149374293Y-90751067D01*
X149324170Y-90938128D01*
X149316457Y-90966913D01*
X149296502Y-91195000D01*
X149296981Y-91200475D01*
X149310755Y-91357913D01*
X149296766Y-91427518D01*
X149274329Y-91457990D01*
X147027724Y-93704595D01*
X146965412Y-93738621D01*
X146938629Y-93741500D01*
X142157411Y-93741500D01*
X142138462Y-93740067D01*
X142138255Y-93740036D01*
X142116999Y-93736802D01*
X142109707Y-93737395D01*
X142109704Y-93737395D01*
X142064339Y-93741085D01*
X142054125Y-93741500D01*
X142046055Y-93741500D01*
X142042435Y-93741922D01*
X142042417Y-93741923D01*
X142017809Y-93744792D01*
X142013448Y-93745224D01*
X141988329Y-93747267D01*
X141948009Y-93750546D01*
X141948006Y-93750547D01*
X141940711Y-93751140D01*
X141933747Y-93753396D01*
X141927788Y-93754587D01*
X141921933Y-93755971D01*
X141914667Y-93756818D01*
X141846021Y-93781735D01*
X141841893Y-93783152D01*
X141779412Y-93803393D01*
X141779410Y-93803394D01*
X141772449Y-93805649D01*
X141766194Y-93809445D01*
X141760720Y-93811951D01*
X141755290Y-93814670D01*
X141748411Y-93817167D01*
X141687364Y-93857191D01*
X141683675Y-93859518D01*
X141669545Y-93868093D01*
X141626041Y-93894491D01*
X141626036Y-93894495D01*
X141621240Y-93897405D01*
X141612864Y-93904803D01*
X141612841Y-93904777D01*
X141609851Y-93907426D01*
X141606612Y-93910134D01*
X141600496Y-93914144D01*
X141595469Y-93919451D01*
X141595465Y-93919454D01*
X141547220Y-93970383D01*
X141544842Y-93972825D01*
X137882317Y-97635350D01*
X137820005Y-97669376D01*
X137749190Y-97664311D01*
X137692354Y-97621764D01*
X137680216Y-97601983D01*
X137655477Y-97551818D01*
X137655475Y-97551814D01*
X137652921Y-97546635D01*
X137554512Y-97414849D01*
X137527837Y-97379126D01*
X137527836Y-97379125D01*
X137524384Y-97374502D01*
X137520148Y-97370586D01*
X137370870Y-97232595D01*
X137370867Y-97232593D01*
X137366630Y-97228676D01*
X137184943Y-97114040D01*
X136985408Y-97034434D01*
X136979748Y-97033308D01*
X136979744Y-97033307D01*
X136780374Y-96993650D01*
X136780371Y-96993650D01*
X136774707Y-96992523D01*
X136768932Y-96992447D01*
X136768928Y-96992447D01*
X136661255Y-96991038D01*
X136559896Y-96989711D01*
X136554199Y-96990690D01*
X136554198Y-96990690D01*
X136356585Y-97024646D01*
X136348170Y-97026092D01*
X136146620Y-97100448D01*
X135961994Y-97210288D01*
X135957654Y-97214094D01*
X135957650Y-97214097D01*
X135804818Y-97348128D01*
X135800477Y-97351935D01*
X135796902Y-97356470D01*
X135796901Y-97356471D01*
X135794626Y-97359357D01*
X135667478Y-97520644D01*
X135664789Y-97525755D01*
X135664787Y-97525758D01*
X135624683Y-97601983D01*
X135567450Y-97710765D01*
X135503745Y-97915931D01*
X135478494Y-98129271D01*
X135492545Y-98343640D01*
X135545426Y-98551859D01*
X135635366Y-98746954D01*
X135759353Y-98922392D01*
X135913236Y-99072298D01*
X135918032Y-99075503D01*
X135918035Y-99075505D01*
X135990545Y-99123954D01*
X136091860Y-99191650D01*
X136096014Y-99193435D01*
X136146046Y-99243233D01*
X136161300Y-99312572D01*
X136136645Y-99379150D01*
X136124695Y-99392972D01*
X132441089Y-103076578D01*
X132426677Y-103088964D01*
X132415082Y-103097497D01*
X132415077Y-103097502D01*
X132409182Y-103101840D01*
X132404443Y-103107418D01*
X132404440Y-103107421D01*
X132374965Y-103142116D01*
X132368035Y-103149632D01*
X132362340Y-103155327D01*
X132360060Y-103158209D01*
X132344719Y-103177599D01*
X132341928Y-103181003D01*
X132302645Y-103227242D01*
X132294667Y-103236633D01*
X132291339Y-103243149D01*
X132287972Y-103248198D01*
X132284805Y-103253327D01*
X132280266Y-103259064D01*
X132249345Y-103325223D01*
X132247442Y-103329117D01*
X132214231Y-103394156D01*
X132212492Y-103401264D01*
X132210393Y-103406907D01*
X132208476Y-103412670D01*
X132205378Y-103419298D01*
X132203888Y-103426460D01*
X132203888Y-103426461D01*
X132190514Y-103490760D01*
X132189544Y-103495044D01*
X132172192Y-103565958D01*
X132171500Y-103577112D01*
X132171464Y-103577110D01*
X132171225Y-103581103D01*
X132170851Y-103585295D01*
X132169360Y-103592463D01*
X132169558Y-103599780D01*
X132171454Y-103669869D01*
X132171500Y-103673276D01*
X132171500Y-105316812D01*
X132151498Y-105384933D01*
X132097842Y-105431426D01*
X132027568Y-105441530D01*
X131962988Y-105412036D01*
X131956405Y-105405907D01*
X131894300Y-105343802D01*
X131889792Y-105340645D01*
X131889789Y-105340643D01*
X131784644Y-105267020D01*
X131706749Y-105212477D01*
X131701767Y-105210154D01*
X131701762Y-105210151D01*
X131504225Y-105118039D01*
X131504224Y-105118039D01*
X131499243Y-105115716D01*
X131493935Y-105114294D01*
X131493933Y-105114293D01*
X131283402Y-105057881D01*
X131283400Y-105057881D01*
X131278087Y-105056457D01*
X131050000Y-105036502D01*
X130821913Y-105056457D01*
X130816600Y-105057881D01*
X130816598Y-105057881D01*
X130606067Y-105114293D01*
X130606065Y-105114294D01*
X130600757Y-105115716D01*
X130595776Y-105118039D01*
X130595775Y-105118039D01*
X130398238Y-105210151D01*
X130398233Y-105210154D01*
X130393251Y-105212477D01*
X130315356Y-105267020D01*
X130210211Y-105340643D01*
X130210208Y-105340645D01*
X130205700Y-105343802D01*
X130043802Y-105505700D01*
X129912477Y-105693251D01*
X129910154Y-105698233D01*
X129910151Y-105698238D01*
X129859074Y-105807774D01*
X129815716Y-105900757D01*
X129814294Y-105906065D01*
X129814293Y-105906067D01*
X129794116Y-105981368D01*
X129756457Y-106121913D01*
X129736502Y-106350000D01*
X129756457Y-106578087D01*
X129757881Y-106583400D01*
X129757881Y-106583402D01*
X129812187Y-106786071D01*
X129815716Y-106799243D01*
X129818039Y-106804224D01*
X129818039Y-106804225D01*
X129910151Y-107001762D01*
X129910154Y-107001767D01*
X129912477Y-107006749D01*
X130043802Y-107194300D01*
X130205700Y-107356198D01*
X130210208Y-107359355D01*
X130210211Y-107359357D01*
X130288389Y-107414098D01*
X130393251Y-107487523D01*
X130398233Y-107489846D01*
X130398238Y-107489849D01*
X130595775Y-107581961D01*
X130600757Y-107584284D01*
X130606065Y-107585706D01*
X130606067Y-107585707D01*
X130816598Y-107642119D01*
X130816600Y-107642119D01*
X130821913Y-107643543D01*
X131050000Y-107663498D01*
X131278087Y-107643543D01*
X131283400Y-107642119D01*
X131283402Y-107642119D01*
X131493933Y-107585707D01*
X131493935Y-107585706D01*
X131499243Y-107584284D01*
X131504225Y-107581961D01*
X131701762Y-107489849D01*
X131701767Y-107489846D01*
X131706749Y-107487523D01*
X131811611Y-107414098D01*
X131889789Y-107359357D01*
X131889792Y-107359355D01*
X131894300Y-107356198D01*
X131956405Y-107294093D01*
X132018717Y-107260067D01*
X132089532Y-107265132D01*
X132146368Y-107307679D01*
X132171179Y-107374199D01*
X132171500Y-107383188D01*
X132171500Y-109103629D01*
X132151498Y-109171750D01*
X132134595Y-109192724D01*
X131312990Y-110014329D01*
X131250678Y-110048355D01*
X131212913Y-110050755D01*
X131055475Y-110036981D01*
X131050000Y-110036502D01*
X130821913Y-110056457D01*
X130816600Y-110057881D01*
X130816598Y-110057881D01*
X130606067Y-110114293D01*
X130606065Y-110114294D01*
X130600757Y-110115716D01*
X130595776Y-110118039D01*
X130595775Y-110118039D01*
X130398238Y-110210151D01*
X130398233Y-110210154D01*
X130393251Y-110212477D01*
X130309073Y-110271419D01*
X130210211Y-110340643D01*
X130210208Y-110340645D01*
X130205700Y-110343802D01*
X130043802Y-110505700D01*
X129912477Y-110693251D01*
X129910154Y-110698233D01*
X129910151Y-110698238D01*
X129847137Y-110833373D01*
X129815716Y-110900757D01*
X129814294Y-110906065D01*
X129814293Y-110906067D01*
X129762209Y-111100447D01*
X129756457Y-111121913D01*
X129736502Y-111350000D01*
X129756457Y-111578087D01*
X129815716Y-111799243D01*
X129818039Y-111804224D01*
X129818039Y-111804225D01*
X129910151Y-112001762D01*
X129910154Y-112001767D01*
X129912477Y-112006749D01*
X129915634Y-112011257D01*
X130030004Y-112174594D01*
X130043802Y-112194300D01*
X130205700Y-112356198D01*
X130210208Y-112359355D01*
X130210211Y-112359357D01*
X130288389Y-112414098D01*
X130393251Y-112487523D01*
X130398233Y-112489846D01*
X130398238Y-112489849D01*
X130497899Y-112536321D01*
X130600757Y-112584284D01*
X130606065Y-112585706D01*
X130606067Y-112585707D01*
X130816598Y-112642119D01*
X130816600Y-112642119D01*
X130821913Y-112643543D01*
X131050000Y-112663498D01*
X131278087Y-112643543D01*
X131283400Y-112642119D01*
X131283402Y-112642119D01*
X131493933Y-112585707D01*
X131493935Y-112585706D01*
X131499243Y-112584284D01*
X131602101Y-112536321D01*
X131701762Y-112489849D01*
X131701767Y-112489846D01*
X131706749Y-112487523D01*
X131811611Y-112414098D01*
X131889789Y-112359357D01*
X131889792Y-112359355D01*
X131894300Y-112356198D01*
X132056198Y-112194300D01*
X132069997Y-112174594D01*
X132184366Y-112011257D01*
X132187523Y-112006749D01*
X132189846Y-112001767D01*
X132189849Y-112001762D01*
X132281961Y-111804225D01*
X132281961Y-111804224D01*
X132284284Y-111799243D01*
X132343543Y-111578087D01*
X132363498Y-111350000D01*
X132360465Y-111315333D01*
X132349245Y-111187087D01*
X132363234Y-111117482D01*
X132385671Y-111087010D01*
X133418911Y-110053770D01*
X133433323Y-110041384D01*
X133444918Y-110032851D01*
X133444923Y-110032846D01*
X133450818Y-110028508D01*
X133455557Y-110022930D01*
X133455560Y-110022927D01*
X133485035Y-109988232D01*
X133491965Y-109980716D01*
X133497660Y-109975021D01*
X133515281Y-109952749D01*
X133518072Y-109949345D01*
X133560591Y-109899297D01*
X133560592Y-109899295D01*
X133565333Y-109893715D01*
X133568661Y-109887199D01*
X133572020Y-109882162D01*
X133575194Y-109877023D01*
X133579734Y-109871284D01*
X133610636Y-109805163D01*
X133612569Y-109801209D01*
X133626581Y-109773769D01*
X133645769Y-109736192D01*
X133647510Y-109729076D01*
X133649604Y-109723446D01*
X133651523Y-109717679D01*
X133654621Y-109711050D01*
X133669483Y-109639600D01*
X133670453Y-109635315D01*
X133686473Y-109569844D01*
X133687808Y-109564390D01*
X133688500Y-109553236D01*
X133688536Y-109553238D01*
X133688775Y-109549248D01*
X133689150Y-109545050D01*
X133690640Y-109537885D01*
X133688546Y-109460496D01*
X133688500Y-109457088D01*
X133688500Y-105593733D01*
X142259822Y-105593733D01*
X142259975Y-105598121D01*
X142259975Y-105598127D01*
X142269100Y-105859412D01*
X142269625Y-105874458D01*
X142270387Y-105878781D01*
X142270388Y-105878788D01*
X142293481Y-106009753D01*
X142318402Y-106151087D01*
X142405203Y-106418235D01*
X142407131Y-106422188D01*
X142407133Y-106422193D01*
X142454653Y-106519623D01*
X142528340Y-106670702D01*
X142530795Y-106674341D01*
X142530798Y-106674347D01*
X142579643Y-106746762D01*
X142685415Y-106903576D01*
X142873371Y-107112322D01*
X143088550Y-107292879D01*
X143326764Y-107441731D01*
X143583375Y-107555982D01*
X143853390Y-107633407D01*
X143857740Y-107634018D01*
X143857743Y-107634019D01*
X143960690Y-107648487D01*
X144131552Y-107672500D01*
X144342146Y-107672500D01*
X144344332Y-107672347D01*
X144344336Y-107672347D01*
X144547827Y-107658118D01*
X144547832Y-107658117D01*
X144552212Y-107657811D01*
X144826970Y-107599409D01*
X144831099Y-107597906D01*
X144831103Y-107597905D01*
X145086781Y-107504846D01*
X145086785Y-107504844D01*
X145090926Y-107503337D01*
X145338942Y-107371464D01*
X145445435Y-107294093D01*
X145562629Y-107208947D01*
X145562632Y-107208944D01*
X145566192Y-107206358D01*
X145578679Y-107194300D01*
X145710879Y-107066635D01*
X145768252Y-107011231D01*
X145929982Y-106804225D01*
X145938481Y-106793347D01*
X145938482Y-106793346D01*
X145941188Y-106789882D01*
X145943384Y-106786078D01*
X145943389Y-106786071D01*
X146079435Y-106550431D01*
X146081636Y-106546619D01*
X146186862Y-106286176D01*
X146209535Y-106195240D01*
X146253753Y-106017893D01*
X146253754Y-106017888D01*
X146254817Y-106013624D01*
X146256085Y-106001567D01*
X146283719Y-105738636D01*
X146283719Y-105738633D01*
X146284178Y-105734267D01*
X146282746Y-105693251D01*
X146274529Y-105457939D01*
X146274528Y-105457933D01*
X146274375Y-105453542D01*
X146273520Y-105448689D01*
X146239866Y-105257829D01*
X146225598Y-105176913D01*
X146138797Y-104909765D01*
X146136159Y-104904355D01*
X146060912Y-104750078D01*
X146015660Y-104657298D01*
X146013205Y-104653659D01*
X146013202Y-104653653D01*
X145905432Y-104493878D01*
X145858585Y-104424424D01*
X145829904Y-104392570D01*
X145699701Y-104247966D01*
X145670629Y-104215678D01*
X145644846Y-104194043D01*
X145562206Y-104124700D01*
X145455450Y-104035121D01*
X145217236Y-103886269D01*
X144960625Y-103772018D01*
X144690610Y-103694593D01*
X144686260Y-103693982D01*
X144686257Y-103693981D01*
X144583310Y-103679513D01*
X144412448Y-103655500D01*
X144201854Y-103655500D01*
X144199668Y-103655653D01*
X144199664Y-103655653D01*
X143996173Y-103669882D01*
X143996168Y-103669883D01*
X143991788Y-103670189D01*
X143717030Y-103728591D01*
X143712901Y-103730094D01*
X143712897Y-103730095D01*
X143457219Y-103823154D01*
X143457215Y-103823156D01*
X143453074Y-103824663D01*
X143205058Y-103956536D01*
X143201499Y-103959122D01*
X143201497Y-103959123D01*
X142983362Y-104117607D01*
X142977808Y-104121642D01*
X142974644Y-104124698D01*
X142974641Y-104124700D01*
X142897166Y-104199517D01*
X142775748Y-104316769D01*
X142602812Y-104538118D01*
X142600616Y-104541922D01*
X142600611Y-104541929D01*
X142519515Y-104682392D01*
X142462364Y-104781381D01*
X142357138Y-105041824D01*
X142356073Y-105046097D01*
X142356072Y-105046099D01*
X142303282Y-105257829D01*
X142289183Y-105314376D01*
X142288724Y-105318744D01*
X142288723Y-105318749D01*
X142260329Y-105588909D01*
X142259822Y-105593733D01*
X133688500Y-105593733D01*
X133688500Y-104316087D01*
X133708502Y-104247966D01*
X133762158Y-104201473D01*
X133832432Y-104191369D01*
X133897012Y-104220863D01*
X133936623Y-104285072D01*
X133943426Y-104311859D01*
X134033366Y-104506954D01*
X134157353Y-104682392D01*
X134311236Y-104832298D01*
X134316032Y-104835503D01*
X134316035Y-104835505D01*
X134485055Y-104948440D01*
X134485060Y-104948443D01*
X134489860Y-104951650D01*
X134495169Y-104953931D01*
X134495171Y-104953932D01*
X134681932Y-105034172D01*
X134681936Y-105034173D01*
X134687242Y-105036453D01*
X134692874Y-105037727D01*
X134692876Y-105037728D01*
X134891137Y-105082590D01*
X134891142Y-105082591D01*
X134896774Y-105083865D01*
X134902545Y-105084092D01*
X134902547Y-105084092D01*
X134968614Y-105086688D01*
X135111438Y-105092299D01*
X135236168Y-105074214D01*
X135318321Y-105062303D01*
X135318325Y-105062302D01*
X135324043Y-105061473D01*
X135329515Y-105059615D01*
X135329517Y-105059615D01*
X135522007Y-104994273D01*
X135522009Y-104994272D01*
X135527471Y-104992418D01*
X135714909Y-104887448D01*
X135777364Y-104835505D01*
X135875640Y-104753769D01*
X135880078Y-104750078D01*
X136017448Y-104584909D01*
X136122418Y-104397471D01*
X136138796Y-104349225D01*
X136189615Y-104199517D01*
X136189615Y-104199515D01*
X136191473Y-104194043D01*
X136200991Y-104128402D01*
X136214515Y-104035121D01*
X136222299Y-103981438D01*
X136223908Y-103920000D01*
X136221084Y-103889271D01*
X136726494Y-103889271D01*
X136740545Y-104103640D01*
X136793426Y-104311859D01*
X136883366Y-104506954D01*
X137007353Y-104682392D01*
X137161236Y-104832298D01*
X137166032Y-104835503D01*
X137166035Y-104835505D01*
X137335055Y-104948440D01*
X137335060Y-104948443D01*
X137339860Y-104951650D01*
X137345169Y-104953931D01*
X137345171Y-104953932D01*
X137531932Y-105034172D01*
X137531936Y-105034173D01*
X137537242Y-105036453D01*
X137542874Y-105037727D01*
X137542876Y-105037728D01*
X137741137Y-105082590D01*
X137741142Y-105082591D01*
X137746774Y-105083865D01*
X137752545Y-105084092D01*
X137752547Y-105084092D01*
X137818614Y-105086688D01*
X137961438Y-105092299D01*
X138086168Y-105074214D01*
X138168321Y-105062303D01*
X138168325Y-105062302D01*
X138174043Y-105061473D01*
X138179515Y-105059615D01*
X138179517Y-105059615D01*
X138372007Y-104994273D01*
X138372009Y-104994272D01*
X138377471Y-104992418D01*
X138564909Y-104887448D01*
X138627364Y-104835505D01*
X138725640Y-104753769D01*
X138730078Y-104750078D01*
X138867448Y-104584909D01*
X138972418Y-104397471D01*
X138988796Y-104349225D01*
X139039615Y-104199517D01*
X139039615Y-104199515D01*
X139041473Y-104194043D01*
X139050991Y-104128402D01*
X139064515Y-104035121D01*
X139072299Y-103981438D01*
X139073908Y-103920000D01*
X139054251Y-103706072D01*
X139051356Y-103695805D01*
X139027828Y-103612382D01*
X138995938Y-103499309D01*
X138991723Y-103490760D01*
X138903475Y-103311814D01*
X138900921Y-103306635D01*
X138807108Y-103181003D01*
X138775837Y-103139126D01*
X138775836Y-103139125D01*
X138772384Y-103134502D01*
X138768148Y-103130586D01*
X138618870Y-102992595D01*
X138618867Y-102992593D01*
X138614630Y-102988676D01*
X138432943Y-102874040D01*
X138233408Y-102794434D01*
X138227748Y-102793308D01*
X138227744Y-102793307D01*
X138028374Y-102753650D01*
X138028371Y-102753650D01*
X138022707Y-102752523D01*
X138016932Y-102752447D01*
X138016928Y-102752447D01*
X137909255Y-102751038D01*
X137807896Y-102749711D01*
X137802199Y-102750690D01*
X137802198Y-102750690D01*
X137601867Y-102785113D01*
X137596170Y-102786092D01*
X137394620Y-102860448D01*
X137209994Y-102970288D01*
X137205654Y-102974094D01*
X137205650Y-102974097D01*
X137088794Y-103076578D01*
X137048477Y-103111935D01*
X136915478Y-103280644D01*
X136912789Y-103285755D01*
X136912787Y-103285758D01*
X136898828Y-103312290D01*
X136815450Y-103470765D01*
X136751745Y-103675931D01*
X136726494Y-103889271D01*
X136221084Y-103889271D01*
X136204251Y-103706072D01*
X136201356Y-103695805D01*
X136177828Y-103612382D01*
X136145938Y-103499309D01*
X136141723Y-103490760D01*
X136053475Y-103311814D01*
X136050921Y-103306635D01*
X135957108Y-103181003D01*
X135925837Y-103139126D01*
X135925836Y-103139125D01*
X135922384Y-103134502D01*
X135918148Y-103130586D01*
X135768870Y-102992595D01*
X135768867Y-102992593D01*
X135764630Y-102988676D01*
X135582943Y-102874040D01*
X135383408Y-102794434D01*
X135377751Y-102793309D01*
X135377745Y-102793307D01*
X135284575Y-102774775D01*
X135185205Y-102755009D01*
X135122297Y-102722103D01*
X135087165Y-102660408D01*
X135090965Y-102589513D01*
X135120693Y-102542336D01*
X140226967Y-97436062D01*
X141888493Y-97436062D01*
X141897789Y-97448077D01*
X141948994Y-97483931D01*
X141958489Y-97489414D01*
X142155947Y-97581490D01*
X142166239Y-97585236D01*
X142376688Y-97641625D01*
X142387481Y-97643528D01*
X142604525Y-97662517D01*
X142615475Y-97662517D01*
X142832519Y-97643528D01*
X142843312Y-97641625D01*
X143053761Y-97585236D01*
X143064053Y-97581490D01*
X143261511Y-97489414D01*
X143271006Y-97483931D01*
X143323048Y-97447491D01*
X143331424Y-97437012D01*
X143324356Y-97423566D01*
X142622812Y-96722022D01*
X142608868Y-96714408D01*
X142607035Y-96714539D01*
X142600420Y-96718790D01*
X141894923Y-97424287D01*
X141888493Y-97436062D01*
X140226967Y-97436062D01*
X141113622Y-96549407D01*
X141175934Y-96515381D01*
X141246749Y-96520446D01*
X141303585Y-96562993D01*
X141324424Y-96605890D01*
X141374765Y-96793764D01*
X141378510Y-96804053D01*
X141470586Y-97001511D01*
X141476069Y-97011006D01*
X141512509Y-97063048D01*
X141522988Y-97071424D01*
X141536434Y-97064356D01*
X142249658Y-96351132D01*
X142974408Y-96351132D01*
X142974539Y-96352965D01*
X142978790Y-96359580D01*
X143684287Y-97065077D01*
X143696062Y-97071507D01*
X143708077Y-97062211D01*
X143743931Y-97011006D01*
X143749414Y-97001511D01*
X143841490Y-96804053D01*
X143845236Y-96793761D01*
X143901625Y-96583312D01*
X143903528Y-96572519D01*
X143922517Y-96355475D01*
X143922517Y-96344525D01*
X143903528Y-96127481D01*
X143901625Y-96116688D01*
X143845236Y-95906239D01*
X143841490Y-95895947D01*
X143749414Y-95698489D01*
X143743931Y-95688994D01*
X143707491Y-95636952D01*
X143697012Y-95628576D01*
X143683566Y-95635644D01*
X142982022Y-96337188D01*
X142974408Y-96351132D01*
X142249658Y-96351132D01*
X143305385Y-95295405D01*
X143367697Y-95261379D01*
X143394480Y-95258500D01*
X146546812Y-95258500D01*
X146614933Y-95278502D01*
X146661426Y-95332158D01*
X146671530Y-95402432D01*
X146642036Y-95467012D01*
X146635907Y-95473595D01*
X146603802Y-95505700D01*
X146472477Y-95693251D01*
X146470154Y-95698233D01*
X146470151Y-95698238D01*
X146378039Y-95895775D01*
X146375716Y-95900757D01*
X146374294Y-95906065D01*
X146374293Y-95906067D01*
X146321254Y-96104011D01*
X146316457Y-96121913D01*
X146296502Y-96350000D01*
X146316457Y-96578087D01*
X146317881Y-96583400D01*
X146317881Y-96583402D01*
X146362221Y-96748878D01*
X146375716Y-96799243D01*
X146378039Y-96804224D01*
X146378039Y-96804225D01*
X146470151Y-97001762D01*
X146470154Y-97001767D01*
X146472477Y-97006749D01*
X146493361Y-97036574D01*
X146596495Y-97183864D01*
X146603802Y-97194300D01*
X146765700Y-97356198D01*
X146770208Y-97359355D01*
X146770211Y-97359357D01*
X146813758Y-97389849D01*
X146953251Y-97487523D01*
X146958233Y-97489846D01*
X146958238Y-97489849D01*
X147116181Y-97563498D01*
X147160757Y-97584284D01*
X147166065Y-97585706D01*
X147166067Y-97585707D01*
X147376598Y-97642119D01*
X147376600Y-97642119D01*
X147381913Y-97643543D01*
X147610000Y-97663498D01*
X147838087Y-97643543D01*
X147843400Y-97642119D01*
X147843402Y-97642119D01*
X148053933Y-97585707D01*
X148053935Y-97585706D01*
X148059243Y-97584284D01*
X148103819Y-97563498D01*
X148261762Y-97489849D01*
X148261767Y-97489846D01*
X148266749Y-97487523D01*
X148418469Y-97381287D01*
X148490740Y-97358500D01*
X149836370Y-97358500D01*
X149908640Y-97381287D01*
X149948737Y-97409363D01*
X149948743Y-97409366D01*
X149953251Y-97412523D01*
X149958233Y-97414846D01*
X149958238Y-97414849D01*
X149992457Y-97430805D01*
X150045742Y-97477722D01*
X150065203Y-97545999D01*
X150044661Y-97613959D01*
X149992457Y-97659195D01*
X149958238Y-97675151D01*
X149958233Y-97675154D01*
X149953251Y-97677477D01*
X149864946Y-97739309D01*
X149770211Y-97805643D01*
X149770208Y-97805645D01*
X149765700Y-97808802D01*
X149603802Y-97970700D01*
X149600645Y-97975208D01*
X149600643Y-97975211D01*
X149572147Y-98015908D01*
X149472477Y-98158251D01*
X149470154Y-98163233D01*
X149470151Y-98163238D01*
X149378039Y-98360775D01*
X149375716Y-98365757D01*
X149374294Y-98371065D01*
X149374293Y-98371067D01*
X149321565Y-98567848D01*
X149316457Y-98586913D01*
X149296502Y-98815000D01*
X149316457Y-99043087D01*
X149317881Y-99048400D01*
X149317881Y-99048402D01*
X149358373Y-99199517D01*
X149375716Y-99264243D01*
X149378039Y-99269224D01*
X149378039Y-99269225D01*
X149470151Y-99466762D01*
X149470154Y-99466767D01*
X149472477Y-99471749D01*
X149603802Y-99659300D01*
X149765700Y-99821198D01*
X149770208Y-99824355D01*
X149770211Y-99824357D01*
X149808174Y-99850939D01*
X149953251Y-99952523D01*
X149958233Y-99954846D01*
X149958238Y-99954849D01*
X149992457Y-99970805D01*
X150045742Y-100017722D01*
X150065203Y-100085999D01*
X150044661Y-100153959D01*
X149992457Y-100199195D01*
X149958238Y-100215151D01*
X149958233Y-100215154D01*
X149953251Y-100217477D01*
X149848389Y-100290902D01*
X149770211Y-100345643D01*
X149770208Y-100345645D01*
X149765700Y-100348802D01*
X149603802Y-100510700D01*
X149600645Y-100515208D01*
X149600643Y-100515211D01*
X149581929Y-100541938D01*
X149472477Y-100698251D01*
X149470154Y-100703233D01*
X149470151Y-100703238D01*
X149406473Y-100839797D01*
X149375716Y-100905757D01*
X149374294Y-100911065D01*
X149374293Y-100911067D01*
X149325712Y-101092373D01*
X149316457Y-101126913D01*
X149296502Y-101355000D01*
X149296981Y-101360475D01*
X149310755Y-101517913D01*
X149296766Y-101587518D01*
X149274329Y-101617990D01*
X148871578Y-102020741D01*
X148857166Y-102033127D01*
X148845571Y-102041660D01*
X148845566Y-102041665D01*
X148839671Y-102046003D01*
X148834932Y-102051581D01*
X148834929Y-102051584D01*
X148805454Y-102086279D01*
X148798524Y-102093795D01*
X148792829Y-102099490D01*
X148790549Y-102102372D01*
X148775208Y-102121762D01*
X148772417Y-102125166D01*
X148730428Y-102174590D01*
X148725156Y-102180796D01*
X148721828Y-102187312D01*
X148718461Y-102192361D01*
X148715294Y-102197490D01*
X148710755Y-102203227D01*
X148679834Y-102269386D01*
X148677931Y-102273280D01*
X148644720Y-102338319D01*
X148642981Y-102345427D01*
X148640882Y-102351070D01*
X148638965Y-102356833D01*
X148635867Y-102363461D01*
X148634377Y-102370623D01*
X148634377Y-102370624D01*
X148621003Y-102434923D01*
X148620033Y-102439207D01*
X148602681Y-102510121D01*
X148601989Y-102521275D01*
X148601953Y-102521273D01*
X148601714Y-102525266D01*
X148601340Y-102529458D01*
X148599849Y-102536626D01*
X148600047Y-102543943D01*
X148601943Y-102614032D01*
X148601989Y-102617439D01*
X148601989Y-110271419D01*
X148600556Y-110290369D01*
X148597290Y-110311838D01*
X148597883Y-110319130D01*
X148597883Y-110319133D01*
X148601574Y-110364507D01*
X148601989Y-110374722D01*
X148601989Y-110382782D01*
X148602414Y-110386426D01*
X148605278Y-110410996D01*
X148605711Y-110415371D01*
X148611629Y-110488126D01*
X148613885Y-110495090D01*
X148615076Y-110501049D01*
X148616460Y-110506904D01*
X148617307Y-110514170D01*
X148642224Y-110582816D01*
X148643641Y-110586944D01*
X148666138Y-110656388D01*
X148669934Y-110662643D01*
X148672440Y-110668117D01*
X148675159Y-110673547D01*
X148677656Y-110680426D01*
X148681669Y-110686546D01*
X148681669Y-110686547D01*
X148717675Y-110741465D01*
X148720012Y-110745169D01*
X148757894Y-110807596D01*
X148761610Y-110811804D01*
X148761611Y-110811805D01*
X148765292Y-110815973D01*
X148765265Y-110815997D01*
X148767918Y-110818989D01*
X148770621Y-110822222D01*
X148774633Y-110828341D01*
X148779945Y-110833373D01*
X148830872Y-110881617D01*
X148833314Y-110883995D01*
X150080698Y-112131379D01*
X150114724Y-112193691D01*
X150116269Y-112225732D01*
X150117325Y-112225760D01*
X150117174Y-112231528D01*
X150116494Y-112237271D01*
X150130545Y-112451640D01*
X150183426Y-112659859D01*
X150273366Y-112854954D01*
X150397353Y-113030392D01*
X150551236Y-113180298D01*
X150556032Y-113183503D01*
X150556035Y-113183505D01*
X150725055Y-113296440D01*
X150725060Y-113296443D01*
X150729860Y-113299650D01*
X150735169Y-113301931D01*
X150735171Y-113301932D01*
X150921932Y-113382172D01*
X150921936Y-113382173D01*
X150927242Y-113384453D01*
X150932874Y-113385727D01*
X150932876Y-113385728D01*
X151131137Y-113430590D01*
X151131142Y-113430591D01*
X151136774Y-113431865D01*
X151142545Y-113432092D01*
X151142547Y-113432092D01*
X151208614Y-113434688D01*
X151351438Y-113440299D01*
X151476168Y-113422214D01*
X151558321Y-113410303D01*
X151558325Y-113410302D01*
X151564043Y-113409473D01*
X151569515Y-113407615D01*
X151569517Y-113407615D01*
X151762007Y-113342273D01*
X151762009Y-113342272D01*
X151767471Y-113340418D01*
X151954909Y-113235448D01*
X152017364Y-113183505D01*
X152115640Y-113101769D01*
X152120078Y-113098078D01*
X152257448Y-112932909D01*
X152362418Y-112745471D01*
X152389699Y-112665106D01*
X152429615Y-112547517D01*
X152429615Y-112547515D01*
X152431473Y-112542043D01*
X152443769Y-112457242D01*
X152461766Y-112333112D01*
X152462299Y-112329438D01*
X152463908Y-112268000D01*
X152444251Y-112054072D01*
X152437369Y-112029668D01*
X152387507Y-111852874D01*
X152385938Y-111847309D01*
X152364692Y-111804225D01*
X152293475Y-111659814D01*
X152290921Y-111654635D01*
X152162384Y-111482502D01*
X152004630Y-111336676D01*
X151822943Y-111222040D01*
X151623408Y-111142434D01*
X151617748Y-111141308D01*
X151617744Y-111141307D01*
X151418374Y-111101650D01*
X151418371Y-111101650D01*
X151412707Y-111100523D01*
X151406932Y-111100447D01*
X151406928Y-111100447D01*
X151337029Y-111099532D01*
X151243540Y-111098309D01*
X151175689Y-111077417D01*
X151156096Y-111061415D01*
X150155894Y-110061213D01*
X150121868Y-109998901D01*
X150118989Y-109972118D01*
X150118989Y-109705118D01*
X150138991Y-109636997D01*
X150192647Y-109590504D01*
X150262921Y-109580400D01*
X150327501Y-109609894D01*
X150347886Y-109632398D01*
X150351467Y-109637465D01*
X150397353Y-109702392D01*
X150438745Y-109742714D01*
X150502851Y-109805163D01*
X150551236Y-109852298D01*
X150556032Y-109855503D01*
X150556035Y-109855505D01*
X150725055Y-109968440D01*
X150725060Y-109968443D01*
X150729860Y-109971650D01*
X150735169Y-109973931D01*
X150735171Y-109973932D01*
X150921932Y-110054172D01*
X150921936Y-110054173D01*
X150927242Y-110056453D01*
X150932874Y-110057727D01*
X150932876Y-110057728D01*
X151131137Y-110102590D01*
X151131142Y-110102591D01*
X151136774Y-110103865D01*
X151142545Y-110104092D01*
X151142547Y-110104092D01*
X151208614Y-110106688D01*
X151351438Y-110112299D01*
X151476168Y-110094214D01*
X151558321Y-110082303D01*
X151558325Y-110082302D01*
X151564043Y-110081473D01*
X151569515Y-110079615D01*
X151569517Y-110079615D01*
X151762007Y-110014273D01*
X151762009Y-110014272D01*
X151767471Y-110012418D01*
X151954909Y-109907448D01*
X151964710Y-109899297D01*
X152115640Y-109773769D01*
X152120078Y-109770078D01*
X152257448Y-109604909D01*
X152362418Y-109417471D01*
X152385892Y-109348321D01*
X152429615Y-109219517D01*
X152429615Y-109219515D01*
X152431473Y-109214043D01*
X152441468Y-109145112D01*
X152451444Y-109076305D01*
X152462299Y-109001438D01*
X152463908Y-108940000D01*
X152444251Y-108726072D01*
X152437369Y-108701668D01*
X152423960Y-108654127D01*
X152385938Y-108519309D01*
X152370975Y-108488966D01*
X152293475Y-108331814D01*
X152290921Y-108326635D01*
X152162384Y-108154502D01*
X152158148Y-108150586D01*
X152008870Y-108012595D01*
X152008867Y-108012593D01*
X152004630Y-108008676D01*
X151822943Y-107894040D01*
X151783866Y-107878450D01*
X151717810Y-107852096D01*
X151661950Y-107808275D01*
X151638500Y-107735066D01*
X151638500Y-107250000D01*
X155086496Y-107250000D01*
X155106458Y-107439928D01*
X155165473Y-107621556D01*
X155168776Y-107627278D01*
X155168777Y-107627279D01*
X155177345Y-107642119D01*
X155260960Y-107786944D01*
X155265378Y-107791851D01*
X155265379Y-107791852D01*
X155360164Y-107897121D01*
X155388747Y-107928866D01*
X155426884Y-107956574D01*
X155537747Y-108037121D01*
X155543248Y-108041118D01*
X155549276Y-108043802D01*
X155549278Y-108043803D01*
X155618926Y-108074812D01*
X155717712Y-108118794D01*
X155811112Y-108138647D01*
X155898056Y-108157128D01*
X155898061Y-108157128D01*
X155904513Y-108158500D01*
X156095487Y-108158500D01*
X156101939Y-108157128D01*
X156101944Y-108157128D01*
X156188888Y-108138647D01*
X156282288Y-108118794D01*
X156381074Y-108074812D01*
X156450722Y-108043803D01*
X156450724Y-108043802D01*
X156456752Y-108041118D01*
X156462254Y-108037121D01*
X156573116Y-107956574D01*
X156611253Y-107928866D01*
X156639836Y-107897121D01*
X156734621Y-107791852D01*
X156734622Y-107791851D01*
X156739040Y-107786944D01*
X156822655Y-107642119D01*
X156831223Y-107627279D01*
X156831224Y-107627278D01*
X156834527Y-107621556D01*
X156893542Y-107439928D01*
X156913504Y-107250000D01*
X156893542Y-107060072D01*
X156834527Y-106878444D01*
X156775381Y-106776000D01*
X156758500Y-106713001D01*
X156758500Y-104403882D01*
X156778502Y-104335761D01*
X156832158Y-104289268D01*
X156902432Y-104279164D01*
X156967012Y-104308658D01*
X156998695Y-104350632D01*
X157090151Y-104546762D01*
X157090154Y-104546767D01*
X157092477Y-104551749D01*
X157223802Y-104739300D01*
X157385700Y-104901198D01*
X157417771Y-104923655D01*
X157462099Y-104979110D01*
X157471500Y-105026867D01*
X157471500Y-116506930D01*
X157470067Y-116525880D01*
X157466801Y-116547349D01*
X157467394Y-116554641D01*
X157467394Y-116554644D01*
X157471085Y-116600018D01*
X157471500Y-116610233D01*
X157471500Y-116618293D01*
X157471925Y-116621937D01*
X157474789Y-116646507D01*
X157475222Y-116650882D01*
X157481140Y-116723637D01*
X157483396Y-116730601D01*
X157484587Y-116736560D01*
X157485971Y-116742415D01*
X157486818Y-116749681D01*
X157511735Y-116818327D01*
X157513152Y-116822455D01*
X157524502Y-116857489D01*
X157535649Y-116891899D01*
X157539445Y-116898154D01*
X157541951Y-116903628D01*
X157544670Y-116909058D01*
X157547167Y-116915937D01*
X157551180Y-116922057D01*
X157551180Y-116922058D01*
X157587186Y-116976976D01*
X157589523Y-116980680D01*
X157627405Y-117043107D01*
X157631121Y-117047315D01*
X157631122Y-117047316D01*
X157634803Y-117051484D01*
X157634776Y-117051508D01*
X157637429Y-117054500D01*
X157640132Y-117057733D01*
X157644144Y-117063852D01*
X157649456Y-117068884D01*
X157700383Y-117117128D01*
X157702825Y-117119506D01*
X160452230Y-119868911D01*
X160464616Y-119883323D01*
X160473149Y-119894918D01*
X160473154Y-119894923D01*
X160477492Y-119900818D01*
X160487550Y-119909363D01*
X160488154Y-119909876D01*
X160521004Y-119953154D01*
X160527366Y-119966954D01*
X160651353Y-120142392D01*
X160655487Y-120146419D01*
X160794465Y-120281805D01*
X160805236Y-120292298D01*
X160810032Y-120295503D01*
X160810035Y-120295505D01*
X160979055Y-120408440D01*
X160979060Y-120408443D01*
X160983860Y-120411650D01*
X160989169Y-120413931D01*
X160989171Y-120413932D01*
X161175932Y-120494172D01*
X161175936Y-120494173D01*
X161181242Y-120496453D01*
X161186874Y-120497727D01*
X161186876Y-120497728D01*
X161385137Y-120542590D01*
X161385142Y-120542591D01*
X161390774Y-120543865D01*
X161396545Y-120544092D01*
X161396547Y-120544092D01*
X161462614Y-120546688D01*
X161605438Y-120552299D01*
X161730168Y-120534214D01*
X161812321Y-120522303D01*
X161812325Y-120522302D01*
X161818043Y-120521473D01*
X161823515Y-120519615D01*
X161823517Y-120519615D01*
X162016007Y-120454273D01*
X162016009Y-120454272D01*
X162021471Y-120452418D01*
X162208909Y-120347448D01*
X162271364Y-120295505D01*
X162317764Y-120256914D01*
X162374078Y-120210078D01*
X162511448Y-120044909D01*
X162616418Y-119857471D01*
X162643699Y-119777106D01*
X162683615Y-119659517D01*
X162683615Y-119659515D01*
X162685473Y-119654043D01*
X162697769Y-119569242D01*
X162715766Y-119445112D01*
X162716299Y-119441438D01*
X162717908Y-119380000D01*
X162698251Y-119166072D01*
X162691369Y-119141668D01*
X162673304Y-119077616D01*
X162639938Y-118959309D01*
X162633044Y-118945328D01*
X162547475Y-118771814D01*
X162544921Y-118766635D01*
X162416384Y-118594502D01*
X162409757Y-118588376D01*
X162262870Y-118452595D01*
X162262867Y-118452593D01*
X162258630Y-118448676D01*
X162076943Y-118334040D01*
X161877408Y-118254434D01*
X161871748Y-118253308D01*
X161871744Y-118253307D01*
X161672374Y-118213650D01*
X161672371Y-118213650D01*
X161666707Y-118212523D01*
X161660932Y-118212447D01*
X161660928Y-118212447D01*
X161553255Y-118211038D01*
X161451896Y-118209711D01*
X161446199Y-118210690D01*
X161446198Y-118210690D01*
X161435973Y-118212447D01*
X161240170Y-118246092D01*
X161121969Y-118289699D01*
X161051136Y-118294511D01*
X160989263Y-118260582D01*
X159537524Y-116808843D01*
X160829517Y-116808843D01*
X160839399Y-116821332D01*
X160885295Y-116851999D01*
X160895405Y-116857489D01*
X161082091Y-116937695D01*
X161093034Y-116941250D01*
X161291203Y-116986092D01*
X161302613Y-116987594D01*
X161505643Y-116995571D01*
X161517125Y-116994969D01*
X161718212Y-116965814D01*
X161729395Y-116963129D01*
X161921795Y-116897818D01*
X161932310Y-116893136D01*
X162062409Y-116820277D01*
X162072273Y-116810200D01*
X162069318Y-116802528D01*
X161462812Y-116196022D01*
X161448868Y-116188408D01*
X161447035Y-116188539D01*
X161440420Y-116192790D01*
X160835713Y-116797497D01*
X160829517Y-116808843D01*
X159537524Y-116808843D01*
X159025405Y-116296724D01*
X158991379Y-116234412D01*
X158988500Y-116207629D01*
X158988500Y-115799050D01*
X160277374Y-115799050D01*
X160290663Y-116001793D01*
X160292464Y-116013163D01*
X160342477Y-116210091D01*
X160346318Y-116220938D01*
X160431382Y-116405455D01*
X160437138Y-116415424D01*
X160452448Y-116437088D01*
X160463039Y-116445479D01*
X160476339Y-116438451D01*
X161077978Y-115836812D01*
X161084356Y-115825132D01*
X161814408Y-115825132D01*
X161814539Y-115826965D01*
X161818790Y-115833580D01*
X162424613Y-116439403D01*
X162436993Y-116446163D01*
X162443573Y-116441237D01*
X162519136Y-116306310D01*
X162523818Y-116295795D01*
X162589129Y-116103395D01*
X162591814Y-116092212D01*
X162621265Y-115889085D01*
X162621895Y-115881702D01*
X162623309Y-115827704D01*
X162623066Y-115820305D01*
X162604286Y-115615921D01*
X162602188Y-115604600D01*
X162547038Y-115409053D01*
X162542913Y-115398306D01*
X162453048Y-115216078D01*
X162448538Y-115208719D01*
X162438027Y-115200830D01*
X162425608Y-115207602D01*
X161822022Y-115811188D01*
X161814408Y-115825132D01*
X161084356Y-115825132D01*
X161085592Y-115822868D01*
X161085461Y-115821035D01*
X161081210Y-115814420D01*
X160473818Y-115207028D01*
X160461438Y-115200268D01*
X160455472Y-115204734D01*
X160368603Y-115369847D01*
X160364202Y-115380471D01*
X160303949Y-115574518D01*
X160301557Y-115585772D01*
X160277675Y-115787549D01*
X160277374Y-115799050D01*
X158988500Y-115799050D01*
X158988500Y-114838607D01*
X160828719Y-114838607D01*
X160832206Y-114846996D01*
X161437188Y-115451978D01*
X161451132Y-115459592D01*
X161452965Y-115459461D01*
X161459580Y-115455210D01*
X162064073Y-114850717D01*
X162070833Y-114838337D01*
X162064803Y-114830282D01*
X161987595Y-114781567D01*
X161977352Y-114776348D01*
X161788628Y-114701055D01*
X161777601Y-114697788D01*
X161578321Y-114658149D01*
X161566875Y-114656946D01*
X161363718Y-114654287D01*
X161352238Y-114655190D01*
X161151997Y-114689598D01*
X161140877Y-114692578D01*
X160950252Y-114762903D01*
X160939874Y-114767853D01*
X160838317Y-114828274D01*
X160828719Y-114838607D01*
X158988500Y-114838607D01*
X158988500Y-112237271D01*
X160276494Y-112237271D01*
X160290545Y-112451640D01*
X160343426Y-112659859D01*
X160433366Y-112854954D01*
X160557353Y-113030392D01*
X160711236Y-113180298D01*
X160716032Y-113183503D01*
X160716035Y-113183505D01*
X160885055Y-113296440D01*
X160885060Y-113296443D01*
X160889860Y-113299650D01*
X160895169Y-113301931D01*
X160895171Y-113301932D01*
X161081932Y-113382172D01*
X161081936Y-113382173D01*
X161087242Y-113384453D01*
X161092874Y-113385727D01*
X161092876Y-113385728D01*
X161291137Y-113430590D01*
X161291142Y-113430591D01*
X161296774Y-113431865D01*
X161302545Y-113432092D01*
X161302547Y-113432092D01*
X161368614Y-113434688D01*
X161511438Y-113440299D01*
X161636168Y-113422214D01*
X161718321Y-113410303D01*
X161718325Y-113410302D01*
X161724043Y-113409473D01*
X161729515Y-113407615D01*
X161729517Y-113407615D01*
X161922007Y-113342273D01*
X161922009Y-113342272D01*
X161927471Y-113340418D01*
X162114909Y-113235448D01*
X162177364Y-113183505D01*
X162275640Y-113101769D01*
X162280078Y-113098078D01*
X162417448Y-112932909D01*
X162522418Y-112745471D01*
X162549699Y-112665106D01*
X162589615Y-112547517D01*
X162589615Y-112547515D01*
X162591473Y-112542043D01*
X162603769Y-112457242D01*
X162621766Y-112333112D01*
X162622299Y-112329438D01*
X162623908Y-112268000D01*
X162604251Y-112054072D01*
X162597369Y-112029668D01*
X162547507Y-111852874D01*
X162545938Y-111847309D01*
X162524692Y-111804225D01*
X162453475Y-111659814D01*
X162450921Y-111654635D01*
X162322384Y-111482502D01*
X162164630Y-111336676D01*
X161982943Y-111222040D01*
X161783408Y-111142434D01*
X161777748Y-111141308D01*
X161777744Y-111141307D01*
X161578374Y-111101650D01*
X161578371Y-111101650D01*
X161572707Y-111100523D01*
X161566932Y-111100447D01*
X161566928Y-111100447D01*
X161459255Y-111099038D01*
X161357896Y-111097711D01*
X161352199Y-111098690D01*
X161352198Y-111098690D01*
X161151867Y-111133113D01*
X161146170Y-111134092D01*
X160944620Y-111208448D01*
X160759994Y-111318288D01*
X160755654Y-111322094D01*
X160755650Y-111322097D01*
X160723833Y-111350000D01*
X160598477Y-111459935D01*
X160465478Y-111628644D01*
X160462789Y-111633755D01*
X160462787Y-111633758D01*
X160411979Y-111730328D01*
X160365450Y-111818765D01*
X160301745Y-112023931D01*
X160276494Y-112237271D01*
X158988500Y-112237271D01*
X158988500Y-108909271D01*
X160276494Y-108909271D01*
X160290545Y-109123640D01*
X160343426Y-109331859D01*
X160433366Y-109526954D01*
X160557353Y-109702392D01*
X160598745Y-109742714D01*
X160662851Y-109805163D01*
X160711236Y-109852298D01*
X160716032Y-109855503D01*
X160716035Y-109855505D01*
X160885055Y-109968440D01*
X160885060Y-109968443D01*
X160889860Y-109971650D01*
X160895169Y-109973931D01*
X160895171Y-109973932D01*
X161081932Y-110054172D01*
X161081936Y-110054173D01*
X161087242Y-110056453D01*
X161092874Y-110057727D01*
X161092876Y-110057728D01*
X161291137Y-110102590D01*
X161291142Y-110102591D01*
X161296774Y-110103865D01*
X161302545Y-110104092D01*
X161302547Y-110104092D01*
X161368614Y-110106688D01*
X161511438Y-110112299D01*
X161636168Y-110094214D01*
X161718321Y-110082303D01*
X161718325Y-110082302D01*
X161724043Y-110081473D01*
X161729515Y-110079615D01*
X161729517Y-110079615D01*
X161922007Y-110014273D01*
X161922009Y-110014272D01*
X161927471Y-110012418D01*
X162114909Y-109907448D01*
X162124710Y-109899297D01*
X162275640Y-109773769D01*
X162280078Y-109770078D01*
X162417448Y-109604909D01*
X162522418Y-109417471D01*
X162545892Y-109348321D01*
X162589615Y-109219517D01*
X162589615Y-109219515D01*
X162591473Y-109214043D01*
X162601468Y-109145112D01*
X162611444Y-109076305D01*
X162615364Y-109049271D01*
X164434494Y-109049271D01*
X164448545Y-109263640D01*
X164501426Y-109471859D01*
X164591366Y-109666954D01*
X164715353Y-109842392D01*
X164719487Y-109846419D01*
X164854166Y-109977617D01*
X164869236Y-109992298D01*
X164874032Y-109995503D01*
X164874035Y-109995505D01*
X165043055Y-110108440D01*
X165043060Y-110108443D01*
X165047860Y-110111650D01*
X165053169Y-110113931D01*
X165053171Y-110113932D01*
X165239932Y-110194172D01*
X165239936Y-110194173D01*
X165245242Y-110196453D01*
X165250874Y-110197727D01*
X165250876Y-110197728D01*
X165449137Y-110242590D01*
X165449142Y-110242591D01*
X165454774Y-110243865D01*
X165460545Y-110244092D01*
X165460547Y-110244092D01*
X165526614Y-110246688D01*
X165669438Y-110252299D01*
X165794168Y-110234214D01*
X165876321Y-110222303D01*
X165876325Y-110222302D01*
X165882043Y-110221473D01*
X165887515Y-110219615D01*
X165887517Y-110219615D01*
X166080007Y-110154273D01*
X166080009Y-110154272D01*
X166085471Y-110152418D01*
X166272909Y-110047448D01*
X166312798Y-110014273D01*
X166433640Y-109913769D01*
X166438078Y-109910078D01*
X166575448Y-109744909D01*
X166680418Y-109557471D01*
X166683210Y-109549248D01*
X166747615Y-109359517D01*
X166747615Y-109359515D01*
X166749473Y-109354043D01*
X166753502Y-109326259D01*
X166769772Y-109214043D01*
X166780299Y-109141438D01*
X166781908Y-109080000D01*
X166762251Y-108866072D01*
X166755369Y-108841668D01*
X166732416Y-108760285D01*
X166703938Y-108659309D01*
X166694270Y-108639703D01*
X166611475Y-108471814D01*
X166608921Y-108466635D01*
X166488789Y-108305758D01*
X166483837Y-108299126D01*
X166483836Y-108299125D01*
X166480384Y-108294502D01*
X166460878Y-108276471D01*
X166326870Y-108152595D01*
X166326867Y-108152593D01*
X166322630Y-108148676D01*
X166140943Y-108034040D01*
X165941408Y-107954434D01*
X165935748Y-107953308D01*
X165935744Y-107953307D01*
X165736374Y-107913650D01*
X165736371Y-107913650D01*
X165730707Y-107912523D01*
X165724932Y-107912447D01*
X165724928Y-107912447D01*
X165617255Y-107911038D01*
X165515896Y-107909711D01*
X165510199Y-107910690D01*
X165510198Y-107910690D01*
X165381822Y-107932749D01*
X165304170Y-107946092D01*
X165102620Y-108020448D01*
X164917994Y-108130288D01*
X164913654Y-108134094D01*
X164913650Y-108134097D01*
X164760818Y-108268128D01*
X164756477Y-108271935D01*
X164623478Y-108440644D01*
X164620789Y-108445755D01*
X164620787Y-108445758D01*
X164582090Y-108519309D01*
X164523450Y-108630765D01*
X164459745Y-108835931D01*
X164434494Y-109049271D01*
X162615364Y-109049271D01*
X162622299Y-109001438D01*
X162623908Y-108940000D01*
X162604251Y-108726072D01*
X162597369Y-108701668D01*
X162583960Y-108654127D01*
X162545938Y-108519309D01*
X162530975Y-108488966D01*
X162453475Y-108331814D01*
X162450921Y-108326635D01*
X162322384Y-108154502D01*
X162318148Y-108150586D01*
X162168870Y-108012595D01*
X162168867Y-108012593D01*
X162164630Y-108008676D01*
X161982943Y-107894040D01*
X161783408Y-107814434D01*
X161777748Y-107813308D01*
X161777744Y-107813307D01*
X161578374Y-107773650D01*
X161578371Y-107773650D01*
X161572707Y-107772523D01*
X161566932Y-107772447D01*
X161566928Y-107772447D01*
X161459255Y-107771038D01*
X161357896Y-107769711D01*
X161352199Y-107770690D01*
X161352198Y-107770690D01*
X161341973Y-107772447D01*
X161146170Y-107806092D01*
X160944620Y-107880448D01*
X160759994Y-107990288D01*
X160755654Y-107994094D01*
X160755650Y-107994097D01*
X160698972Y-108043803D01*
X160598477Y-108131935D01*
X160594902Y-108136470D01*
X160594901Y-108136471D01*
X160578192Y-108157667D01*
X160465478Y-108300644D01*
X160462789Y-108305755D01*
X160462787Y-108305758D01*
X160444706Y-108340125D01*
X160365450Y-108490765D01*
X160301745Y-108695931D01*
X160276494Y-108909271D01*
X158988500Y-108909271D01*
X158988500Y-105026867D01*
X159008502Y-104958746D01*
X159042228Y-104923655D01*
X159074300Y-104901198D01*
X159236198Y-104739300D01*
X159258655Y-104707229D01*
X159314110Y-104662901D01*
X159361867Y-104653500D01*
X159747930Y-104653500D01*
X159766880Y-104654933D01*
X159781115Y-104657099D01*
X159781119Y-104657099D01*
X159788349Y-104658199D01*
X159795641Y-104657606D01*
X159795644Y-104657606D01*
X159841018Y-104653915D01*
X159851233Y-104653500D01*
X159859293Y-104653500D01*
X159872583Y-104651951D01*
X159887507Y-104650211D01*
X159891882Y-104649778D01*
X159957339Y-104644454D01*
X159957342Y-104644453D01*
X159964637Y-104643860D01*
X159971601Y-104641604D01*
X159977560Y-104640413D01*
X159983415Y-104639029D01*
X159990681Y-104638182D01*
X160059327Y-104613265D01*
X160063455Y-104611848D01*
X160125936Y-104591607D01*
X160125938Y-104591606D01*
X160132899Y-104589351D01*
X160139154Y-104585555D01*
X160144628Y-104583049D01*
X160150058Y-104580330D01*
X160156937Y-104577833D01*
X160189846Y-104556257D01*
X160217976Y-104537814D01*
X160221680Y-104535477D01*
X160284107Y-104497595D01*
X160292484Y-104490197D01*
X160292508Y-104490224D01*
X160295500Y-104487571D01*
X160298733Y-104484868D01*
X160304852Y-104480856D01*
X160358128Y-104424617D01*
X160360506Y-104422175D01*
X164844762Y-99937919D01*
X164907074Y-99903893D01*
X164977889Y-99908958D01*
X165003854Y-99922247D01*
X165047860Y-99951650D01*
X165053170Y-99953931D01*
X165053173Y-99953933D01*
X165239932Y-100034172D01*
X165239936Y-100034173D01*
X165245242Y-100036453D01*
X165250874Y-100037727D01*
X165250876Y-100037728D01*
X165449137Y-100082590D01*
X165449142Y-100082591D01*
X165454774Y-100083865D01*
X165460545Y-100084092D01*
X165460547Y-100084092D01*
X165526614Y-100086688D01*
X165669438Y-100092299D01*
X165794168Y-100074214D01*
X165876321Y-100062303D01*
X165876325Y-100062302D01*
X165882043Y-100061473D01*
X165887515Y-100059615D01*
X165887517Y-100059615D01*
X166080007Y-99994273D01*
X166080009Y-99994272D01*
X166085471Y-99992418D01*
X166272909Y-99887448D01*
X166438078Y-99750078D01*
X166575448Y-99584909D01*
X166680418Y-99397471D01*
X166704316Y-99327072D01*
X166747615Y-99199517D01*
X166747615Y-99199515D01*
X166749473Y-99194043D01*
X166758220Y-99133720D01*
X166779766Y-98985112D01*
X166780299Y-98981438D01*
X166781908Y-98920000D01*
X166762251Y-98706072D01*
X166760565Y-98700092D01*
X166724171Y-98571051D01*
X166703938Y-98499309D01*
X166667626Y-98425675D01*
X166611475Y-98311814D01*
X166608921Y-98306635D01*
X166511983Y-98176818D01*
X166483837Y-98139126D01*
X166483836Y-98139125D01*
X166480384Y-98134502D01*
X166476148Y-98130586D01*
X166326870Y-97992595D01*
X166326867Y-97992593D01*
X166322630Y-97988676D01*
X166140943Y-97874040D01*
X165941408Y-97794434D01*
X165935751Y-97793309D01*
X165935745Y-97793307D01*
X165889825Y-97784173D01*
X165873562Y-97780939D01*
X165810653Y-97748032D01*
X165775521Y-97686337D01*
X165779321Y-97615442D01*
X165820846Y-97557856D01*
X165865533Y-97535653D01*
X166051933Y-97485707D01*
X166051935Y-97485706D01*
X166057243Y-97484284D01*
X166062225Y-97481961D01*
X166259762Y-97389849D01*
X166259767Y-97389846D01*
X166264749Y-97387523D01*
X166401268Y-97291931D01*
X166447789Y-97259357D01*
X166447792Y-97259355D01*
X166452300Y-97256198D01*
X166614198Y-97094300D01*
X166665874Y-97020500D01*
X166672098Y-97011611D01*
X166745523Y-96906749D01*
X166747846Y-96901767D01*
X166747849Y-96901762D01*
X166839961Y-96704225D01*
X166839961Y-96704224D01*
X166842284Y-96699243D01*
X166847768Y-96678779D01*
X166900119Y-96483402D01*
X166900119Y-96483400D01*
X166901543Y-96478087D01*
X166921498Y-96250000D01*
X166901543Y-96021913D01*
X166897153Y-96005530D01*
X166843707Y-95806067D01*
X166843706Y-95806065D01*
X166842284Y-95800757D01*
X166799996Y-95710069D01*
X166747849Y-95598238D01*
X166747846Y-95598233D01*
X166745523Y-95593251D01*
X166634862Y-95435211D01*
X166617357Y-95410211D01*
X166617355Y-95410208D01*
X166614198Y-95405700D01*
X166452300Y-95243802D01*
X166447792Y-95240645D01*
X166447789Y-95240643D01*
X166304961Y-95140634D01*
X166264749Y-95112477D01*
X166259767Y-95110154D01*
X166259762Y-95110151D01*
X166062225Y-95018039D01*
X166062224Y-95018039D01*
X166057243Y-95015716D01*
X166051935Y-95014294D01*
X166051933Y-95014293D01*
X165841402Y-94957881D01*
X165841400Y-94957881D01*
X165836087Y-94956457D01*
X165608000Y-94936502D01*
X165379913Y-94956457D01*
X165374600Y-94957881D01*
X165374598Y-94957881D01*
X165220369Y-94999207D01*
X165187758Y-95003500D01*
X159098443Y-95003500D01*
X159030322Y-94983498D01*
X158983829Y-94929842D01*
X158973725Y-94859568D01*
X159003219Y-94794988D01*
X159026173Y-94774287D01*
X159069462Y-94743976D01*
X159077875Y-94736916D01*
X159231916Y-94582875D01*
X159238972Y-94574467D01*
X159363931Y-94396007D01*
X159369414Y-94386511D01*
X159461490Y-94189053D01*
X159465236Y-94178761D01*
X159511394Y-94006497D01*
X159511058Y-93992401D01*
X159503116Y-93989000D01*
X156962033Y-93989000D01*
X156948502Y-93992973D01*
X156947273Y-94001522D01*
X156994764Y-94178761D01*
X156998510Y-94189053D01*
X157090586Y-94386511D01*
X157096069Y-94396007D01*
X157221028Y-94574467D01*
X157228084Y-94582875D01*
X157382125Y-94736916D01*
X157390533Y-94743972D01*
X157568993Y-94868931D01*
X157578489Y-94874414D01*
X157613049Y-94890529D01*
X157666334Y-94937446D01*
X157685795Y-95005723D01*
X157665253Y-95073683D01*
X157613049Y-95118919D01*
X157578238Y-95135151D01*
X157578233Y-95135154D01*
X157573251Y-95137477D01*
X157515561Y-95177872D01*
X157390211Y-95265643D01*
X157390208Y-95265645D01*
X157385700Y-95268802D01*
X157223802Y-95430700D01*
X157220645Y-95435208D01*
X157220643Y-95435211D01*
X157191052Y-95477471D01*
X157092477Y-95618251D01*
X157090154Y-95623233D01*
X157090151Y-95623238D01*
X156998039Y-95820775D01*
X156995716Y-95825757D01*
X156994294Y-95831065D01*
X156994293Y-95831067D01*
X156945712Y-96012373D01*
X156936457Y-96046913D01*
X156916502Y-96275000D01*
X156936457Y-96503087D01*
X156937881Y-96508400D01*
X156937881Y-96508402D01*
X156981822Y-96672389D01*
X156995716Y-96724243D01*
X156998039Y-96729224D01*
X156998039Y-96729225D01*
X157090151Y-96926762D01*
X157090154Y-96926767D01*
X157092477Y-96931749D01*
X157140163Y-96999851D01*
X157212669Y-97103400D01*
X157223802Y-97119300D01*
X157385700Y-97281198D01*
X157390208Y-97284355D01*
X157390211Y-97284357D01*
X157428174Y-97310939D01*
X157573251Y-97412523D01*
X157578233Y-97414846D01*
X157578238Y-97414849D01*
X157613049Y-97431081D01*
X157666334Y-97477998D01*
X157685795Y-97546275D01*
X157665253Y-97614235D01*
X157613049Y-97659471D01*
X157578489Y-97675586D01*
X157568993Y-97681069D01*
X157390533Y-97806028D01*
X157382125Y-97813084D01*
X157228084Y-97967125D01*
X157221028Y-97975533D01*
X157096069Y-98153993D01*
X157090586Y-98163489D01*
X156998510Y-98360947D01*
X156994764Y-98371239D01*
X156948606Y-98543503D01*
X156948942Y-98557599D01*
X156956884Y-98561000D01*
X159497967Y-98561000D01*
X159511498Y-98557027D01*
X159512727Y-98548478D01*
X159465236Y-98371239D01*
X159461490Y-98360947D01*
X159369414Y-98163489D01*
X159363931Y-98153993D01*
X159238972Y-97975533D01*
X159231916Y-97967125D01*
X159077875Y-97813084D01*
X159069467Y-97806028D01*
X158891007Y-97681069D01*
X158881511Y-97675586D01*
X158846951Y-97659471D01*
X158793666Y-97612554D01*
X158774205Y-97544277D01*
X158794747Y-97476317D01*
X158846951Y-97431081D01*
X158881762Y-97414849D01*
X158881767Y-97414846D01*
X158886749Y-97412523D01*
X159031826Y-97310939D01*
X159069789Y-97284357D01*
X159069792Y-97284355D01*
X159074300Y-97281198D01*
X159236198Y-97119300D01*
X159247332Y-97103400D01*
X159258979Y-97086765D01*
X159267758Y-97074228D01*
X159323214Y-97029901D01*
X159370970Y-97020500D01*
X160308967Y-97020500D01*
X160377088Y-97040502D01*
X160423581Y-97094158D01*
X160433685Y-97164432D01*
X160429300Y-97183864D01*
X160420394Y-97212547D01*
X160395745Y-97291931D01*
X160370494Y-97505271D01*
X160384545Y-97719640D01*
X160437426Y-97927859D01*
X160527366Y-98122954D01*
X160651353Y-98298392D01*
X160691880Y-98337872D01*
X160770549Y-98414507D01*
X160805236Y-98448298D01*
X160810032Y-98451503D01*
X160810035Y-98451505D01*
X160979055Y-98564440D01*
X160979060Y-98564443D01*
X160983860Y-98567650D01*
X160989169Y-98569931D01*
X160989171Y-98569932D01*
X161175932Y-98650172D01*
X161175936Y-98650173D01*
X161181242Y-98652453D01*
X161186874Y-98653727D01*
X161186876Y-98653728D01*
X161385137Y-98698590D01*
X161385142Y-98698591D01*
X161390774Y-98699865D01*
X161396545Y-98700092D01*
X161396547Y-98700092D01*
X161462614Y-98702688D01*
X161605438Y-98708299D01*
X161730168Y-98690214D01*
X161812321Y-98678303D01*
X161812325Y-98678302D01*
X161818043Y-98677473D01*
X161823515Y-98675615D01*
X161823517Y-98675615D01*
X162016007Y-98610273D01*
X162016009Y-98610272D01*
X162021471Y-98608418D01*
X162208909Y-98503448D01*
X162271364Y-98451505D01*
X162369640Y-98369769D01*
X162374078Y-98366078D01*
X162511448Y-98200909D01*
X162616418Y-98013471D01*
X162623505Y-97992595D01*
X162683615Y-97815517D01*
X162683615Y-97815515D01*
X162685473Y-97810043D01*
X162687226Y-97797957D01*
X162705031Y-97675151D01*
X162716299Y-97597438D01*
X162717908Y-97536000D01*
X162698251Y-97322072D01*
X162658380Y-97180700D01*
X162659140Y-97109709D01*
X162698161Y-97050397D01*
X162763054Y-97021598D01*
X162779649Y-97020500D01*
X164484536Y-97020500D01*
X164552657Y-97040502D01*
X164587747Y-97074227D01*
X164601802Y-97094300D01*
X164763700Y-97256198D01*
X164768208Y-97259355D01*
X164768211Y-97259357D01*
X164814732Y-97291931D01*
X164951251Y-97387523D01*
X164956233Y-97389846D01*
X164956238Y-97389849D01*
X165153775Y-97481961D01*
X165158757Y-97484284D01*
X165164064Y-97485706D01*
X165347134Y-97534760D01*
X165407756Y-97571712D01*
X165438778Y-97635573D01*
X165430349Y-97706067D01*
X165385146Y-97760814D01*
X165335860Y-97780647D01*
X165304170Y-97786092D01*
X165102620Y-97860448D01*
X164917994Y-97970288D01*
X164913654Y-97974094D01*
X164913650Y-97974097D01*
X164783401Y-98088323D01*
X164756477Y-98111935D01*
X164752899Y-98116474D01*
X164748561Y-98121976D01*
X164690681Y-98163090D01*
X164659825Y-98169557D01*
X164647661Y-98170546D01*
X164647658Y-98170547D01*
X164640363Y-98171140D01*
X164633399Y-98173396D01*
X164627440Y-98174587D01*
X164621585Y-98175971D01*
X164614319Y-98176818D01*
X164545673Y-98201735D01*
X164541545Y-98203152D01*
X164479064Y-98223393D01*
X164479062Y-98223394D01*
X164472101Y-98225649D01*
X164465846Y-98229445D01*
X164460372Y-98231951D01*
X164454942Y-98234670D01*
X164448063Y-98237167D01*
X164387016Y-98277191D01*
X164383327Y-98279518D01*
X164366184Y-98289921D01*
X164325693Y-98314491D01*
X164325688Y-98314495D01*
X164320892Y-98317405D01*
X164312516Y-98324803D01*
X164312493Y-98324777D01*
X164309503Y-98327426D01*
X164306264Y-98330134D01*
X164300148Y-98334144D01*
X164295121Y-98339451D01*
X164295117Y-98339454D01*
X164246872Y-98390383D01*
X164244494Y-98392825D01*
X159537724Y-103099595D01*
X159475412Y-103133621D01*
X159448629Y-103136500D01*
X159361867Y-103136500D01*
X159293746Y-103116498D01*
X159258655Y-103082772D01*
X159236198Y-103050700D01*
X159074300Y-102888802D01*
X159069792Y-102885645D01*
X159069789Y-102885643D01*
X158991611Y-102830902D01*
X158886749Y-102757477D01*
X158881767Y-102755154D01*
X158881762Y-102755151D01*
X158847543Y-102739195D01*
X158794258Y-102692278D01*
X158774797Y-102624001D01*
X158795339Y-102556041D01*
X158847543Y-102510805D01*
X158881762Y-102494849D01*
X158881767Y-102494846D01*
X158886749Y-102492523D01*
X159031826Y-102390939D01*
X159069789Y-102364357D01*
X159069792Y-102364355D01*
X159074300Y-102361198D01*
X159236198Y-102199300D01*
X159253064Y-102175214D01*
X159319837Y-102079851D01*
X159367523Y-102011749D01*
X159369846Y-102006767D01*
X159369849Y-102006762D01*
X159461961Y-101809225D01*
X159461961Y-101809224D01*
X159464284Y-101804243D01*
X159500603Y-101668702D01*
X159522119Y-101588402D01*
X159522119Y-101588400D01*
X159523543Y-101583087D01*
X159543498Y-101355000D01*
X159523543Y-101126913D01*
X159514288Y-101092373D01*
X159465707Y-100911067D01*
X159465706Y-100911065D01*
X159464284Y-100905757D01*
X159433527Y-100839797D01*
X159369849Y-100703238D01*
X159369846Y-100703233D01*
X159367523Y-100698251D01*
X159258071Y-100541938D01*
X159239357Y-100515211D01*
X159239355Y-100515208D01*
X159236198Y-100510700D01*
X159074300Y-100348802D01*
X159069792Y-100345645D01*
X159069789Y-100345643D01*
X158991611Y-100290902D01*
X158886749Y-100217477D01*
X158881767Y-100215154D01*
X158881762Y-100215151D01*
X158846951Y-100198919D01*
X158793666Y-100152002D01*
X158774205Y-100083725D01*
X158794747Y-100015765D01*
X158846951Y-99970529D01*
X158881511Y-99954414D01*
X158891007Y-99948931D01*
X159069467Y-99823972D01*
X159077875Y-99816916D01*
X159231916Y-99662875D01*
X159238972Y-99654467D01*
X159363931Y-99476007D01*
X159369414Y-99466511D01*
X159461490Y-99269053D01*
X159465236Y-99258761D01*
X159511394Y-99086497D01*
X159511058Y-99072401D01*
X159503116Y-99069000D01*
X156962033Y-99069000D01*
X156948502Y-99072973D01*
X156947273Y-99081522D01*
X156994764Y-99258761D01*
X156998510Y-99269053D01*
X157090586Y-99466511D01*
X157096069Y-99476007D01*
X157221028Y-99654467D01*
X157228084Y-99662875D01*
X157382125Y-99816916D01*
X157390533Y-99823972D01*
X157568993Y-99948931D01*
X157578489Y-99954414D01*
X157613049Y-99970529D01*
X157666334Y-100017446D01*
X157685795Y-100085723D01*
X157665253Y-100153683D01*
X157613049Y-100198919D01*
X157578238Y-100215151D01*
X157578233Y-100215154D01*
X157573251Y-100217477D01*
X157468389Y-100290902D01*
X157390211Y-100345643D01*
X157390208Y-100345645D01*
X157385700Y-100348802D01*
X157223802Y-100510700D01*
X157220645Y-100515208D01*
X157220643Y-100515211D01*
X157201929Y-100541938D01*
X157092477Y-100698251D01*
X157090154Y-100703233D01*
X157090151Y-100703238D01*
X157026473Y-100839797D01*
X156995716Y-100905757D01*
X156994294Y-100911065D01*
X156994293Y-100911067D01*
X156945712Y-101092373D01*
X156936457Y-101126913D01*
X156916502Y-101355000D01*
X156916981Y-101360475D01*
X156930755Y-101517913D01*
X156916766Y-101587518D01*
X156894329Y-101617990D01*
X155511089Y-103001230D01*
X155496677Y-103013616D01*
X155485082Y-103022149D01*
X155485077Y-103022154D01*
X155479182Y-103026492D01*
X155474443Y-103032070D01*
X155474440Y-103032073D01*
X155444965Y-103066768D01*
X155438035Y-103074284D01*
X155432340Y-103079979D01*
X155430060Y-103082861D01*
X155414719Y-103102251D01*
X155411928Y-103105655D01*
X155369409Y-103155703D01*
X155364667Y-103161285D01*
X155361339Y-103167801D01*
X155357972Y-103172850D01*
X155354805Y-103177979D01*
X155350266Y-103183716D01*
X155319345Y-103249875D01*
X155317442Y-103253769D01*
X155284231Y-103318808D01*
X155282492Y-103325916D01*
X155280393Y-103331559D01*
X155278476Y-103337322D01*
X155275378Y-103343950D01*
X155262229Y-103407169D01*
X155260514Y-103415412D01*
X155259544Y-103419696D01*
X155242192Y-103490610D01*
X155241844Y-103496212D01*
X155241844Y-103496215D01*
X155241652Y-103499309D01*
X155241500Y-103501764D01*
X155241464Y-103501762D01*
X155241225Y-103505755D01*
X155240851Y-103509947D01*
X155239360Y-103517115D01*
X155239558Y-103524432D01*
X155241454Y-103594521D01*
X155241500Y-103597928D01*
X155241500Y-106713001D01*
X155224619Y-106776000D01*
X155165473Y-106878444D01*
X155106458Y-107060072D01*
X155086496Y-107250000D01*
X151638500Y-107250000D01*
X151638500Y-104747178D01*
X151661287Y-104674907D01*
X151744366Y-104556258D01*
X151744367Y-104556256D01*
X151747523Y-104551749D01*
X151749846Y-104546767D01*
X151749849Y-104546762D01*
X151841961Y-104349225D01*
X151841961Y-104349224D01*
X151844284Y-104344243D01*
X151851556Y-104317106D01*
X151902119Y-104128402D01*
X151902119Y-104128400D01*
X151903543Y-104123087D01*
X151923498Y-103895000D01*
X151903543Y-103666913D01*
X151894288Y-103632373D01*
X151845707Y-103451067D01*
X151845706Y-103451065D01*
X151844284Y-103445757D01*
X151831946Y-103419298D01*
X151749849Y-103243238D01*
X151749846Y-103243233D01*
X151747523Y-103238251D01*
X151662270Y-103116498D01*
X151619357Y-103055211D01*
X151619355Y-103055208D01*
X151616198Y-103050700D01*
X151454300Y-102888802D01*
X151449792Y-102885645D01*
X151449789Y-102885643D01*
X151371611Y-102830902D01*
X151266749Y-102757477D01*
X151261767Y-102755154D01*
X151261762Y-102755151D01*
X151227543Y-102739195D01*
X151174258Y-102692278D01*
X151154797Y-102624001D01*
X151175339Y-102556041D01*
X151227543Y-102510805D01*
X151261762Y-102494849D01*
X151261767Y-102494846D01*
X151266749Y-102492523D01*
X151411826Y-102390939D01*
X151449789Y-102364357D01*
X151449792Y-102364355D01*
X151454300Y-102361198D01*
X151616198Y-102199300D01*
X151633064Y-102175214D01*
X151699837Y-102079851D01*
X151747523Y-102011749D01*
X151749846Y-102006767D01*
X151749849Y-102006762D01*
X151841961Y-101809225D01*
X151841961Y-101809224D01*
X151844284Y-101804243D01*
X151880603Y-101668702D01*
X151902119Y-101588402D01*
X151902119Y-101588400D01*
X151903543Y-101583087D01*
X151923498Y-101355000D01*
X151903543Y-101126913D01*
X151894288Y-101092373D01*
X151845707Y-100911067D01*
X151845706Y-100911065D01*
X151844284Y-100905757D01*
X151813527Y-100839797D01*
X151749849Y-100703238D01*
X151749846Y-100703233D01*
X151747523Y-100698251D01*
X151638071Y-100541938D01*
X151619357Y-100515211D01*
X151619355Y-100515208D01*
X151616198Y-100510700D01*
X151454300Y-100348802D01*
X151449792Y-100345645D01*
X151449789Y-100345643D01*
X151371611Y-100290902D01*
X151266749Y-100217477D01*
X151261767Y-100215154D01*
X151261762Y-100215151D01*
X151227543Y-100199195D01*
X151174258Y-100152278D01*
X151154797Y-100084001D01*
X151175339Y-100016041D01*
X151227543Y-99970805D01*
X151261762Y-99954849D01*
X151261767Y-99954846D01*
X151266749Y-99952523D01*
X151411826Y-99850939D01*
X151449789Y-99824357D01*
X151449792Y-99824355D01*
X151454300Y-99821198D01*
X151616198Y-99659300D01*
X151747523Y-99471749D01*
X151749846Y-99466767D01*
X151749849Y-99466762D01*
X151841961Y-99269225D01*
X151841961Y-99269224D01*
X151844284Y-99264243D01*
X151861628Y-99199517D01*
X151902119Y-99048402D01*
X151902119Y-99048400D01*
X151903543Y-99043087D01*
X151923498Y-98815000D01*
X151903543Y-98586913D01*
X151898435Y-98567848D01*
X151845707Y-98371067D01*
X151845706Y-98371065D01*
X151844284Y-98365757D01*
X151841961Y-98360775D01*
X151841961Y-98360774D01*
X151796251Y-98262749D01*
X151785590Y-98192557D01*
X151814570Y-98127744D01*
X151873990Y-98088888D01*
X151910446Y-98083499D01*
X153809522Y-98083499D01*
X153823129Y-98084236D01*
X153854627Y-98087658D01*
X153854632Y-98087658D01*
X153860753Y-98088323D01*
X153887003Y-98086026D01*
X153910753Y-98083949D01*
X153915579Y-98083620D01*
X153918051Y-98083499D01*
X153921134Y-98083499D01*
X153933103Y-98082325D01*
X153963871Y-98079309D01*
X153965184Y-98079187D01*
X154009449Y-98075314D01*
X154057778Y-98071086D01*
X154062897Y-98069599D01*
X154068198Y-98069079D01*
X154157199Y-98042208D01*
X154158332Y-98041873D01*
X154241779Y-98017629D01*
X154241783Y-98017627D01*
X154247701Y-98015908D01*
X154252433Y-98013455D01*
X154257534Y-98011915D01*
X154270088Y-98005240D01*
X154339625Y-97968268D01*
X154340791Y-97967656D01*
X154417818Y-97927728D01*
X154423291Y-97924891D01*
X154427454Y-97921568D01*
X154432161Y-97919065D01*
X154504283Y-97860244D01*
X154505139Y-97859553D01*
X154544338Y-97828261D01*
X154546842Y-97825757D01*
X154547560Y-97825115D01*
X154551893Y-97821414D01*
X154585427Y-97794064D01*
X154590148Y-97788358D01*
X154614652Y-97758737D01*
X154622642Y-97749957D01*
X155618889Y-96753709D01*
X155629032Y-96744607D01*
X155653728Y-96724751D01*
X155658535Y-96720886D01*
X155690830Y-96682398D01*
X155693988Y-96678779D01*
X155695634Y-96676964D01*
X155697819Y-96674779D01*
X155699774Y-96672399D01*
X155699783Y-96672389D01*
X155725059Y-96641618D01*
X155725901Y-96640603D01*
X155773898Y-96583402D01*
X155785664Y-96569380D01*
X155788233Y-96564706D01*
X155791612Y-96560593D01*
X155795893Y-96552610D01*
X155815854Y-96515381D01*
X155835485Y-96478769D01*
X155836094Y-96477647D01*
X155877974Y-96401468D01*
X155877975Y-96401466D01*
X155880943Y-96396067D01*
X155882555Y-96390985D01*
X155885072Y-96386291D01*
X155912272Y-96297323D01*
X155912618Y-96296212D01*
X155917611Y-96280475D01*
X155940745Y-96207548D01*
X155941339Y-96202252D01*
X155942897Y-96197156D01*
X155952300Y-96104597D01*
X155952421Y-96103461D01*
X155958010Y-96053627D01*
X155958010Y-96050100D01*
X155958065Y-96049115D01*
X155958512Y-96043435D01*
X155962884Y-96000392D01*
X155958569Y-95954745D01*
X155958010Y-95942887D01*
X155958010Y-91195000D01*
X156916502Y-91195000D01*
X156936457Y-91423087D01*
X156937881Y-91428400D01*
X156937881Y-91428402D01*
X156984904Y-91603891D01*
X156995716Y-91644243D01*
X156998039Y-91649224D01*
X156998039Y-91649225D01*
X157090151Y-91846762D01*
X157090154Y-91846767D01*
X157092477Y-91851749D01*
X157223802Y-92039300D01*
X157385700Y-92201198D01*
X157390208Y-92204355D01*
X157390211Y-92204357D01*
X157430409Y-92232504D01*
X157573251Y-92332523D01*
X157578233Y-92334846D01*
X157578238Y-92334849D01*
X157613049Y-92351081D01*
X157666334Y-92397998D01*
X157685795Y-92466275D01*
X157665253Y-92534235D01*
X157613049Y-92579471D01*
X157578489Y-92595586D01*
X157568993Y-92601069D01*
X157390533Y-92726028D01*
X157382125Y-92733084D01*
X157228084Y-92887125D01*
X157221028Y-92895533D01*
X157096069Y-93073993D01*
X157090586Y-93083489D01*
X156998510Y-93280947D01*
X156994764Y-93291239D01*
X156948606Y-93463503D01*
X156948942Y-93477599D01*
X156956884Y-93481000D01*
X159497967Y-93481000D01*
X159511498Y-93477027D01*
X159512727Y-93468478D01*
X159465236Y-93291239D01*
X159461490Y-93280947D01*
X159369414Y-93083489D01*
X159363931Y-93073993D01*
X159238972Y-92895533D01*
X159231916Y-92887125D01*
X159077875Y-92733084D01*
X159069467Y-92726028D01*
X158891007Y-92601069D01*
X158881511Y-92595586D01*
X158846951Y-92579471D01*
X158793666Y-92532554D01*
X158774205Y-92464277D01*
X158794747Y-92396317D01*
X158846951Y-92351081D01*
X158879161Y-92336062D01*
X164886493Y-92336062D01*
X164895789Y-92348077D01*
X164946994Y-92383931D01*
X164956489Y-92389414D01*
X165153947Y-92481490D01*
X165164239Y-92485236D01*
X165374688Y-92541625D01*
X165385481Y-92543528D01*
X165602525Y-92562517D01*
X165613475Y-92562517D01*
X165830519Y-92543528D01*
X165841312Y-92541625D01*
X166051761Y-92485236D01*
X166062053Y-92481490D01*
X166259511Y-92389414D01*
X166269006Y-92383931D01*
X166321048Y-92347491D01*
X166329424Y-92337012D01*
X166322356Y-92323566D01*
X165620812Y-91622022D01*
X165606868Y-91614408D01*
X165605035Y-91614539D01*
X165598420Y-91618790D01*
X164892923Y-92324287D01*
X164886493Y-92336062D01*
X158879161Y-92336062D01*
X158881762Y-92334849D01*
X158881767Y-92334846D01*
X158886749Y-92332523D01*
X159029591Y-92232504D01*
X159069789Y-92204357D01*
X159069792Y-92204355D01*
X159074300Y-92201198D01*
X159236198Y-92039300D01*
X159367523Y-91851749D01*
X159369846Y-91846767D01*
X159369849Y-91846762D01*
X159461961Y-91649225D01*
X159461961Y-91649224D01*
X159464284Y-91644243D01*
X159475097Y-91603891D01*
X159522119Y-91428402D01*
X159522119Y-91428400D01*
X159523543Y-91423087D01*
X159538207Y-91255475D01*
X164295483Y-91255475D01*
X164314472Y-91472519D01*
X164316375Y-91483312D01*
X164372764Y-91693761D01*
X164376510Y-91704053D01*
X164468586Y-91901511D01*
X164474069Y-91911006D01*
X164510509Y-91963048D01*
X164520988Y-91971424D01*
X164534434Y-91964356D01*
X165235978Y-91262812D01*
X165242356Y-91251132D01*
X165972408Y-91251132D01*
X165972539Y-91252965D01*
X165976790Y-91259580D01*
X166682287Y-91965077D01*
X166694062Y-91971507D01*
X166706077Y-91962211D01*
X166741931Y-91911006D01*
X166747414Y-91901511D01*
X166839490Y-91704053D01*
X166843236Y-91693761D01*
X166899625Y-91483312D01*
X166901528Y-91472519D01*
X166920517Y-91255475D01*
X166920517Y-91244525D01*
X166901528Y-91027481D01*
X166899625Y-91016688D01*
X166843236Y-90806239D01*
X166839490Y-90795947D01*
X166747414Y-90598489D01*
X166741931Y-90588994D01*
X166705491Y-90536952D01*
X166695012Y-90528576D01*
X166681566Y-90535644D01*
X165980022Y-91237188D01*
X165972408Y-91251132D01*
X165242356Y-91251132D01*
X165243592Y-91248868D01*
X165243461Y-91247035D01*
X165239210Y-91240420D01*
X164533713Y-90534923D01*
X164521938Y-90528493D01*
X164509923Y-90537789D01*
X164474069Y-90588994D01*
X164468586Y-90598489D01*
X164376510Y-90795947D01*
X164372764Y-90806239D01*
X164316375Y-91016688D01*
X164314472Y-91027481D01*
X164295483Y-91244525D01*
X164295483Y-91255475D01*
X159538207Y-91255475D01*
X159543498Y-91195000D01*
X159523543Y-90966913D01*
X159515830Y-90938128D01*
X159465707Y-90751067D01*
X159465706Y-90751065D01*
X159464284Y-90745757D01*
X159438493Y-90690448D01*
X159369849Y-90543238D01*
X159369846Y-90543233D01*
X159367523Y-90538251D01*
X159236198Y-90350700D01*
X159074300Y-90188802D01*
X159069792Y-90185645D01*
X159069789Y-90185643D01*
X159037434Y-90162988D01*
X164886576Y-90162988D01*
X164893644Y-90176434D01*
X165595188Y-90877978D01*
X165609132Y-90885592D01*
X165610965Y-90885461D01*
X165617580Y-90881210D01*
X166323077Y-90175713D01*
X166329507Y-90163938D01*
X166320211Y-90151923D01*
X166269006Y-90116069D01*
X166259511Y-90110586D01*
X166062053Y-90018510D01*
X166051761Y-90014764D01*
X165841312Y-89958375D01*
X165830519Y-89956472D01*
X165613475Y-89937483D01*
X165602525Y-89937483D01*
X165385481Y-89956472D01*
X165374688Y-89958375D01*
X165164239Y-90014764D01*
X165153947Y-90018510D01*
X164956489Y-90110586D01*
X164946994Y-90116069D01*
X164894952Y-90152509D01*
X164886576Y-90162988D01*
X159037434Y-90162988D01*
X158970427Y-90116069D01*
X158886749Y-90057477D01*
X158881767Y-90055154D01*
X158881762Y-90055151D01*
X158847543Y-90039195D01*
X158794258Y-89992278D01*
X158774797Y-89924001D01*
X158795339Y-89856041D01*
X158847543Y-89810805D01*
X158881762Y-89794849D01*
X158881767Y-89794846D01*
X158886749Y-89792523D01*
X159006188Y-89708891D01*
X159069789Y-89664357D01*
X159069792Y-89664355D01*
X159074300Y-89661198D01*
X159236198Y-89499300D01*
X159367523Y-89311749D01*
X159369846Y-89306767D01*
X159369849Y-89306762D01*
X159461961Y-89109225D01*
X159461961Y-89109224D01*
X159464284Y-89104243D01*
X159481199Y-89041118D01*
X159522119Y-88888402D01*
X159522119Y-88888400D01*
X159523543Y-88883087D01*
X159543498Y-88655000D01*
X159523543Y-88426913D01*
X159518993Y-88409932D01*
X159465707Y-88211067D01*
X159465706Y-88211065D01*
X159464284Y-88205757D01*
X159433490Y-88139718D01*
X159369849Y-88003238D01*
X159369846Y-88003233D01*
X159367523Y-87998251D01*
X159236198Y-87810700D01*
X159074300Y-87648802D01*
X159069792Y-87645645D01*
X159069789Y-87645643D01*
X158938726Y-87553872D01*
X158886749Y-87517477D01*
X158881767Y-87515154D01*
X158881762Y-87515151D01*
X158684225Y-87423039D01*
X158684224Y-87423039D01*
X158679243Y-87420716D01*
X158673935Y-87419294D01*
X158673933Y-87419293D01*
X158463402Y-87362881D01*
X158463400Y-87362881D01*
X158458087Y-87361457D01*
X158273080Y-87345271D01*
X160370494Y-87345271D01*
X160384545Y-87559640D01*
X160437426Y-87767859D01*
X160527366Y-87962954D01*
X160651353Y-88138392D01*
X160805236Y-88288298D01*
X160810032Y-88291503D01*
X160810035Y-88291505D01*
X160979055Y-88404440D01*
X160979060Y-88404443D01*
X160983860Y-88407650D01*
X160989169Y-88409931D01*
X160989171Y-88409932D01*
X161175932Y-88490172D01*
X161175936Y-88490173D01*
X161181242Y-88492453D01*
X161186874Y-88493727D01*
X161186876Y-88493728D01*
X161385137Y-88538590D01*
X161385142Y-88538591D01*
X161390774Y-88539865D01*
X161396545Y-88540092D01*
X161396547Y-88540092D01*
X161462614Y-88542688D01*
X161605438Y-88548299D01*
X161730168Y-88530214D01*
X161812321Y-88518303D01*
X161812325Y-88518302D01*
X161818043Y-88517473D01*
X161823515Y-88515615D01*
X161823517Y-88515615D01*
X162016007Y-88450273D01*
X162016009Y-88450272D01*
X162021471Y-88448418D01*
X162208909Y-88343448D01*
X162271364Y-88291505D01*
X162369640Y-88209769D01*
X162374078Y-88206078D01*
X162511448Y-88040909D01*
X162616418Y-87853471D01*
X162631079Y-87810283D01*
X162683615Y-87655517D01*
X162683615Y-87655515D01*
X162685473Y-87650043D01*
X162693082Y-87597568D01*
X162703383Y-87526518D01*
X162716299Y-87437438D01*
X162717908Y-87376000D01*
X162698251Y-87162072D01*
X162691918Y-87139615D01*
X162671384Y-87066809D01*
X162639938Y-86955309D01*
X162629191Y-86933515D01*
X162547475Y-86767814D01*
X162544921Y-86762635D01*
X162416384Y-86590502D01*
X162385858Y-86562284D01*
X162262870Y-86448595D01*
X162262867Y-86448593D01*
X162258630Y-86444676D01*
X162076943Y-86330040D01*
X161877408Y-86250434D01*
X161871748Y-86249308D01*
X161871744Y-86249307D01*
X161672374Y-86209650D01*
X161672371Y-86209650D01*
X161666707Y-86208523D01*
X161660932Y-86208447D01*
X161660928Y-86208447D01*
X161553255Y-86207038D01*
X161451896Y-86205711D01*
X161446199Y-86206690D01*
X161446198Y-86206690D01*
X161245867Y-86241113D01*
X161240170Y-86242092D01*
X161038620Y-86316448D01*
X160853994Y-86426288D01*
X160849654Y-86430094D01*
X160849650Y-86430097D01*
X160789892Y-86482504D01*
X160692477Y-86567935D01*
X160688902Y-86572470D01*
X160688901Y-86572471D01*
X160681618Y-86581709D01*
X160559478Y-86736644D01*
X160556789Y-86741755D01*
X160556787Y-86741758D01*
X160520422Y-86810877D01*
X160459450Y-86926765D01*
X160395745Y-87131931D01*
X160370494Y-87345271D01*
X158273080Y-87345271D01*
X158230000Y-87341502D01*
X158001913Y-87361457D01*
X157996600Y-87362881D01*
X157996598Y-87362881D01*
X157786067Y-87419293D01*
X157786065Y-87419294D01*
X157780757Y-87420716D01*
X157775776Y-87423039D01*
X157775775Y-87423039D01*
X157578238Y-87515151D01*
X157578233Y-87515154D01*
X157573251Y-87517477D01*
X157521274Y-87553872D01*
X157390211Y-87645643D01*
X157390208Y-87645645D01*
X157385700Y-87648802D01*
X157223802Y-87810700D01*
X157092477Y-87998251D01*
X157090154Y-88003233D01*
X157090151Y-88003238D01*
X157026510Y-88139718D01*
X156995716Y-88205757D01*
X156994294Y-88211065D01*
X156994293Y-88211067D01*
X156941007Y-88409932D01*
X156936457Y-88426913D01*
X156916502Y-88655000D01*
X156936457Y-88883087D01*
X156937881Y-88888400D01*
X156937881Y-88888402D01*
X156978802Y-89041118D01*
X156995716Y-89104243D01*
X156998039Y-89109224D01*
X156998039Y-89109225D01*
X157090151Y-89306762D01*
X157090154Y-89306767D01*
X157092477Y-89311749D01*
X157223802Y-89499300D01*
X157385700Y-89661198D01*
X157390208Y-89664355D01*
X157390211Y-89664357D01*
X157453812Y-89708891D01*
X157573251Y-89792523D01*
X157578233Y-89794846D01*
X157578238Y-89794849D01*
X157612457Y-89810805D01*
X157665742Y-89857722D01*
X157685203Y-89925999D01*
X157664661Y-89993959D01*
X157612457Y-90039195D01*
X157578238Y-90055151D01*
X157578233Y-90055154D01*
X157573251Y-90057477D01*
X157489573Y-90116069D01*
X157390211Y-90185643D01*
X157390208Y-90185645D01*
X157385700Y-90188802D01*
X157223802Y-90350700D01*
X157092477Y-90538251D01*
X157090154Y-90543233D01*
X157090151Y-90543238D01*
X157021507Y-90690448D01*
X156995716Y-90745757D01*
X156994294Y-90751065D01*
X156994293Y-90751067D01*
X156944170Y-90938128D01*
X156936457Y-90966913D01*
X156916502Y-91195000D01*
X155958010Y-91195000D01*
X155958010Y-87371694D01*
X155958747Y-87358087D01*
X155962169Y-87326589D01*
X155962169Y-87326584D01*
X155962834Y-87320463D01*
X155958460Y-87270461D01*
X155958131Y-87265636D01*
X155958010Y-87263165D01*
X155958010Y-87260083D01*
X155953819Y-87217341D01*
X155953697Y-87216026D01*
X155949871Y-87172299D01*
X155945597Y-87123439D01*
X155944110Y-87118320D01*
X155943590Y-87113019D01*
X155916728Y-87024046D01*
X155916372Y-87022846D01*
X155907007Y-86990612D01*
X155890419Y-86933515D01*
X155887965Y-86928781D01*
X155886426Y-86923683D01*
X155882078Y-86915505D01*
X155842826Y-86841683D01*
X155842212Y-86840515D01*
X155802236Y-86763393D01*
X155802235Y-86763392D01*
X155799402Y-86757926D01*
X155796079Y-86753763D01*
X155793576Y-86749056D01*
X155734755Y-86676934D01*
X155734064Y-86676078D01*
X155702772Y-86636879D01*
X155700268Y-86634375D01*
X155699626Y-86633657D01*
X155695925Y-86629324D01*
X155668575Y-86595790D01*
X155657450Y-86586586D01*
X155633248Y-86566565D01*
X155624468Y-86558575D01*
X153652972Y-84587080D01*
X153643870Y-84576937D01*
X153624014Y-84552241D01*
X153620149Y-84547434D01*
X153581695Y-84515167D01*
X153578048Y-84511987D01*
X153576236Y-84510344D01*
X153574042Y-84508150D01*
X153540768Y-84480817D01*
X153539970Y-84480155D01*
X153468643Y-84420305D01*
X153463973Y-84417737D01*
X153459856Y-84414356D01*
X153378031Y-84370482D01*
X153376872Y-84369853D01*
X153300736Y-84327997D01*
X153300728Y-84327994D01*
X153295330Y-84325026D01*
X153290248Y-84323414D01*
X153285554Y-84320897D01*
X153196586Y-84293697D01*
X153195558Y-84293377D01*
X153106811Y-84265224D01*
X153101515Y-84264630D01*
X153096419Y-84263072D01*
X153003860Y-84253669D01*
X153002724Y-84253548D01*
X152969109Y-84249778D01*
X152956387Y-84248351D01*
X152956383Y-84248351D01*
X152952890Y-84247959D01*
X152949363Y-84247959D01*
X152948378Y-84247904D01*
X152942698Y-84247457D01*
X152910317Y-84244168D01*
X152905780Y-84243707D01*
X152905778Y-84243707D01*
X152899655Y-84243085D01*
X152857376Y-84247082D01*
X152854008Y-84247400D01*
X152842150Y-84247959D01*
X148118681Y-84247959D01*
X148050560Y-84227957D01*
X148008774Y-84179733D01*
X164737822Y-84179733D01*
X164737975Y-84184121D01*
X164737975Y-84184127D01*
X164747451Y-84455469D01*
X164747625Y-84460458D01*
X164748387Y-84464781D01*
X164748388Y-84464788D01*
X164772164Y-84599624D01*
X164796402Y-84737087D01*
X164883203Y-85004235D01*
X164885131Y-85008188D01*
X164885133Y-85008193D01*
X164940313Y-85121328D01*
X165006340Y-85256702D01*
X165008795Y-85260341D01*
X165008798Y-85260347D01*
X165079899Y-85365758D01*
X165163415Y-85489576D01*
X165351371Y-85698322D01*
X165566550Y-85878879D01*
X165804764Y-86027731D01*
X166061375Y-86141982D01*
X166065603Y-86143194D01*
X166065602Y-86143194D01*
X166293168Y-86208447D01*
X166331390Y-86219407D01*
X166335740Y-86220018D01*
X166335743Y-86220019D01*
X166438690Y-86234487D01*
X166609552Y-86258500D01*
X166820146Y-86258500D01*
X166822332Y-86258347D01*
X166822336Y-86258347D01*
X167025827Y-86244118D01*
X167025832Y-86244117D01*
X167030212Y-86243811D01*
X167304970Y-86185409D01*
X167309099Y-86183906D01*
X167309103Y-86183905D01*
X167564781Y-86090846D01*
X167564785Y-86090844D01*
X167568926Y-86089337D01*
X167816942Y-85957464D01*
X167820503Y-85954877D01*
X168040629Y-85794947D01*
X168040632Y-85794944D01*
X168044192Y-85792358D01*
X168050702Y-85786072D01*
X168243087Y-85600287D01*
X168246252Y-85597231D01*
X168419188Y-85375882D01*
X168421384Y-85372078D01*
X168421389Y-85372071D01*
X168557435Y-85136431D01*
X168559636Y-85132619D01*
X168664862Y-84872176D01*
X168675450Y-84829711D01*
X168731753Y-84603893D01*
X168731754Y-84603888D01*
X168732817Y-84599624D01*
X168734136Y-84587080D01*
X168761719Y-84324636D01*
X168761719Y-84324633D01*
X168762178Y-84320267D01*
X168762025Y-84315873D01*
X168752529Y-84043939D01*
X168752528Y-84043933D01*
X168752375Y-84039542D01*
X168750663Y-84029829D01*
X168716653Y-83836954D01*
X168703598Y-83762913D01*
X168616797Y-83495765D01*
X168606571Y-83474797D01*
X168526894Y-83311438D01*
X168493660Y-83243298D01*
X168491205Y-83239659D01*
X168491202Y-83239653D01*
X168403325Y-83109370D01*
X168336585Y-83010424D01*
X168332540Y-83005931D01*
X168236900Y-82899713D01*
X168148629Y-82801678D01*
X167933450Y-82621121D01*
X167695236Y-82472269D01*
X167499683Y-82385203D01*
X167442639Y-82359805D01*
X167442637Y-82359804D01*
X167438625Y-82358018D01*
X167168610Y-82280593D01*
X167164260Y-82279982D01*
X167164257Y-82279981D01*
X167061310Y-82265513D01*
X166890448Y-82241500D01*
X166679854Y-82241500D01*
X166677668Y-82241653D01*
X166677664Y-82241653D01*
X166474173Y-82255882D01*
X166474168Y-82255883D01*
X166469788Y-82256189D01*
X166195030Y-82314591D01*
X166190901Y-82316094D01*
X166190897Y-82316095D01*
X165935219Y-82409154D01*
X165935215Y-82409156D01*
X165931074Y-82410663D01*
X165683058Y-82542536D01*
X165679499Y-82545122D01*
X165679497Y-82545123D01*
X165471009Y-82696598D01*
X165455808Y-82707642D01*
X165452644Y-82710698D01*
X165452641Y-82710700D01*
X165364674Y-82795649D01*
X165253748Y-82902769D01*
X165169639Y-83010424D01*
X165086901Y-83116325D01*
X165080812Y-83124118D01*
X165078616Y-83127922D01*
X165078611Y-83127929D01*
X164964794Y-83325067D01*
X164940364Y-83367381D01*
X164835138Y-83627824D01*
X164834073Y-83632097D01*
X164834072Y-83632099D01*
X164784304Y-83831709D01*
X164767183Y-83900376D01*
X164766724Y-83904744D01*
X164766723Y-83904749D01*
X164739690Y-84161961D01*
X164737822Y-84179733D01*
X148008774Y-84179733D01*
X148004067Y-84174301D01*
X147993963Y-84104027D01*
X148023457Y-84039447D01*
X148046410Y-84018746D01*
X148159789Y-83939357D01*
X148159792Y-83939355D01*
X148164300Y-83936198D01*
X148326198Y-83774300D01*
X148331145Y-83767236D01*
X148418934Y-83641859D01*
X148457523Y-83586749D01*
X148459846Y-83581767D01*
X148459849Y-83581762D01*
X148551961Y-83384225D01*
X148551961Y-83384224D01*
X148554284Y-83379243D01*
X148557463Y-83367381D01*
X148612119Y-83163402D01*
X148612119Y-83163400D01*
X148613543Y-83158087D01*
X148633498Y-82930000D01*
X148613543Y-82701913D01*
X148598157Y-82644491D01*
X148555707Y-82486067D01*
X148555706Y-82486065D01*
X148554284Y-82480757D01*
X148549494Y-82470484D01*
X148459849Y-82278238D01*
X148459846Y-82278233D01*
X148457523Y-82273251D01*
X148360517Y-82134712D01*
X148329357Y-82090211D01*
X148329355Y-82090208D01*
X148326198Y-82085700D01*
X148164300Y-81923802D01*
X148159792Y-81920645D01*
X148159789Y-81920643D01*
X147983758Y-81797385D01*
X147976749Y-81792477D01*
X147971764Y-81790153D01*
X147971758Y-81790149D01*
X147881786Y-81748195D01*
X147828500Y-81701278D01*
X147809039Y-81633001D01*
X147829581Y-81565041D01*
X147883603Y-81518975D01*
X147935035Y-81508000D01*
X166972012Y-81508000D01*
X166991397Y-81509500D01*
X167006198Y-81511805D01*
X167006201Y-81511805D01*
X167015070Y-81513186D01*
X167032239Y-81510941D01*
X167056179Y-81510108D01*
X167314110Y-81525710D01*
X167329214Y-81527544D01*
X167399988Y-81540514D01*
X167610219Y-81579040D01*
X167624981Y-81582678D01*
X167897748Y-81667675D01*
X167911967Y-81673069D01*
X168172480Y-81790316D01*
X168185949Y-81797385D01*
X168430435Y-81945182D01*
X168442957Y-81953825D01*
X168667847Y-82130016D01*
X168679235Y-82140106D01*
X168881234Y-82342105D01*
X168891324Y-82353493D01*
X169067515Y-82578383D01*
X169076158Y-82590905D01*
X169223955Y-82835391D01*
X169231024Y-82848860D01*
X169303738Y-83010424D01*
X169348270Y-83109370D01*
X169353665Y-83123592D01*
X169434882Y-83384225D01*
X169438661Y-83396353D01*
X169442300Y-83411121D01*
X169462994Y-83524043D01*
X169493796Y-83692126D01*
X169495630Y-83707230D01*
X169510795Y-83957929D01*
X169509538Y-83984639D01*
X169509535Y-83984859D01*
X169508154Y-83993730D01*
X169509794Y-84006270D01*
X169512292Y-84025371D01*
X169513356Y-84041664D01*
X169513731Y-85072595D01*
X169527321Y-122441084D01*
X169525821Y-122460511D01*
X169524000Y-122472214D01*
X169522154Y-122484070D01*
X169524399Y-122501237D01*
X169525232Y-122525179D01*
X169509630Y-122783110D01*
X169507796Y-122798214D01*
X169504101Y-122818376D01*
X169457540Y-123072460D01*
X169456302Y-123079213D01*
X169452662Y-123093981D01*
X169380337Y-123326081D01*
X169367666Y-123366744D01*
X169362271Y-123380967D01*
X169263564Y-123600287D01*
X169245026Y-123641476D01*
X169237955Y-123654949D01*
X169090158Y-123899435D01*
X169081515Y-123911957D01*
X168905324Y-124136847D01*
X168895234Y-124148235D01*
X168693235Y-124350234D01*
X168681847Y-124360324D01*
X168456957Y-124536515D01*
X168444435Y-124545158D01*
X168199949Y-124692955D01*
X168186480Y-124700024D01*
X167977705Y-124793986D01*
X167925970Y-124817270D01*
X167911748Y-124822665D01*
X167638981Y-124907662D01*
X167624219Y-124911300D01*
X167439332Y-124945182D01*
X167343214Y-124962796D01*
X167328110Y-124964630D01*
X167077411Y-124979795D01*
X167050701Y-124978538D01*
X167050481Y-124978535D01*
X167041610Y-124977154D01*
X167032709Y-124978318D01*
X167032705Y-124978318D01*
X167010288Y-124981250D01*
X166993873Y-124982314D01*
X120542109Y-124953691D01*
X120522802Y-124952191D01*
X120507802Y-124949855D01*
X120507799Y-124949855D01*
X120498930Y-124948474D01*
X120481761Y-124950719D01*
X120457821Y-124951552D01*
X120199890Y-124935950D01*
X120184786Y-124934116D01*
X120060292Y-124911302D01*
X119903781Y-124882620D01*
X119889019Y-124878982D01*
X119616252Y-124793985D01*
X119602030Y-124788590D01*
X119446243Y-124718476D01*
X119341520Y-124671344D01*
X119328051Y-124664275D01*
X119083565Y-124516478D01*
X119071043Y-124507835D01*
X118846153Y-124331644D01*
X118834765Y-124321554D01*
X118632766Y-124119555D01*
X118622676Y-124108167D01*
X118446485Y-123883277D01*
X118437842Y-123870755D01*
X118290045Y-123626269D01*
X118282974Y-123612796D01*
X118274409Y-123593764D01*
X118165729Y-123352287D01*
X118160334Y-123338064D01*
X118075338Y-123065301D01*
X118071698Y-123050533D01*
X118066384Y-123021531D01*
X118020204Y-122769534D01*
X118018370Y-122754430D01*
X118003205Y-122503731D01*
X118004462Y-122477021D01*
X118004465Y-122476801D01*
X118005846Y-122467930D01*
X118001708Y-122436289D01*
X118000644Y-122419996D01*
X118000557Y-122179733D01*
X118737822Y-122179733D01*
X118737975Y-122184121D01*
X118737975Y-122184127D01*
X118747290Y-122450857D01*
X118747625Y-122460458D01*
X118748387Y-122464781D01*
X118748388Y-122464788D01*
X118772164Y-122599624D01*
X118796402Y-122737087D01*
X118883203Y-123004235D01*
X118885131Y-123008188D01*
X118885133Y-123008193D01*
X118912990Y-123065307D01*
X119006340Y-123256702D01*
X119008795Y-123260341D01*
X119008798Y-123260347D01*
X119070815Y-123352290D01*
X119163415Y-123489576D01*
X119351371Y-123698322D01*
X119566550Y-123878879D01*
X119804764Y-124027731D01*
X119938484Y-124087267D01*
X120049842Y-124136847D01*
X120061375Y-124141982D01*
X120331390Y-124219407D01*
X120335740Y-124220018D01*
X120335743Y-124220019D01*
X120438690Y-124234487D01*
X120609552Y-124258500D01*
X120820146Y-124258500D01*
X120822332Y-124258347D01*
X120822336Y-124258347D01*
X121025827Y-124244118D01*
X121025832Y-124244117D01*
X121030212Y-124243811D01*
X121304970Y-124185409D01*
X121309099Y-124183906D01*
X121309103Y-124183905D01*
X121564781Y-124090846D01*
X121564785Y-124090844D01*
X121568926Y-124089337D01*
X121816942Y-123957464D01*
X121820503Y-123954877D01*
X122040629Y-123794947D01*
X122040632Y-123794944D01*
X122044192Y-123792358D01*
X122246252Y-123597231D01*
X122419188Y-123375882D01*
X122421384Y-123372078D01*
X122421389Y-123372071D01*
X122557435Y-123136431D01*
X122559636Y-123132619D01*
X122605891Y-123018134D01*
X124011500Y-123018134D01*
X124018255Y-123080316D01*
X124069385Y-123216705D01*
X124156739Y-123333261D01*
X124273295Y-123420615D01*
X124409684Y-123471745D01*
X124471866Y-123478500D01*
X126768134Y-123478500D01*
X126830316Y-123471745D01*
X126966705Y-123420615D01*
X127083261Y-123333261D01*
X127170615Y-123216705D01*
X127221745Y-123080316D01*
X127228500Y-123018134D01*
X127228500Y-121870000D01*
X131626526Y-121870000D01*
X131646391Y-122122403D01*
X131647545Y-122127210D01*
X131647546Y-122127216D01*
X131661209Y-122184127D01*
X131705495Y-122368591D01*
X131707388Y-122373162D01*
X131707389Y-122373164D01*
X131799749Y-122596140D01*
X131802384Y-122602502D01*
X131934672Y-122818376D01*
X132099102Y-123010898D01*
X132291624Y-123175328D01*
X132507498Y-123307616D01*
X132512068Y-123309509D01*
X132512072Y-123309511D01*
X132680672Y-123379347D01*
X132741409Y-123404505D01*
X132808513Y-123420615D01*
X132982784Y-123462454D01*
X132982790Y-123462455D01*
X132987597Y-123463609D01*
X133240000Y-123483474D01*
X133492403Y-123463609D01*
X133497210Y-123462455D01*
X133497216Y-123462454D01*
X133671487Y-123420615D01*
X133738591Y-123404505D01*
X133799328Y-123379347D01*
X133967928Y-123309511D01*
X133967932Y-123309509D01*
X133972502Y-123307616D01*
X134188376Y-123175328D01*
X134380898Y-123010898D01*
X134545328Y-122818376D01*
X134677616Y-122602502D01*
X134679511Y-122597928D01*
X134681757Y-122593519D01*
X134683300Y-122594305D01*
X134723137Y-122544869D01*
X134790500Y-122522446D01*
X134859292Y-122540003D01*
X134907671Y-122591964D01*
X134909578Y-122596140D01*
X134910489Y-122597928D01*
X134912384Y-122602502D01*
X135044672Y-122818376D01*
X135209102Y-123010898D01*
X135401624Y-123175328D01*
X135617498Y-123307616D01*
X135622068Y-123309509D01*
X135622072Y-123309511D01*
X135790672Y-123379347D01*
X135851409Y-123404505D01*
X135918513Y-123420615D01*
X136092784Y-123462454D01*
X136092790Y-123462455D01*
X136097597Y-123463609D01*
X136350000Y-123483474D01*
X136602403Y-123463609D01*
X136607210Y-123462455D01*
X136607216Y-123462454D01*
X136781487Y-123420615D01*
X136848591Y-123404505D01*
X136909328Y-123379347D01*
X137077928Y-123309511D01*
X137077932Y-123309509D01*
X137082502Y-123307616D01*
X137298376Y-123175328D01*
X137482426Y-123018134D01*
X142361500Y-123018134D01*
X142368255Y-123080316D01*
X142419385Y-123216705D01*
X142506739Y-123333261D01*
X142623295Y-123420615D01*
X142759684Y-123471745D01*
X142821866Y-123478500D01*
X145118134Y-123478500D01*
X145180316Y-123471745D01*
X145316705Y-123420615D01*
X145433261Y-123333261D01*
X145520615Y-123216705D01*
X145571745Y-123080316D01*
X145578500Y-123018134D01*
X145578500Y-122179733D01*
X164737822Y-122179733D01*
X164737975Y-122184121D01*
X164737975Y-122184127D01*
X164747290Y-122450857D01*
X164747625Y-122460458D01*
X164748387Y-122464781D01*
X164748388Y-122464788D01*
X164772164Y-122599624D01*
X164796402Y-122737087D01*
X164883203Y-123004235D01*
X164885131Y-123008188D01*
X164885133Y-123008193D01*
X164912990Y-123065307D01*
X165006340Y-123256702D01*
X165008795Y-123260341D01*
X165008798Y-123260347D01*
X165070815Y-123352290D01*
X165163415Y-123489576D01*
X165351371Y-123698322D01*
X165566550Y-123878879D01*
X165804764Y-124027731D01*
X165938484Y-124087267D01*
X166049842Y-124136847D01*
X166061375Y-124141982D01*
X166331390Y-124219407D01*
X166335740Y-124220018D01*
X166335743Y-124220019D01*
X166438690Y-124234487D01*
X166609552Y-124258500D01*
X166820146Y-124258500D01*
X166822332Y-124258347D01*
X166822336Y-124258347D01*
X167025827Y-124244118D01*
X167025832Y-124244117D01*
X167030212Y-124243811D01*
X167304970Y-124185409D01*
X167309099Y-124183906D01*
X167309103Y-124183905D01*
X167564781Y-124090846D01*
X167564785Y-124090844D01*
X167568926Y-124089337D01*
X167816942Y-123957464D01*
X167820503Y-123954877D01*
X168040629Y-123794947D01*
X168040632Y-123794944D01*
X168044192Y-123792358D01*
X168246252Y-123597231D01*
X168419188Y-123375882D01*
X168421384Y-123372078D01*
X168421389Y-123372071D01*
X168557435Y-123136431D01*
X168559636Y-123132619D01*
X168664862Y-122872176D01*
X168692323Y-122762037D01*
X168731753Y-122603893D01*
X168731754Y-122603888D01*
X168732817Y-122599624D01*
X168739084Y-122540003D01*
X168761719Y-122324636D01*
X168761719Y-122324633D01*
X168762178Y-122320267D01*
X168762025Y-122315873D01*
X168752529Y-122043939D01*
X168752528Y-122043933D01*
X168752375Y-122039542D01*
X168728608Y-121904749D01*
X168704360Y-121767236D01*
X168703598Y-121762913D01*
X168616797Y-121495765D01*
X168493660Y-121243298D01*
X168491205Y-121239659D01*
X168491202Y-121239653D01*
X168410935Y-121120653D01*
X168336585Y-121010424D01*
X168148629Y-120801678D01*
X167933450Y-120621121D01*
X167695236Y-120472269D01*
X167438625Y-120358018D01*
X167220615Y-120295505D01*
X167172837Y-120281805D01*
X167172836Y-120281805D01*
X167168610Y-120280593D01*
X167164260Y-120279982D01*
X167164257Y-120279981D01*
X167035381Y-120261869D01*
X166890448Y-120241500D01*
X166679854Y-120241500D01*
X166677668Y-120241653D01*
X166677664Y-120241653D01*
X166474173Y-120255882D01*
X166474168Y-120255883D01*
X166469788Y-120256189D01*
X166195030Y-120314591D01*
X166190901Y-120316094D01*
X166190897Y-120316095D01*
X165935219Y-120409154D01*
X165935215Y-120409156D01*
X165931074Y-120410663D01*
X165683058Y-120542536D01*
X165679499Y-120545122D01*
X165679497Y-120545123D01*
X165521817Y-120659684D01*
X165455808Y-120707642D01*
X165452644Y-120710698D01*
X165452641Y-120710700D01*
X165429696Y-120732858D01*
X165253748Y-120902769D01*
X165080812Y-121124118D01*
X165078616Y-121127922D01*
X165078611Y-121127929D01*
X164964794Y-121325067D01*
X164940364Y-121367381D01*
X164835138Y-121627824D01*
X164834073Y-121632097D01*
X164834072Y-121632099D01*
X164774757Y-121870000D01*
X164767183Y-121900376D01*
X164766724Y-121904744D01*
X164766723Y-121904749D01*
X164738281Y-122175364D01*
X164737822Y-122179733D01*
X145578500Y-122179733D01*
X145578500Y-120721866D01*
X145571745Y-120659684D01*
X145520615Y-120523295D01*
X145433261Y-120406739D01*
X145316705Y-120319385D01*
X145180316Y-120268255D01*
X145118134Y-120261500D01*
X142821866Y-120261500D01*
X142759684Y-120268255D01*
X142623295Y-120319385D01*
X142506739Y-120406739D01*
X142419385Y-120523295D01*
X142368255Y-120659684D01*
X142361500Y-120721866D01*
X142361500Y-123018134D01*
X137482426Y-123018134D01*
X137490898Y-123010898D01*
X137655328Y-122818376D01*
X137787616Y-122602502D01*
X137790252Y-122596140D01*
X137882611Y-122373164D01*
X137882612Y-122373162D01*
X137884505Y-122368591D01*
X137928791Y-122184127D01*
X137942454Y-122127216D01*
X137942455Y-122127210D01*
X137943609Y-122122403D01*
X137963474Y-121870000D01*
X137943609Y-121617597D01*
X137884505Y-121371409D01*
X137829930Y-121239653D01*
X137789511Y-121142072D01*
X137789509Y-121142068D01*
X137787616Y-121137498D01*
X137655328Y-120921624D01*
X137490898Y-120729102D01*
X137298376Y-120564672D01*
X137082502Y-120432384D01*
X137077932Y-120430491D01*
X137077928Y-120430489D01*
X136853164Y-120337389D01*
X136853162Y-120337388D01*
X136848591Y-120335495D01*
X136757716Y-120313678D01*
X136607216Y-120277546D01*
X136607210Y-120277545D01*
X136602403Y-120276391D01*
X136350000Y-120256526D01*
X136097597Y-120276391D01*
X136092790Y-120277545D01*
X136092784Y-120277546D01*
X135942284Y-120313678D01*
X135851409Y-120335495D01*
X135846838Y-120337388D01*
X135846836Y-120337389D01*
X135622072Y-120430489D01*
X135622068Y-120430491D01*
X135617498Y-120432384D01*
X135401624Y-120564672D01*
X135209102Y-120729102D01*
X135044672Y-120921624D01*
X134912384Y-121137498D01*
X134910489Y-121142072D01*
X134908243Y-121146481D01*
X134906700Y-121145695D01*
X134866863Y-121195131D01*
X134799500Y-121217554D01*
X134730708Y-121199997D01*
X134682329Y-121148036D01*
X134680422Y-121143860D01*
X134679509Y-121142069D01*
X134677616Y-121137498D01*
X134545328Y-120921624D01*
X134380898Y-120729102D01*
X134188376Y-120564672D01*
X133972502Y-120432384D01*
X133967932Y-120430491D01*
X133967928Y-120430489D01*
X133743164Y-120337389D01*
X133743162Y-120337388D01*
X133738591Y-120335495D01*
X133647716Y-120313678D01*
X133497216Y-120277546D01*
X133497210Y-120277545D01*
X133492403Y-120276391D01*
X133240000Y-120256526D01*
X132987597Y-120276391D01*
X132982790Y-120277545D01*
X132982784Y-120277546D01*
X132832284Y-120313678D01*
X132741409Y-120335495D01*
X132736838Y-120337388D01*
X132736836Y-120337389D01*
X132512072Y-120430489D01*
X132512068Y-120430491D01*
X132507498Y-120432384D01*
X132291624Y-120564672D01*
X132099102Y-120729102D01*
X131934672Y-120921624D01*
X131802384Y-121137498D01*
X131800491Y-121142068D01*
X131800489Y-121142072D01*
X131760070Y-121239653D01*
X131705495Y-121371409D01*
X131646391Y-121617597D01*
X131626526Y-121870000D01*
X127228500Y-121870000D01*
X127228500Y-120721866D01*
X127221745Y-120659684D01*
X127170615Y-120523295D01*
X127083261Y-120406739D01*
X126966705Y-120319385D01*
X126830316Y-120268255D01*
X126768134Y-120261500D01*
X124471866Y-120261500D01*
X124409684Y-120268255D01*
X124273295Y-120319385D01*
X124156739Y-120406739D01*
X124069385Y-120523295D01*
X124018255Y-120659684D01*
X124011500Y-120721866D01*
X124011500Y-123018134D01*
X122605891Y-123018134D01*
X122664862Y-122872176D01*
X122692323Y-122762037D01*
X122731753Y-122603893D01*
X122731754Y-122603888D01*
X122732817Y-122599624D01*
X122739084Y-122540003D01*
X122761719Y-122324636D01*
X122761719Y-122324633D01*
X122762178Y-122320267D01*
X122762025Y-122315873D01*
X122752529Y-122043939D01*
X122752528Y-122043933D01*
X122752375Y-122039542D01*
X122728608Y-121904749D01*
X122704360Y-121767236D01*
X122703598Y-121762913D01*
X122616797Y-121495765D01*
X122493660Y-121243298D01*
X122491205Y-121239659D01*
X122491202Y-121239653D01*
X122410935Y-121120653D01*
X122336585Y-121010424D01*
X122148629Y-120801678D01*
X121933450Y-120621121D01*
X121695236Y-120472269D01*
X121438625Y-120358018D01*
X121220615Y-120295505D01*
X121172837Y-120281805D01*
X121172836Y-120281805D01*
X121168610Y-120280593D01*
X121164260Y-120279982D01*
X121164257Y-120279981D01*
X121035381Y-120261869D01*
X120890448Y-120241500D01*
X120679854Y-120241500D01*
X120677668Y-120241653D01*
X120677664Y-120241653D01*
X120474173Y-120255882D01*
X120474168Y-120255883D01*
X120469788Y-120256189D01*
X120195030Y-120314591D01*
X120190901Y-120316094D01*
X120190897Y-120316095D01*
X119935219Y-120409154D01*
X119935215Y-120409156D01*
X119931074Y-120410663D01*
X119683058Y-120542536D01*
X119679499Y-120545122D01*
X119679497Y-120545123D01*
X119521817Y-120659684D01*
X119455808Y-120707642D01*
X119452644Y-120710698D01*
X119452641Y-120710700D01*
X119429696Y-120732858D01*
X119253748Y-120902769D01*
X119080812Y-121124118D01*
X119078616Y-121127922D01*
X119078611Y-121127929D01*
X118964794Y-121325067D01*
X118940364Y-121367381D01*
X118835138Y-121627824D01*
X118834073Y-121632097D01*
X118834072Y-121632099D01*
X118774757Y-121870000D01*
X118767183Y-121900376D01*
X118766724Y-121904744D01*
X118766723Y-121904749D01*
X118738281Y-122175364D01*
X118737822Y-122179733D01*
X118000557Y-122179733D01*
X117999527Y-119349271D01*
X150210494Y-119349271D01*
X150224545Y-119563640D01*
X150277426Y-119771859D01*
X150367366Y-119966954D01*
X150491353Y-120142392D01*
X150495487Y-120146419D01*
X150634465Y-120281805D01*
X150645236Y-120292298D01*
X150650032Y-120295503D01*
X150650035Y-120295505D01*
X150819055Y-120408440D01*
X150819060Y-120408443D01*
X150823860Y-120411650D01*
X150829169Y-120413931D01*
X150829171Y-120413932D01*
X151015932Y-120494172D01*
X151015936Y-120494173D01*
X151021242Y-120496453D01*
X151026874Y-120497727D01*
X151026876Y-120497728D01*
X151225137Y-120542590D01*
X151225142Y-120542591D01*
X151230774Y-120543865D01*
X151236545Y-120544092D01*
X151236547Y-120544092D01*
X151302614Y-120546688D01*
X151445438Y-120552299D01*
X151570168Y-120534214D01*
X151652321Y-120522303D01*
X151652325Y-120522302D01*
X151658043Y-120521473D01*
X151663515Y-120519615D01*
X151663517Y-120519615D01*
X151856007Y-120454273D01*
X151856009Y-120454272D01*
X151861471Y-120452418D01*
X152048909Y-120347448D01*
X152111364Y-120295505D01*
X152157764Y-120256914D01*
X152214078Y-120210078D01*
X152351448Y-120044909D01*
X152456418Y-119857471D01*
X152483699Y-119777106D01*
X152523615Y-119659517D01*
X152523615Y-119659515D01*
X152525473Y-119654043D01*
X152537769Y-119569242D01*
X152555766Y-119445112D01*
X152556299Y-119441438D01*
X152557908Y-119380000D01*
X152538251Y-119166072D01*
X152531369Y-119141668D01*
X152513304Y-119077616D01*
X152479938Y-118959309D01*
X152473044Y-118945328D01*
X152387475Y-118771814D01*
X152384921Y-118766635D01*
X152256384Y-118594502D01*
X152249757Y-118588376D01*
X152102870Y-118452595D01*
X152102867Y-118452593D01*
X152098630Y-118448676D01*
X151916943Y-118334040D01*
X151717408Y-118254434D01*
X151711748Y-118253308D01*
X151711744Y-118253307D01*
X151512374Y-118213650D01*
X151512371Y-118213650D01*
X151506707Y-118212523D01*
X151500932Y-118212447D01*
X151500928Y-118212447D01*
X151393255Y-118211038D01*
X151291896Y-118209711D01*
X151286199Y-118210690D01*
X151286198Y-118210690D01*
X151275973Y-118212447D01*
X151080170Y-118246092D01*
X150878620Y-118320448D01*
X150693994Y-118430288D01*
X150689654Y-118434094D01*
X150689650Y-118434097D01*
X150536818Y-118568128D01*
X150532477Y-118571935D01*
X150399478Y-118740644D01*
X150396789Y-118745755D01*
X150396787Y-118745758D01*
X150372726Y-118791490D01*
X150299450Y-118930765D01*
X150235745Y-119135931D01*
X150210494Y-119349271D01*
X117999527Y-119349271D01*
X117998905Y-117640000D01*
X124006526Y-117640000D01*
X124026391Y-117892403D01*
X124027545Y-117897210D01*
X124027546Y-117897216D01*
X124028182Y-117899865D01*
X124085495Y-118138591D01*
X124087388Y-118143162D01*
X124087389Y-118143164D01*
X124167729Y-118337121D01*
X124182384Y-118372502D01*
X124314672Y-118588376D01*
X124479102Y-118780898D01*
X124671624Y-118945328D01*
X124887498Y-119077616D01*
X124892068Y-119079509D01*
X124892072Y-119079511D01*
X125116836Y-119172611D01*
X125121409Y-119174505D01*
X125206032Y-119194821D01*
X125362784Y-119232454D01*
X125362790Y-119232455D01*
X125367597Y-119233609D01*
X125620000Y-119253474D01*
X125872403Y-119233609D01*
X125877210Y-119232455D01*
X125877216Y-119232454D01*
X126033968Y-119194821D01*
X126118591Y-119174505D01*
X126123164Y-119172611D01*
X126347928Y-119079511D01*
X126347932Y-119079509D01*
X126352502Y-119077616D01*
X126568376Y-118945328D01*
X126756483Y-118784669D01*
X131632001Y-118784669D01*
X131632371Y-118791490D01*
X131637895Y-118842352D01*
X131641521Y-118857604D01*
X131686676Y-118978054D01*
X131695214Y-118993649D01*
X131771715Y-119095724D01*
X131784276Y-119108285D01*
X131886351Y-119184786D01*
X131901946Y-119193324D01*
X132022394Y-119238478D01*
X132037649Y-119242105D01*
X132088514Y-119247631D01*
X132095328Y-119248000D01*
X132967885Y-119248000D01*
X132983124Y-119243525D01*
X132984329Y-119242135D01*
X132986000Y-119234452D01*
X132986000Y-119229884D01*
X133494000Y-119229884D01*
X133498475Y-119245123D01*
X133499865Y-119246328D01*
X133507548Y-119247999D01*
X134384669Y-119247999D01*
X134391490Y-119247629D01*
X134442352Y-119242105D01*
X134457604Y-119238479D01*
X134578054Y-119193324D01*
X134593649Y-119184786D01*
X134695724Y-119108285D01*
X134705905Y-119098104D01*
X134768217Y-119064078D01*
X134839032Y-119069143D01*
X134884095Y-119098104D01*
X134894276Y-119108285D01*
X134996351Y-119184786D01*
X135011946Y-119193324D01*
X135132394Y-119238478D01*
X135147649Y-119242105D01*
X135198514Y-119247631D01*
X135205328Y-119248000D01*
X136077885Y-119248000D01*
X136093124Y-119243525D01*
X136094329Y-119242135D01*
X136096000Y-119234452D01*
X136096000Y-119229884D01*
X136604000Y-119229884D01*
X136608475Y-119245123D01*
X136609865Y-119246328D01*
X136617548Y-119247999D01*
X137494669Y-119247999D01*
X137501490Y-119247629D01*
X137552352Y-119242105D01*
X137567604Y-119238479D01*
X137688054Y-119193324D01*
X137703649Y-119184786D01*
X137805724Y-119108285D01*
X137818285Y-119095724D01*
X137894786Y-118993649D01*
X137903324Y-118978054D01*
X137948478Y-118857606D01*
X137952105Y-118842351D01*
X137957631Y-118791486D01*
X137958000Y-118784672D01*
X137958000Y-117912115D01*
X137953525Y-117896876D01*
X137952135Y-117895671D01*
X137944452Y-117894000D01*
X136622115Y-117894000D01*
X136606876Y-117898475D01*
X136605671Y-117899865D01*
X136604000Y-117907548D01*
X136604000Y-119229884D01*
X136096000Y-119229884D01*
X136096000Y-117912115D01*
X136091525Y-117896876D01*
X136090135Y-117895671D01*
X136082452Y-117894000D01*
X133512115Y-117894000D01*
X133496876Y-117898475D01*
X133495671Y-117899865D01*
X133494000Y-117907548D01*
X133494000Y-119229884D01*
X132986000Y-119229884D01*
X132986000Y-117912115D01*
X132981525Y-117896876D01*
X132980135Y-117895671D01*
X132972452Y-117894000D01*
X131650116Y-117894000D01*
X131634877Y-117898475D01*
X131633672Y-117899865D01*
X131632001Y-117907548D01*
X131632001Y-118784669D01*
X126756483Y-118784669D01*
X126760898Y-118780898D01*
X126925328Y-118588376D01*
X127057616Y-118372502D01*
X127072272Y-118337121D01*
X127152611Y-118143164D01*
X127152612Y-118143162D01*
X127154505Y-118138591D01*
X127211818Y-117899865D01*
X127212454Y-117897216D01*
X127212455Y-117897210D01*
X127213609Y-117892403D01*
X127233474Y-117640000D01*
X127213609Y-117387597D01*
X127212152Y-117381525D01*
X127208877Y-117367885D01*
X131632000Y-117367885D01*
X131636475Y-117383124D01*
X131637865Y-117384329D01*
X131645548Y-117386000D01*
X132967885Y-117386000D01*
X132983124Y-117381525D01*
X132984329Y-117380135D01*
X132986000Y-117372452D01*
X132986000Y-117367885D01*
X133494000Y-117367885D01*
X133498475Y-117383124D01*
X133499865Y-117384329D01*
X133507548Y-117386000D01*
X136077885Y-117386000D01*
X136093124Y-117381525D01*
X136094329Y-117380135D01*
X136096000Y-117372452D01*
X136096000Y-117367885D01*
X136604000Y-117367885D01*
X136608475Y-117383124D01*
X136609865Y-117384329D01*
X136617548Y-117386000D01*
X137939884Y-117386000D01*
X137955123Y-117381525D01*
X137956328Y-117380135D01*
X137957999Y-117372452D01*
X137957999Y-116495331D01*
X137957629Y-116488510D01*
X137952105Y-116437648D01*
X137948479Y-116422396D01*
X137903324Y-116301946D01*
X137894786Y-116286351D01*
X137818285Y-116184276D01*
X137805724Y-116171715D01*
X137703649Y-116095214D01*
X137688054Y-116086676D01*
X137567606Y-116041522D01*
X137552351Y-116037895D01*
X137501486Y-116032369D01*
X137494672Y-116032000D01*
X136622115Y-116032000D01*
X136606876Y-116036475D01*
X136605671Y-116037865D01*
X136604000Y-116045548D01*
X136604000Y-117367885D01*
X136096000Y-117367885D01*
X136096000Y-116050116D01*
X136091525Y-116034877D01*
X136090135Y-116033672D01*
X136082452Y-116032001D01*
X135205331Y-116032001D01*
X135198510Y-116032371D01*
X135147648Y-116037895D01*
X135132396Y-116041521D01*
X135011946Y-116086676D01*
X134996351Y-116095214D01*
X134894276Y-116171715D01*
X134884095Y-116181896D01*
X134821783Y-116215922D01*
X134750968Y-116210857D01*
X134705905Y-116181896D01*
X134695724Y-116171715D01*
X134593649Y-116095214D01*
X134578054Y-116086676D01*
X134457606Y-116041522D01*
X134442351Y-116037895D01*
X134391486Y-116032369D01*
X134384672Y-116032000D01*
X133512115Y-116032000D01*
X133496876Y-116036475D01*
X133495671Y-116037865D01*
X133494000Y-116045548D01*
X133494000Y-117367885D01*
X132986000Y-117367885D01*
X132986000Y-116050116D01*
X132981525Y-116034877D01*
X132980135Y-116033672D01*
X132972452Y-116032001D01*
X132095331Y-116032001D01*
X132088510Y-116032371D01*
X132037648Y-116037895D01*
X132022396Y-116041521D01*
X131901946Y-116086676D01*
X131886351Y-116095214D01*
X131784276Y-116171715D01*
X131771715Y-116184276D01*
X131695214Y-116286351D01*
X131686676Y-116301946D01*
X131641522Y-116422394D01*
X131637895Y-116437649D01*
X131632369Y-116488514D01*
X131632000Y-116495328D01*
X131632000Y-117367885D01*
X127208877Y-117367885D01*
X127155660Y-117146221D01*
X127154505Y-117141409D01*
X127152611Y-117136836D01*
X127059511Y-116912072D01*
X127059509Y-116912068D01*
X127057616Y-116907498D01*
X126925328Y-116691624D01*
X126760898Y-116499102D01*
X126568376Y-116334672D01*
X126352502Y-116202384D01*
X126347932Y-116200491D01*
X126347928Y-116200489D01*
X126123164Y-116107389D01*
X126123162Y-116107388D01*
X126118591Y-116105495D01*
X126020331Y-116081905D01*
X125877216Y-116047546D01*
X125877210Y-116047545D01*
X125872403Y-116046391D01*
X125620000Y-116026526D01*
X125367597Y-116046391D01*
X125362790Y-116047545D01*
X125362784Y-116047546D01*
X125219669Y-116081905D01*
X125121409Y-116105495D01*
X125116838Y-116107388D01*
X125116836Y-116107389D01*
X124892072Y-116200489D01*
X124892068Y-116200491D01*
X124887498Y-116202384D01*
X124671624Y-116334672D01*
X124479102Y-116499102D01*
X124314672Y-116691624D01*
X124182384Y-116907498D01*
X124180491Y-116912068D01*
X124180489Y-116912072D01*
X124087389Y-117136836D01*
X124085495Y-117141409D01*
X124084340Y-117146221D01*
X124027849Y-117381525D01*
X124026391Y-117387597D01*
X124006526Y-117640000D01*
X117998905Y-117640000D01*
X117997968Y-115064843D01*
X134429517Y-115064843D01*
X134439399Y-115077332D01*
X134485295Y-115107999D01*
X134495405Y-115113489D01*
X134682091Y-115193695D01*
X134693034Y-115197250D01*
X134891203Y-115242092D01*
X134902613Y-115243594D01*
X135105643Y-115251571D01*
X135117125Y-115250969D01*
X135318212Y-115221814D01*
X135329395Y-115219129D01*
X135521795Y-115153818D01*
X135532310Y-115149136D01*
X135662409Y-115076277D01*
X135672273Y-115066200D01*
X135669318Y-115058528D01*
X135062812Y-114452022D01*
X135048868Y-114444408D01*
X135047035Y-114444539D01*
X135040420Y-114448790D01*
X134435713Y-115053497D01*
X134429517Y-115064843D01*
X117997968Y-115064843D01*
X117997600Y-114055050D01*
X133877374Y-114055050D01*
X133890663Y-114257793D01*
X133892464Y-114269163D01*
X133942477Y-114466091D01*
X133946318Y-114476938D01*
X134031382Y-114661455D01*
X134037138Y-114671424D01*
X134052448Y-114693088D01*
X134063039Y-114701479D01*
X134076339Y-114694451D01*
X134677978Y-114092812D01*
X134684356Y-114081132D01*
X135414408Y-114081132D01*
X135414539Y-114082965D01*
X135418790Y-114089580D01*
X136024613Y-114695403D01*
X136036993Y-114702163D01*
X136043573Y-114697237D01*
X136119136Y-114562310D01*
X136123818Y-114551795D01*
X136189129Y-114359395D01*
X136191814Y-114348212D01*
X136221265Y-114145085D01*
X136221895Y-114137702D01*
X136223309Y-114083704D01*
X136223066Y-114076305D01*
X136220582Y-114049271D01*
X136726494Y-114049271D01*
X136740545Y-114263640D01*
X136793426Y-114471859D01*
X136883366Y-114666954D01*
X137007353Y-114842392D01*
X137161236Y-114992298D01*
X137166032Y-114995503D01*
X137166035Y-114995505D01*
X137335055Y-115108440D01*
X137335060Y-115108443D01*
X137339860Y-115111650D01*
X137345169Y-115113931D01*
X137345171Y-115113932D01*
X137531932Y-115194172D01*
X137531936Y-115194173D01*
X137537242Y-115196453D01*
X137542874Y-115197727D01*
X137542876Y-115197728D01*
X137741137Y-115242590D01*
X137741142Y-115242591D01*
X137746774Y-115243865D01*
X137752545Y-115244092D01*
X137752547Y-115244092D01*
X137818614Y-115246688D01*
X137961438Y-115252299D01*
X138086168Y-115234214D01*
X138168321Y-115222303D01*
X138168325Y-115222302D01*
X138174043Y-115221473D01*
X138179515Y-115219615D01*
X138179517Y-115219615D01*
X138372007Y-115154273D01*
X138372009Y-115154272D01*
X138377471Y-115152418D01*
X138564909Y-115047448D01*
X138627364Y-114995505D01*
X138725640Y-114913769D01*
X138730078Y-114910078D01*
X138751825Y-114883931D01*
X138810761Y-114844347D01*
X138848698Y-114838500D01*
X140043629Y-114838500D01*
X140111750Y-114858502D01*
X140132724Y-114875405D01*
X142378481Y-117121162D01*
X142412507Y-117183474D01*
X142411905Y-117239671D01*
X142377849Y-117381525D01*
X142376391Y-117387597D01*
X142356526Y-117640000D01*
X142376391Y-117892403D01*
X142377545Y-117897210D01*
X142377546Y-117897216D01*
X142378182Y-117899865D01*
X142435495Y-118138591D01*
X142437388Y-118143162D01*
X142437389Y-118143164D01*
X142517729Y-118337121D01*
X142532384Y-118372502D01*
X142664672Y-118588376D01*
X142829102Y-118780898D01*
X143021624Y-118945328D01*
X143237498Y-119077616D01*
X143242068Y-119079509D01*
X143242072Y-119079511D01*
X143466836Y-119172611D01*
X143471409Y-119174505D01*
X143556032Y-119194821D01*
X143712784Y-119232454D01*
X143712790Y-119232455D01*
X143717597Y-119233609D01*
X143970000Y-119253474D01*
X144222403Y-119233609D01*
X144227210Y-119232455D01*
X144227216Y-119232454D01*
X144383968Y-119194821D01*
X144468591Y-119174505D01*
X144473164Y-119172611D01*
X144697928Y-119079511D01*
X144697932Y-119079509D01*
X144702502Y-119077616D01*
X144918376Y-118945328D01*
X145110898Y-118780898D01*
X145275328Y-118588376D01*
X145407616Y-118372502D01*
X145422272Y-118337121D01*
X145502611Y-118143164D01*
X145502612Y-118143162D01*
X145504505Y-118138591D01*
X145561818Y-117899865D01*
X145562454Y-117897216D01*
X145562455Y-117897210D01*
X145563609Y-117892403D01*
X145583474Y-117640000D01*
X145563609Y-117387597D01*
X145562152Y-117381525D01*
X145505660Y-117146221D01*
X145504505Y-117141409D01*
X145502611Y-117136836D01*
X145409511Y-116912072D01*
X145409509Y-116912068D01*
X145407616Y-116907498D01*
X145275328Y-116691624D01*
X145110898Y-116499102D01*
X144918376Y-116334672D01*
X144702502Y-116202384D01*
X144697932Y-116200491D01*
X144697928Y-116200489D01*
X144473164Y-116107389D01*
X144473162Y-116107388D01*
X144468591Y-116105495D01*
X144370331Y-116081905D01*
X144227216Y-116047546D01*
X144227210Y-116047545D01*
X144222403Y-116046391D01*
X143970000Y-116026526D01*
X143717597Y-116046391D01*
X143712790Y-116047545D01*
X143712784Y-116047546D01*
X143633340Y-116066619D01*
X143569670Y-116081905D01*
X143498763Y-116078358D01*
X143451162Y-116048481D01*
X143195952Y-115793271D01*
X150116494Y-115793271D01*
X150130545Y-116007640D01*
X150183426Y-116215859D01*
X150273366Y-116410954D01*
X150397353Y-116586392D01*
X150551236Y-116736298D01*
X150556032Y-116739503D01*
X150556035Y-116739505D01*
X150725055Y-116852440D01*
X150725060Y-116852443D01*
X150729860Y-116855650D01*
X150735169Y-116857931D01*
X150735171Y-116857932D01*
X150921932Y-116938172D01*
X150921936Y-116938173D01*
X150927242Y-116940453D01*
X150932874Y-116941727D01*
X150932876Y-116941728D01*
X151131137Y-116986590D01*
X151131142Y-116986591D01*
X151136774Y-116987865D01*
X151142545Y-116988092D01*
X151142547Y-116988092D01*
X151208614Y-116990688D01*
X151351438Y-116996299D01*
X151484708Y-116976976D01*
X151558321Y-116966303D01*
X151558325Y-116966302D01*
X151564043Y-116965473D01*
X151569515Y-116963615D01*
X151569517Y-116963615D01*
X151762007Y-116898273D01*
X151762009Y-116898272D01*
X151767471Y-116896418D01*
X151954909Y-116791448D01*
X152017364Y-116739505D01*
X152115640Y-116657769D01*
X152120078Y-116654078D01*
X152257448Y-116488909D01*
X152362418Y-116301471D01*
X152389699Y-116221106D01*
X152429615Y-116103517D01*
X152429615Y-116103515D01*
X152431473Y-116098043D01*
X152432319Y-116092212D01*
X152461766Y-115889112D01*
X152462299Y-115885438D01*
X152463908Y-115824000D01*
X152444251Y-115610072D01*
X152437369Y-115585668D01*
X152401774Y-115459461D01*
X152385938Y-115403309D01*
X152374676Y-115380471D01*
X152293475Y-115215814D01*
X152290921Y-115210635D01*
X152162384Y-115038502D01*
X152112401Y-114992298D01*
X152008870Y-114896595D01*
X152008867Y-114896593D01*
X152004630Y-114892676D01*
X151822943Y-114778040D01*
X151623408Y-114698434D01*
X151617748Y-114697308D01*
X151617744Y-114697307D01*
X151418374Y-114657650D01*
X151418371Y-114657650D01*
X151412707Y-114656523D01*
X151406932Y-114656447D01*
X151406928Y-114656447D01*
X151299255Y-114655038D01*
X151197896Y-114653711D01*
X151192199Y-114654690D01*
X151192198Y-114654690D01*
X151093380Y-114671670D01*
X150986170Y-114690092D01*
X150784620Y-114764448D01*
X150599994Y-114874288D01*
X150595654Y-114878094D01*
X150595650Y-114878097D01*
X150470022Y-114988271D01*
X150438477Y-115015935D01*
X150434902Y-115020470D01*
X150434901Y-115020471D01*
X150401720Y-115062562D01*
X150305478Y-115184644D01*
X150302789Y-115189755D01*
X150302787Y-115189758D01*
X150270319Y-115251470D01*
X150205450Y-115374765D01*
X150141745Y-115579931D01*
X150116494Y-115793271D01*
X143195952Y-115793271D01*
X140993770Y-113591089D01*
X140981384Y-113576677D01*
X140972851Y-113565082D01*
X140972846Y-113565077D01*
X140968508Y-113559182D01*
X140962930Y-113554443D01*
X140962927Y-113554440D01*
X140928232Y-113524965D01*
X140920716Y-113518035D01*
X140915021Y-113512340D01*
X140908880Y-113507482D01*
X140892749Y-113494719D01*
X140889345Y-113491928D01*
X140839297Y-113449409D01*
X140839295Y-113449408D01*
X140833715Y-113444667D01*
X140827199Y-113441339D01*
X140822150Y-113437972D01*
X140817021Y-113434805D01*
X140811284Y-113430266D01*
X140745125Y-113399345D01*
X140741225Y-113397439D01*
X140676192Y-113364231D01*
X140669084Y-113362492D01*
X140663441Y-113360393D01*
X140657678Y-113358476D01*
X140651050Y-113355378D01*
X140579583Y-113340513D01*
X140575299Y-113339543D01*
X140504390Y-113322192D01*
X140498788Y-113321844D01*
X140498785Y-113321844D01*
X140493236Y-113321500D01*
X140493238Y-113321464D01*
X140489245Y-113321225D01*
X140485053Y-113320851D01*
X140477885Y-113319360D01*
X140411675Y-113321151D01*
X140400479Y-113321454D01*
X140397072Y-113321500D01*
X138850906Y-113321500D01*
X138782785Y-113301498D01*
X138765377Y-113288025D01*
X138618870Y-113152595D01*
X138618867Y-113152593D01*
X138614630Y-113148676D01*
X138432943Y-113034040D01*
X138233408Y-112954434D01*
X138227748Y-112953308D01*
X138227744Y-112953307D01*
X138028374Y-112913650D01*
X138028371Y-112913650D01*
X138022707Y-112912523D01*
X138016932Y-112912447D01*
X138016928Y-112912447D01*
X137909255Y-112911038D01*
X137807896Y-112909711D01*
X137802199Y-112910690D01*
X137802198Y-112910690D01*
X137647063Y-112937347D01*
X137596170Y-112946092D01*
X137394620Y-113020448D01*
X137209994Y-113130288D01*
X137205654Y-113134094D01*
X137205650Y-113134097D01*
X137094291Y-113231757D01*
X137048477Y-113271935D01*
X136915478Y-113440644D01*
X136912789Y-113445755D01*
X136912787Y-113445758D01*
X136878956Y-113510060D01*
X136815450Y-113630765D01*
X136751745Y-113835931D01*
X136726494Y-114049271D01*
X136220582Y-114049271D01*
X136204286Y-113871921D01*
X136202188Y-113860600D01*
X136147038Y-113665053D01*
X136142913Y-113654306D01*
X136053048Y-113472078D01*
X136048538Y-113464719D01*
X136038027Y-113456830D01*
X136025608Y-113463602D01*
X135422022Y-114067188D01*
X135414408Y-114081132D01*
X134684356Y-114081132D01*
X134685592Y-114078868D01*
X134685461Y-114077035D01*
X134681210Y-114070420D01*
X134073818Y-113463028D01*
X134061438Y-113456268D01*
X134055472Y-113460734D01*
X133968603Y-113625847D01*
X133964202Y-113636471D01*
X133903949Y-113830518D01*
X133901557Y-113841772D01*
X133877675Y-114043549D01*
X133877374Y-114055050D01*
X117997600Y-114055050D01*
X117997250Y-113094607D01*
X134428719Y-113094607D01*
X134432206Y-113102996D01*
X135037188Y-113707978D01*
X135051132Y-113715592D01*
X135052965Y-113715461D01*
X135059580Y-113711210D01*
X135664073Y-113106717D01*
X135670833Y-113094337D01*
X135664803Y-113086282D01*
X135587595Y-113037567D01*
X135577352Y-113032348D01*
X135388628Y-112957055D01*
X135377601Y-112953788D01*
X135178321Y-112914149D01*
X135166875Y-112912946D01*
X134963718Y-112910287D01*
X134952238Y-112911190D01*
X134751997Y-112945598D01*
X134740877Y-112948578D01*
X134550252Y-113018903D01*
X134539874Y-113023853D01*
X134438317Y-113084274D01*
X134428719Y-113094607D01*
X117997250Y-113094607D01*
X117996352Y-110626134D01*
X119037500Y-110626134D01*
X119044255Y-110688316D01*
X119095385Y-110824705D01*
X119182739Y-110941261D01*
X119299295Y-111028615D01*
X119435684Y-111079745D01*
X119497866Y-111086500D01*
X121294134Y-111086500D01*
X121356316Y-111079745D01*
X121492705Y-111028615D01*
X121609261Y-110941261D01*
X121696615Y-110824705D01*
X121747745Y-110688316D01*
X121754500Y-110626134D01*
X121754500Y-108829866D01*
X121747745Y-108767684D01*
X121696615Y-108631295D01*
X121609261Y-108514739D01*
X121492705Y-108427385D01*
X121373687Y-108382767D01*
X121316923Y-108340125D01*
X121292223Y-108273564D01*
X121307430Y-108204215D01*
X121328977Y-108175535D01*
X121430052Y-108074812D01*
X121436730Y-108066965D01*
X121561003Y-107894020D01*
X121566313Y-107885183D01*
X121660670Y-107694267D01*
X121664469Y-107684672D01*
X121726377Y-107480910D01*
X121728555Y-107470837D01*
X121729986Y-107459962D01*
X121727775Y-107445778D01*
X121714617Y-107442000D01*
X119079225Y-107442000D01*
X119065694Y-107445973D01*
X119064257Y-107455966D01*
X119094565Y-107590446D01*
X119097645Y-107600275D01*
X119177770Y-107797603D01*
X119182413Y-107806794D01*
X119293694Y-107988388D01*
X119299777Y-107996699D01*
X119439213Y-108157667D01*
X119446577Y-108164879D01*
X119451522Y-108168985D01*
X119491156Y-108227889D01*
X119492653Y-108298870D01*
X119455537Y-108359392D01*
X119415264Y-108383910D01*
X119307705Y-108424232D01*
X119307704Y-108424233D01*
X119299295Y-108427385D01*
X119182739Y-108514739D01*
X119095385Y-108631295D01*
X119044255Y-108767684D01*
X119037500Y-108829866D01*
X119037500Y-110626134D01*
X117996352Y-110626134D01*
X117990653Y-94969271D01*
X125318494Y-94969271D01*
X125332545Y-95183640D01*
X125385426Y-95391859D01*
X125475366Y-95586954D01*
X125599353Y-95762392D01*
X125753236Y-95912298D01*
X125758032Y-95915503D01*
X125758035Y-95915505D01*
X125927055Y-96028440D01*
X125927060Y-96028443D01*
X125931860Y-96031650D01*
X125937169Y-96033931D01*
X125937171Y-96033932D01*
X126123932Y-96114172D01*
X126123936Y-96114173D01*
X126129242Y-96116453D01*
X126134874Y-96117727D01*
X126134876Y-96117728D01*
X126333137Y-96162590D01*
X126333142Y-96162591D01*
X126338774Y-96163865D01*
X126344545Y-96164092D01*
X126344547Y-96164092D01*
X126410614Y-96166688D01*
X126553438Y-96172299D01*
X126678168Y-96154214D01*
X126760321Y-96142303D01*
X126760325Y-96142302D01*
X126766043Y-96141473D01*
X126771515Y-96139615D01*
X126771517Y-96139615D01*
X126964007Y-96074273D01*
X126964009Y-96074272D01*
X126969471Y-96072418D01*
X127156909Y-95967448D01*
X127219364Y-95915505D01*
X127317640Y-95833769D01*
X127322078Y-95830078D01*
X127431520Y-95698489D01*
X127455757Y-95669347D01*
X127459448Y-95664909D01*
X127564418Y-95477471D01*
X127567969Y-95467012D01*
X127631615Y-95279517D01*
X127631615Y-95279515D01*
X127633473Y-95274043D01*
X127635310Y-95261379D01*
X127657348Y-95109378D01*
X127664299Y-95061438D01*
X127665908Y-95000000D01*
X127646251Y-94786072D01*
X127639369Y-94761668D01*
X127589507Y-94584874D01*
X127587938Y-94579309D01*
X127492921Y-94386635D01*
X127364384Y-94214502D01*
X127339971Y-94191935D01*
X127210870Y-94072595D01*
X127210867Y-94072593D01*
X127206630Y-94068676D01*
X127024943Y-93954040D01*
X126825408Y-93874434D01*
X126819748Y-93873308D01*
X126819744Y-93873307D01*
X126620374Y-93833650D01*
X126620371Y-93833650D01*
X126614707Y-93832523D01*
X126608932Y-93832447D01*
X126608928Y-93832447D01*
X126501255Y-93831038D01*
X126399896Y-93829711D01*
X126394199Y-93830690D01*
X126394198Y-93830690D01*
X126383973Y-93832447D01*
X126188170Y-93866092D01*
X125986620Y-93940448D01*
X125801994Y-94050288D01*
X125797654Y-94054094D01*
X125797650Y-94054097D01*
X125655499Y-94178761D01*
X125640477Y-94191935D01*
X125507478Y-94360644D01*
X125504789Y-94365755D01*
X125504787Y-94365758D01*
X125488741Y-94396257D01*
X125407450Y-94550765D01*
X125343745Y-94755931D01*
X125318494Y-94969271D01*
X117990653Y-94969271D01*
X117989470Y-91719271D01*
X125318494Y-91719271D01*
X125332545Y-91933640D01*
X125385426Y-92141859D01*
X125475366Y-92336954D01*
X125599353Y-92512392D01*
X125753236Y-92662298D01*
X125758032Y-92665503D01*
X125758035Y-92665505D01*
X125927055Y-92778440D01*
X125927060Y-92778443D01*
X125931860Y-92781650D01*
X125937169Y-92783931D01*
X125937171Y-92783932D01*
X126123932Y-92864172D01*
X126123936Y-92864173D01*
X126129242Y-92866453D01*
X126134874Y-92867727D01*
X126134876Y-92867728D01*
X126333137Y-92912590D01*
X126333142Y-92912591D01*
X126338774Y-92913865D01*
X126344545Y-92914092D01*
X126344547Y-92914092D01*
X126410614Y-92916688D01*
X126553438Y-92922299D01*
X126678168Y-92904214D01*
X126760321Y-92892303D01*
X126760325Y-92892302D01*
X126766043Y-92891473D01*
X126771515Y-92889615D01*
X126771517Y-92889615D01*
X126964007Y-92824273D01*
X126964009Y-92824272D01*
X126969471Y-92822418D01*
X127156909Y-92717448D01*
X127219364Y-92665505D01*
X127317640Y-92583769D01*
X127322078Y-92580078D01*
X127418389Y-92464277D01*
X127455757Y-92419347D01*
X127459448Y-92414909D01*
X127564418Y-92227471D01*
X127574660Y-92197301D01*
X127631615Y-92029517D01*
X127631615Y-92029515D01*
X127633473Y-92024043D01*
X127641103Y-91971424D01*
X127657529Y-91858131D01*
X127664299Y-91811438D01*
X127665908Y-91750000D01*
X127646251Y-91536072D01*
X127639369Y-91511668D01*
X127620532Y-91444879D01*
X127587938Y-91329309D01*
X127553552Y-91259580D01*
X127495475Y-91141814D01*
X127492921Y-91136635D01*
X127386361Y-90993933D01*
X127367837Y-90969126D01*
X127367836Y-90969125D01*
X127364384Y-90964502D01*
X127314957Y-90918812D01*
X127210870Y-90822595D01*
X127210867Y-90822593D01*
X127206630Y-90818676D01*
X127024943Y-90704040D01*
X126825408Y-90624434D01*
X126819748Y-90623308D01*
X126819744Y-90623307D01*
X126620374Y-90583650D01*
X126620371Y-90583650D01*
X126614707Y-90582523D01*
X126608932Y-90582447D01*
X126608928Y-90582447D01*
X126501255Y-90581038D01*
X126399896Y-90579711D01*
X126394199Y-90580690D01*
X126394198Y-90580690D01*
X126193867Y-90615113D01*
X126188170Y-90616092D01*
X125986620Y-90690448D01*
X125801994Y-90800288D01*
X125797654Y-90804094D01*
X125797650Y-90804097D01*
X125666844Y-90918812D01*
X125640477Y-90941935D01*
X125507478Y-91110644D01*
X125504789Y-91115755D01*
X125504787Y-91115758D01*
X125477853Y-91166951D01*
X125407450Y-91300765D01*
X125343745Y-91505931D01*
X125318494Y-91719271D01*
X117989470Y-91719271D01*
X117988207Y-88250000D01*
X129836496Y-88250000D01*
X129837186Y-88256565D01*
X129844969Y-88330612D01*
X129856458Y-88439928D01*
X129915473Y-88621556D01*
X130010960Y-88786944D01*
X130138747Y-88928866D01*
X130293248Y-89041118D01*
X130299276Y-89043802D01*
X130299278Y-89043803D01*
X130461681Y-89116109D01*
X130467712Y-89118794D01*
X130561112Y-89138647D01*
X130648056Y-89157128D01*
X130648061Y-89157128D01*
X130654513Y-89158500D01*
X130845487Y-89158500D01*
X130851939Y-89157128D01*
X130851944Y-89157128D01*
X130938887Y-89138647D01*
X131032288Y-89118794D01*
X131038319Y-89116109D01*
X131200722Y-89043803D01*
X131200724Y-89043802D01*
X131206752Y-89041118D01*
X131361253Y-88928866D01*
X131489040Y-88786944D01*
X131584527Y-88621556D01*
X131643542Y-88439928D01*
X131655032Y-88330612D01*
X131662814Y-88256565D01*
X131663504Y-88250000D01*
X131661139Y-88227494D01*
X131644232Y-88066635D01*
X131644232Y-88066633D01*
X131643542Y-88060072D01*
X131584527Y-87878444D01*
X131525381Y-87776000D01*
X131508500Y-87713001D01*
X131508500Y-87512425D01*
X131528502Y-87444304D01*
X131545405Y-87423330D01*
X134747257Y-84221478D01*
X134809569Y-84187452D01*
X134880384Y-84192517D01*
X134906354Y-84205808D01*
X135015055Y-84278440D01*
X135015060Y-84278443D01*
X135019860Y-84281650D01*
X135025169Y-84283931D01*
X135025171Y-84283932D01*
X135211932Y-84364172D01*
X135211936Y-84364173D01*
X135217242Y-84366453D01*
X135222874Y-84367727D01*
X135222876Y-84367728D01*
X135421137Y-84412590D01*
X135421142Y-84412591D01*
X135426774Y-84413865D01*
X135432545Y-84414092D01*
X135432547Y-84414092D01*
X135498614Y-84416688D01*
X135641438Y-84422299D01*
X135769507Y-84403730D01*
X135848321Y-84392303D01*
X135848325Y-84392302D01*
X135854043Y-84391473D01*
X135859515Y-84389615D01*
X135859517Y-84389615D01*
X136052007Y-84324273D01*
X136052009Y-84324272D01*
X136057471Y-84322418D01*
X136244909Y-84217448D01*
X136296788Y-84174301D01*
X136375098Y-84109171D01*
X136410078Y-84080078D01*
X136547448Y-83914909D01*
X136652418Y-83727471D01*
X136679699Y-83647106D01*
X136719615Y-83529517D01*
X136719615Y-83529515D01*
X136721473Y-83524043D01*
X136733769Y-83439242D01*
X136751766Y-83315112D01*
X136752299Y-83311438D01*
X136753908Y-83250000D01*
X136734251Y-83036072D01*
X136727369Y-83011668D01*
X136704336Y-82930000D01*
X136675938Y-82829309D01*
X136663921Y-82804940D01*
X136583475Y-82641814D01*
X136580921Y-82636635D01*
X136483983Y-82506818D01*
X136455837Y-82469126D01*
X136455836Y-82469125D01*
X136452384Y-82464502D01*
X136423853Y-82438128D01*
X136298870Y-82322595D01*
X136298867Y-82322593D01*
X136294630Y-82318676D01*
X136112943Y-82204040D01*
X135913408Y-82124434D01*
X135907748Y-82123308D01*
X135907744Y-82123307D01*
X135708374Y-82083650D01*
X135708371Y-82083650D01*
X135702707Y-82082523D01*
X135696932Y-82082447D01*
X135696928Y-82082447D01*
X135589255Y-82081038D01*
X135487896Y-82079711D01*
X135482199Y-82080690D01*
X135482198Y-82080690D01*
X135426789Y-82090211D01*
X135276170Y-82116092D01*
X135074620Y-82190448D01*
X134889994Y-82300288D01*
X134885654Y-82304094D01*
X134885650Y-82304097D01*
X134761775Y-82412733D01*
X134728477Y-82441935D01*
X134724908Y-82446463D01*
X134720956Y-82450627D01*
X134659556Y-82486272D01*
X134639776Y-82489480D01*
X134631785Y-82490130D01*
X134620041Y-82491085D01*
X134609831Y-82491500D01*
X134601761Y-82491500D01*
X134598141Y-82491922D01*
X134598123Y-82491923D01*
X134573515Y-82494792D01*
X134569154Y-82495224D01*
X134544035Y-82497267D01*
X134503715Y-82500546D01*
X134503712Y-82500547D01*
X134496417Y-82501140D01*
X134489453Y-82503396D01*
X134483494Y-82504587D01*
X134477639Y-82505971D01*
X134470373Y-82506818D01*
X134401727Y-82531735D01*
X134397599Y-82533152D01*
X134335118Y-82553393D01*
X134335116Y-82553394D01*
X134328155Y-82555649D01*
X134321900Y-82559445D01*
X134316426Y-82561951D01*
X134310996Y-82564670D01*
X134304117Y-82567167D01*
X134243070Y-82607191D01*
X134239381Y-82609518D01*
X134229099Y-82615758D01*
X134181747Y-82644491D01*
X134181742Y-82644495D01*
X134176946Y-82647405D01*
X134168570Y-82654803D01*
X134168547Y-82654777D01*
X134165557Y-82657426D01*
X134162318Y-82660134D01*
X134156202Y-82664144D01*
X134151175Y-82669451D01*
X134151171Y-82669454D01*
X134102926Y-82720383D01*
X134100548Y-82722825D01*
X130261089Y-86562284D01*
X130246677Y-86574670D01*
X130235082Y-86583203D01*
X130235077Y-86583208D01*
X130229182Y-86587546D01*
X130224443Y-86593124D01*
X130224440Y-86593127D01*
X130194965Y-86627822D01*
X130188035Y-86635338D01*
X130182340Y-86641033D01*
X130180060Y-86643915D01*
X130164719Y-86663305D01*
X130161928Y-86666709D01*
X130127904Y-86706758D01*
X130114667Y-86722339D01*
X130111339Y-86728855D01*
X130107972Y-86733904D01*
X130104805Y-86739033D01*
X130100266Y-86744770D01*
X130069345Y-86810929D01*
X130067442Y-86814823D01*
X130034231Y-86879862D01*
X130032492Y-86886970D01*
X130030393Y-86892613D01*
X130028476Y-86898376D01*
X130025378Y-86905004D01*
X130023888Y-86912166D01*
X130023888Y-86912167D01*
X130010514Y-86976466D01*
X130009544Y-86980750D01*
X129992192Y-87051664D01*
X129991500Y-87062818D01*
X129991464Y-87062816D01*
X129991225Y-87066809D01*
X129990851Y-87071001D01*
X129989360Y-87078169D01*
X129990665Y-87126414D01*
X129991454Y-87155575D01*
X129991500Y-87158982D01*
X129991500Y-87713001D01*
X129974619Y-87776000D01*
X129915473Y-87878444D01*
X129856458Y-88060072D01*
X129855768Y-88066633D01*
X129855768Y-88066635D01*
X129838861Y-88227494D01*
X129836496Y-88250000D01*
X117988207Y-88250000D01*
X117986726Y-84179733D01*
X118737822Y-84179733D01*
X118737975Y-84184121D01*
X118737975Y-84184127D01*
X118747451Y-84455469D01*
X118747625Y-84460458D01*
X118748387Y-84464781D01*
X118748388Y-84464788D01*
X118772164Y-84599624D01*
X118796402Y-84737087D01*
X118883203Y-85004235D01*
X118885131Y-85008188D01*
X118885133Y-85008193D01*
X118940313Y-85121328D01*
X119006340Y-85256702D01*
X119008795Y-85260341D01*
X119008798Y-85260347D01*
X119079899Y-85365758D01*
X119163415Y-85489576D01*
X119351371Y-85698322D01*
X119566550Y-85878879D01*
X119804764Y-86027731D01*
X120061375Y-86141982D01*
X120065603Y-86143194D01*
X120065602Y-86143194D01*
X120293168Y-86208447D01*
X120331390Y-86219407D01*
X120335740Y-86220018D01*
X120335743Y-86220019D01*
X120438690Y-86234487D01*
X120609552Y-86258500D01*
X120820146Y-86258500D01*
X120822332Y-86258347D01*
X120822336Y-86258347D01*
X121025827Y-86244118D01*
X121025832Y-86244117D01*
X121030212Y-86243811D01*
X121304970Y-86185409D01*
X121309099Y-86183906D01*
X121309103Y-86183905D01*
X121564781Y-86090846D01*
X121564785Y-86090844D01*
X121568926Y-86089337D01*
X121794736Y-85969271D01*
X124246494Y-85969271D01*
X124260545Y-86183640D01*
X124313426Y-86391859D01*
X124403366Y-86586954D01*
X124527353Y-86762392D01*
X124531487Y-86766419D01*
X124641249Y-86873344D01*
X124681236Y-86912298D01*
X124686032Y-86915503D01*
X124686035Y-86915505D01*
X124855055Y-87028440D01*
X124855060Y-87028443D01*
X124859860Y-87031650D01*
X124865169Y-87033931D01*
X124865171Y-87033932D01*
X125051932Y-87114172D01*
X125051936Y-87114173D01*
X125057242Y-87116453D01*
X125062874Y-87117727D01*
X125062876Y-87117728D01*
X125261137Y-87162590D01*
X125261142Y-87162591D01*
X125266774Y-87163865D01*
X125272545Y-87164092D01*
X125272547Y-87164092D01*
X125338614Y-87166688D01*
X125481438Y-87172299D01*
X125606168Y-87154214D01*
X125688321Y-87142303D01*
X125688325Y-87142302D01*
X125694043Y-87141473D01*
X125699515Y-87139615D01*
X125699517Y-87139615D01*
X125892007Y-87074273D01*
X125892009Y-87074272D01*
X125897471Y-87072418D01*
X126084909Y-86967448D01*
X126118601Y-86939427D01*
X126216656Y-86857875D01*
X126250078Y-86830078D01*
X126387448Y-86664909D01*
X126492418Y-86477471D01*
X126500184Y-86454595D01*
X126559615Y-86279517D01*
X126559615Y-86279515D01*
X126561473Y-86274043D01*
X126563816Y-86257888D01*
X126591766Y-86065112D01*
X126592299Y-86061438D01*
X126593908Y-86000000D01*
X126574251Y-85786072D01*
X126567369Y-85761668D01*
X126521854Y-85600287D01*
X126515938Y-85579309D01*
X126471687Y-85489576D01*
X126423475Y-85391814D01*
X126420921Y-85386635D01*
X126292384Y-85214502D01*
X126244837Y-85170550D01*
X126138870Y-85072595D01*
X126138867Y-85072593D01*
X126134630Y-85068676D01*
X125952943Y-84954040D01*
X125753408Y-84874434D01*
X125747748Y-84873308D01*
X125747744Y-84873307D01*
X125548374Y-84833650D01*
X125548371Y-84833650D01*
X125542707Y-84832523D01*
X125536932Y-84832447D01*
X125536928Y-84832447D01*
X125429255Y-84831038D01*
X125327896Y-84829711D01*
X125322199Y-84830690D01*
X125322198Y-84830690D01*
X125121867Y-84865113D01*
X125116170Y-84866092D01*
X124914620Y-84940448D01*
X124729994Y-85050288D01*
X124725654Y-85054094D01*
X124725650Y-85054097D01*
X124631767Y-85136431D01*
X124568477Y-85191935D01*
X124435478Y-85360644D01*
X124432789Y-85365755D01*
X124432787Y-85365758D01*
X124381979Y-85462328D01*
X124335450Y-85550765D01*
X124271745Y-85755931D01*
X124246494Y-85969271D01*
X121794736Y-85969271D01*
X121816942Y-85957464D01*
X121820503Y-85954877D01*
X122040629Y-85794947D01*
X122040632Y-85794944D01*
X122044192Y-85792358D01*
X122050702Y-85786072D01*
X122243087Y-85600287D01*
X122246252Y-85597231D01*
X122419188Y-85375882D01*
X122421384Y-85372078D01*
X122421389Y-85372071D01*
X122557435Y-85136431D01*
X122559636Y-85132619D01*
X122664862Y-84872176D01*
X122675450Y-84829711D01*
X122731753Y-84603893D01*
X122731754Y-84603888D01*
X122732817Y-84599624D01*
X122734136Y-84587080D01*
X122761719Y-84324636D01*
X122761719Y-84324633D01*
X122762178Y-84320267D01*
X122762025Y-84315873D01*
X122752529Y-84043939D01*
X122752528Y-84043933D01*
X122752375Y-84039542D01*
X122750663Y-84029829D01*
X122716653Y-83836954D01*
X122703598Y-83762913D01*
X122616797Y-83495765D01*
X122606571Y-83474797D01*
X122526894Y-83311438D01*
X122493660Y-83243298D01*
X122491205Y-83239659D01*
X122491202Y-83239653D01*
X122477454Y-83219271D01*
X124246494Y-83219271D01*
X124260545Y-83433640D01*
X124313426Y-83641859D01*
X124403366Y-83836954D01*
X124527353Y-84012392D01*
X124565195Y-84049256D01*
X124626700Y-84109171D01*
X124681236Y-84162298D01*
X124686032Y-84165503D01*
X124686035Y-84165505D01*
X124855055Y-84278440D01*
X124855060Y-84278443D01*
X124859860Y-84281650D01*
X124865169Y-84283931D01*
X124865171Y-84283932D01*
X125051932Y-84364172D01*
X125051936Y-84364173D01*
X125057242Y-84366453D01*
X125062874Y-84367727D01*
X125062876Y-84367728D01*
X125261137Y-84412590D01*
X125261142Y-84412591D01*
X125266774Y-84413865D01*
X125272545Y-84414092D01*
X125272547Y-84414092D01*
X125338614Y-84416688D01*
X125481438Y-84422299D01*
X125609507Y-84403730D01*
X125688321Y-84392303D01*
X125688325Y-84392302D01*
X125694043Y-84391473D01*
X125699515Y-84389615D01*
X125699517Y-84389615D01*
X125892007Y-84324273D01*
X125892009Y-84324272D01*
X125897471Y-84322418D01*
X126084909Y-84217448D01*
X126136788Y-84174301D01*
X126215098Y-84109171D01*
X126250078Y-84080078D01*
X126387448Y-83914909D01*
X126492418Y-83727471D01*
X126519699Y-83647106D01*
X126559615Y-83529517D01*
X126559615Y-83529515D01*
X126561473Y-83524043D01*
X126573769Y-83439242D01*
X126591766Y-83315112D01*
X126592299Y-83311438D01*
X126593908Y-83250000D01*
X126574251Y-83036072D01*
X126567369Y-83011668D01*
X126544336Y-82930000D01*
X126515938Y-82829309D01*
X126503921Y-82804940D01*
X126423475Y-82641814D01*
X126420921Y-82636635D01*
X126323983Y-82506818D01*
X126295837Y-82469126D01*
X126295836Y-82469125D01*
X126292384Y-82464502D01*
X126263853Y-82438128D01*
X126138870Y-82322595D01*
X126138867Y-82322593D01*
X126134630Y-82318676D01*
X125952943Y-82204040D01*
X125753408Y-82124434D01*
X125747748Y-82123308D01*
X125747744Y-82123307D01*
X125548374Y-82083650D01*
X125548371Y-82083650D01*
X125542707Y-82082523D01*
X125536932Y-82082447D01*
X125536928Y-82082447D01*
X125429255Y-82081038D01*
X125327896Y-82079711D01*
X125322199Y-82080690D01*
X125322198Y-82080690D01*
X125266789Y-82090211D01*
X125116170Y-82116092D01*
X124914620Y-82190448D01*
X124729994Y-82300288D01*
X124725654Y-82304094D01*
X124725650Y-82304097D01*
X124655358Y-82365742D01*
X124568477Y-82441935D01*
X124435478Y-82610644D01*
X124432789Y-82615755D01*
X124432787Y-82615758D01*
X124410362Y-82658381D01*
X124335450Y-82800765D01*
X124271745Y-83005931D01*
X124246494Y-83219271D01*
X122477454Y-83219271D01*
X122403325Y-83109370D01*
X122336585Y-83010424D01*
X122332540Y-83005931D01*
X122236900Y-82899713D01*
X122148629Y-82801678D01*
X121933450Y-82621121D01*
X121695236Y-82472269D01*
X121499683Y-82385203D01*
X121442639Y-82359805D01*
X121442637Y-82359804D01*
X121438625Y-82358018D01*
X121168610Y-82280593D01*
X121164260Y-82279982D01*
X121164257Y-82279981D01*
X121061310Y-82265513D01*
X120890448Y-82241500D01*
X120679854Y-82241500D01*
X120677668Y-82241653D01*
X120677664Y-82241653D01*
X120474173Y-82255882D01*
X120474168Y-82255883D01*
X120469788Y-82256189D01*
X120195030Y-82314591D01*
X120190901Y-82316094D01*
X120190897Y-82316095D01*
X119935219Y-82409154D01*
X119935215Y-82409156D01*
X119931074Y-82410663D01*
X119683058Y-82542536D01*
X119679499Y-82545122D01*
X119679497Y-82545123D01*
X119471009Y-82696598D01*
X119455808Y-82707642D01*
X119452644Y-82710698D01*
X119452641Y-82710700D01*
X119364674Y-82795649D01*
X119253748Y-82902769D01*
X119169639Y-83010424D01*
X119086901Y-83116325D01*
X119080812Y-83124118D01*
X119078616Y-83127922D01*
X119078611Y-83127929D01*
X118964794Y-83325067D01*
X118940364Y-83367381D01*
X118835138Y-83627824D01*
X118834073Y-83632097D01*
X118834072Y-83632099D01*
X118784304Y-83831709D01*
X118767183Y-83900376D01*
X118766724Y-83904744D01*
X118766723Y-83904749D01*
X118739690Y-84161961D01*
X118737822Y-84179733D01*
X117986726Y-84179733D01*
X117986679Y-84049256D01*
X117988179Y-84029829D01*
X117990464Y-84015148D01*
X117990464Y-84015146D01*
X117991846Y-84006270D01*
X117989601Y-83989101D01*
X117988768Y-83965161D01*
X118004370Y-83707230D01*
X118006204Y-83692126D01*
X118037006Y-83524043D01*
X118057700Y-83411121D01*
X118061339Y-83396353D01*
X118065119Y-83384225D01*
X118146335Y-83123592D01*
X118151730Y-83109370D01*
X118196262Y-83010424D01*
X118268976Y-82848860D01*
X118276045Y-82835391D01*
X118423842Y-82590905D01*
X118432485Y-82578383D01*
X118608676Y-82353493D01*
X118618766Y-82342105D01*
X118820765Y-82140106D01*
X118832153Y-82130016D01*
X119057043Y-81953825D01*
X119069565Y-81945182D01*
X119314051Y-81797385D01*
X119327520Y-81790316D01*
X119588033Y-81673069D01*
X119602252Y-81667675D01*
X119875019Y-81582678D01*
X119889781Y-81579040D01*
X120100012Y-81540514D01*
X120170786Y-81527544D01*
X120185890Y-81525710D01*
X120436589Y-81510545D01*
X120463299Y-81511802D01*
X120463519Y-81511805D01*
X120472390Y-81513186D01*
X120481292Y-81512022D01*
X120481295Y-81512022D01*
X120503911Y-81509064D01*
X120520249Y-81508000D01*
X139084965Y-81508000D01*
X139153086Y-81528002D01*
G37*
%TD.AperFunction*%
%TD*%
M02*
