%TF.GenerationSoftware,KiCad,Pcbnew,(6.0.0-0)*%
%TF.CreationDate,2022-01-05T21:11:28+01:00*%
%TF.ProjectId,218_trigger_mod,3231385f-7472-4696-9767-65725f6d6f64,rev?*%
%TF.SameCoordinates,Original*%
%TF.FileFunction,Copper,L1,Top*%
%TF.FilePolarity,Positive*%
%FSLAX46Y46*%
G04 Gerber Fmt 4.6, Leading zero omitted, Abs format (unit mm)*
G04 Created by KiCad (PCBNEW (6.0.0-0)) date 2022-01-05 21:11:28*
%MOMM*%
%LPD*%
G01*
G04 APERTURE LIST*
%TA.AperFunction,ComponentPad*%
%ADD10R,1.600000X1.600000*%
%TD*%
%TA.AperFunction,ComponentPad*%
%ADD11O,1.600000X1.600000*%
%TD*%
%TA.AperFunction,ComponentPad*%
%ADD12R,1.700000X1.700000*%
%TD*%
%TA.AperFunction,ComponentPad*%
%ADD13O,1.700000X1.700000*%
%TD*%
%TA.AperFunction,ComponentPad*%
%ADD14C,1.320800*%
%TD*%
%TA.AperFunction,ComponentPad*%
%ADD15C,1.600000*%
%TD*%
%TA.AperFunction,ComponentPad*%
%ADD16R,2.200000X2.200000*%
%TD*%
%TA.AperFunction,ComponentPad*%
%ADD17O,2.200000X2.200000*%
%TD*%
%TA.AperFunction,ViaPad*%
%ADD18C,0.800000*%
%TD*%
%TA.AperFunction,Conductor*%
%ADD19C,0.500000*%
%TD*%
%TA.AperFunction,Conductor*%
%ADD20C,1.000000*%
%TD*%
G04 APERTURE END LIST*
D10*
%TO.P,U1,1*%
%TO.N,Net-(C1-Pad1)*%
X150610000Y-88655000D03*
D11*
%TO.P,U1,2,-*%
X150610000Y-91195000D03*
%TO.P,U1,3,+*%
%TO.N,/key*%
X150610000Y-93735000D03*
%TO.P,U1,4,V+*%
%TO.N,+15V*%
X150610000Y-96275000D03*
%TO.P,U1,5,+*%
%TO.N,Net-(C1-Pad2)*%
X150610000Y-98815000D03*
%TO.P,U1,6,-*%
%TO.N,Net-(R2-Pad1)*%
X150610000Y-101355000D03*
%TO.P,U1,7*%
%TO.N,Net-(R4-Pad2)*%
X150610000Y-103895000D03*
%TO.P,U1,8*%
%TO.N,Net-(R7-Pad2)*%
X158230000Y-103895000D03*
%TO.P,U1,9,-*%
%TO.N,Net-(R6-Pad2)*%
X158230000Y-101355000D03*
%TO.P,U1,10,+*%
%TO.N,GND*%
X158230000Y-98815000D03*
%TO.P,U1,11,V-*%
%TO.N,-15V*%
X158230000Y-96275000D03*
%TO.P,U1,12,+*%
%TO.N,GND*%
X158230000Y-93735000D03*
%TO.P,U1,13,-*%
%TO.N,Net-(R10-Pad2)*%
X158230000Y-91195000D03*
%TO.P,U1,14*%
%TO.N,Net-(R12-Pad1)*%
X158230000Y-88655000D03*
%TD*%
D12*
%TO.P,J1,1,Pin_1*%
%TO.N,-15V*%
X120396000Y-109728000D03*
D13*
%TO.P,J1,2,Pin_2*%
%TO.N,GND*%
X120396000Y-107188000D03*
%TO.P,J1,3,Pin_3*%
%TO.N,+15V*%
X120396000Y-104648000D03*
%TO.P,J1,4,Pin_4*%
%TO.N,/key*%
X120396000Y-102108000D03*
%TO.P,J1,5,Pin_5*%
%TO.N,/pulse*%
X120396000Y-99568000D03*
%TO.P,J1,6,Pin_6*%
%TO.N,/out*%
X120396000Y-97028000D03*
%TD*%
D14*
%TO.P,R5,1*%
%TO.N,Net-(D2-Pad2)*%
X137900000Y-114080000D03*
%TO.P,R5,2*%
%TO.N,Net-(R4-Pad2)*%
X137900000Y-103920000D03*
%TD*%
%TO.P,R2,1*%
%TO.N,Net-(R2-Pad1)*%
X151290000Y-115824000D03*
%TO.P,R2,2*%
%TO.N,GND*%
X161450000Y-115824000D03*
%TD*%
%TO.P,R8,1*%
%TO.N,Net-(R7-Pad2)*%
X161544000Y-119380000D03*
%TO.P,R8,2*%
%TO.N,Net-(D1-Pad2)*%
X151384000Y-119380000D03*
%TD*%
%TO.P,R11,1*%
%TO.N,Net-(R10-Pad2)*%
X136652000Y-95000000D03*
%TO.P,R11,2*%
%TO.N,/out*%
X126492000Y-95000000D03*
%TD*%
%TO.P,R12,1*%
%TO.N,Net-(R12-Pad1)*%
X136652000Y-91750000D03*
%TO.P,R12,2*%
%TO.N,/out*%
X126492000Y-91750000D03*
%TD*%
D15*
%TO.P,C2,1*%
%TO.N,-15V*%
X165608000Y-96250000D03*
%TO.P,C2,2*%
%TO.N,GND*%
X165608000Y-91250000D03*
%TD*%
D14*
%TO.P,R10,1*%
%TO.N,Net-(R10-Pad1)*%
X126492000Y-98160000D03*
%TO.P,R10,2*%
%TO.N,Net-(R10-Pad2)*%
X136652000Y-98160000D03*
%TD*%
%TO.P,R6,1*%
%TO.N,Net-(R4-Pad2)*%
X151290000Y-108940000D03*
%TO.P,R6,2*%
%TO.N,Net-(R6-Pad2)*%
X161450000Y-108940000D03*
%TD*%
D10*
%TO.P,U2,1,NULL*%
%TO.N,unconnected-(U2-Pad1)*%
X139700000Y-90550000D03*
D11*
%TO.P,U2,2,-*%
%TO.N,Net-(R13-Pad1)*%
X142240000Y-90550000D03*
%TO.P,U2,3,+*%
%TO.N,GND*%
X144780000Y-90550000D03*
%TO.P,U2,4,V-*%
%TO.N,-15V*%
X147320000Y-90550000D03*
%TO.P,U2,5,NULL*%
%TO.N,unconnected-(U2-Pad5)*%
X147320000Y-82930000D03*
%TO.P,U2,6*%
%TO.N,Net-(R10-Pad1)*%
X144780000Y-82930000D03*
%TO.P,U2,7,V+*%
%TO.N,+15V*%
X142240000Y-82930000D03*
%TO.P,U2,8,NC*%
%TO.N,unconnected-(U2-Pad8)*%
X139700000Y-82930000D03*
%TD*%
D14*
%TO.P,R9,1*%
%TO.N,Net-(D3-Pad2)*%
X161544000Y-97536000D03*
%TO.P,R9,2*%
%TO.N,Net-(R10-Pad2)*%
X161544000Y-87376000D03*
%TD*%
D16*
%TO.P,D1,1,K*%
%TO.N,GND*%
X133240000Y-117640000D03*
D17*
%TO.P,D1,2,A*%
%TO.N,Net-(D1-Pad2)*%
X125620000Y-117640000D03*
%TD*%
D14*
%TO.P,R13,1*%
%TO.N,Net-(R13-Pad1)*%
X125420000Y-83250000D03*
%TO.P,R13,2*%
%TO.N,Net-(R10-Pad1)*%
X135580000Y-83250000D03*
%TD*%
D16*
%TO.P,D2,1,K*%
%TO.N,GND*%
X136350000Y-117640000D03*
D17*
%TO.P,D2,2,A*%
%TO.N,Net-(D2-Pad2)*%
X143970000Y-117640000D03*
%TD*%
D15*
%TO.P,C3,1*%
%TO.N,+15V*%
X147610000Y-96350000D03*
%TO.P,C3,2*%
%TO.N,GND*%
X142610000Y-96350000D03*
%TD*%
D16*
%TO.P,D3,1,K*%
%TO.N,Net-(D1-Pad2)*%
X125620000Y-121870000D03*
D17*
%TO.P,D3,2,A*%
%TO.N,Net-(D3-Pad2)*%
X133240000Y-121870000D03*
%TD*%
D15*
%TO.P,C1,1*%
%TO.N,Net-(C1-Pad1)*%
X131050000Y-111350000D03*
%TO.P,C1,2*%
%TO.N,Net-(C1-Pad2)*%
X131050000Y-106350000D03*
%TD*%
D14*
%TO.P,R3,1*%
%TO.N,/pulse*%
X125420000Y-86000000D03*
%TO.P,R3,2*%
%TO.N,Net-(R13-Pad1)*%
X135580000Y-86000000D03*
%TD*%
D16*
%TO.P,D4,1,K*%
%TO.N,Net-(D2-Pad2)*%
X143970000Y-121870000D03*
D17*
%TO.P,D4,2,A*%
%TO.N,Net-(D3-Pad2)*%
X136350000Y-121870000D03*
%TD*%
D14*
%TO.P,R4,1*%
%TO.N,Net-(R2-Pad1)*%
X151290000Y-112268000D03*
%TO.P,R4,2*%
%TO.N,Net-(R4-Pad2)*%
X161450000Y-112268000D03*
%TD*%
%TO.P,R1,1*%
%TO.N,Net-(C1-Pad2)*%
X135050000Y-103920000D03*
%TO.P,R1,2*%
%TO.N,GND*%
X135050000Y-114080000D03*
%TD*%
%TO.P,R7,1*%
%TO.N,Net-(R6-Pad2)*%
X165608000Y-109080000D03*
%TO.P,R7,2*%
%TO.N,Net-(R7-Pad2)*%
X165608000Y-98920000D03*
%TD*%
D18*
%TO.N,-15V*%
X153500000Y-95750000D03*
X131064000Y-96750000D03*
%TO.N,Net-(R6-Pad2)*%
X156000000Y-107250000D03*
%TO.N,Net-(R10-Pad1)*%
X130750000Y-88250000D03*
%TD*%
D19*
%TO.N,Net-(C1-Pad1)*%
X150610000Y-88655000D02*
X150610000Y-91195000D01*
D20*
%TO.N,-15V*%
X158230000Y-96275000D02*
X154025000Y-96275000D01*
X120396000Y-109728000D02*
X131064000Y-99060000D01*
X154025000Y-96275000D02*
X153500000Y-95750000D01*
X131064000Y-99060000D02*
X131064000Y-96750000D01*
D19*
%TO.N,Net-(D1-Pad2)*%
X125620000Y-117640000D02*
X125620000Y-121870000D01*
X146812000Y-123952000D02*
X151384000Y-119380000D01*
X127702000Y-123952000D02*
X146812000Y-123952000D01*
X125620000Y-121870000D02*
X127702000Y-123952000D01*
%TO.N,Net-(D2-Pad2)*%
X144000000Y-117670000D02*
X144000000Y-121840000D01*
%TO.N,Net-(D3-Pad2)*%
X161544000Y-102616000D02*
X161544000Y-97536000D01*
X152556000Y-105664000D02*
X158496000Y-105664000D01*
X136350000Y-121870000D02*
X132870000Y-121870000D01*
X158496000Y-105664000D02*
X161544000Y-102616000D01*
X136350000Y-121870000D02*
X152556000Y-105664000D01*
%TO.N,Net-(R2-Pad1)*%
X151290000Y-112268000D02*
X151290000Y-115824000D01*
%TO.N,Net-(R4-Pad2)*%
X137900000Y-103920000D02*
X140728000Y-101092000D01*
X161450000Y-112268000D02*
X157480000Y-112268000D01*
X140728000Y-101092000D02*
X147807000Y-101092000D01*
X147807000Y-101092000D02*
X150610000Y-103895000D01*
X157480000Y-112268000D02*
X154152000Y-108940000D01*
X154152000Y-108940000D02*
X151290000Y-108940000D01*
%TO.N,Net-(R6-Pad2)*%
X159350000Y-107250000D02*
X156000000Y-107250000D01*
X161040000Y-108940000D02*
X159350000Y-107250000D01*
X165528000Y-109000000D02*
X161510000Y-109000000D01*
%TO.N,Net-(R10-Pad2)*%
X161544000Y-88366000D02*
X158715000Y-91195000D01*
X156322645Y-91195000D02*
X158230000Y-91195000D01*
X136667489Y-94984511D02*
X152533134Y-94984511D01*
X136652000Y-98160000D02*
X136652000Y-95000000D01*
X152533134Y-94984511D02*
X156322645Y-91195000D01*
X161544000Y-87376000D02*
X161544000Y-88366000D01*
%TO.N,/pulse*%
X118750000Y-97922000D02*
X120396000Y-99568000D01*
X118750000Y-92670000D02*
X118750000Y-97922000D01*
X125420000Y-86000000D02*
X118750000Y-92670000D01*
%TO.N,/out*%
X124472000Y-97028000D02*
X126492000Y-95008000D01*
X126492000Y-95000000D02*
X126492000Y-91750000D01*
X120396000Y-97028000D02*
X124472000Y-97028000D01*
%TO.N,Net-(R12-Pad1)*%
X156075000Y-86500000D02*
X158230000Y-88655000D01*
X149000000Y-87500000D02*
X150000000Y-86500000D01*
X148000000Y-92000000D02*
X149000000Y-91000000D01*
X149000000Y-91000000D02*
X149000000Y-87500000D01*
X150000000Y-86500000D02*
X156075000Y-86500000D01*
X136902000Y-92000000D02*
X148000000Y-92000000D01*
%TO.N,/key*%
X124363189Y-102108000D02*
X132736189Y-93735000D01*
X120396000Y-102108000D02*
X124363189Y-102108000D01*
X132736189Y-93735000D02*
X150610000Y-93735000D01*
%TO.N,Net-(C1-Pad2)*%
X131050000Y-106350000D02*
X132620000Y-106350000D01*
X135050000Y-103710000D02*
X139945000Y-98815000D01*
X132620000Y-106350000D02*
X135050000Y-103920000D01*
X139945000Y-98815000D02*
X150610000Y-98815000D01*
%TO.N,Net-(R13-Pad1)*%
X137690000Y-86000000D02*
X135580000Y-86000000D01*
X142240000Y-90550000D02*
X137690000Y-86000000D01*
X135580000Y-86000000D02*
X128170000Y-86000000D01*
X128170000Y-86000000D02*
X125420000Y-83250000D01*
%TO.N,Net-(R10-Pad1)*%
X136830000Y-84500000D02*
X143210000Y-84500000D01*
X135580000Y-83250000D02*
X136830000Y-84500000D01*
X126492000Y-98160000D02*
X130750000Y-93902000D01*
X143210000Y-84500000D02*
X144780000Y-82930000D01*
X130750000Y-93902000D02*
X130750000Y-88250000D01*
%TD*%
M02*
