M48
; DRILL file {KiCad (6.0.0-0)} date 2022 January 05, Wednesday 21:11:31
; FORMAT={-:-/ absolute / metric / decimal}
; #@! TF.CreationDate,2022-01-05T21:11:31+01:00
; #@! TF.GenerationSoftware,Kicad,Pcbnew,(6.0.0-0)
; #@! TF.FileFunction,MixedPlating,1,2
FMAT,2
METRIC
; #@! TA.AperFunction,Plated,PTH,ViaDrill
T1C0.400
; #@! TA.AperFunction,Plated,PTH,ComponentDrill
T2C0.800
; #@! TA.AperFunction,Plated,PTH,ComponentDrill
T3C0.813
; #@! TA.AperFunction,Plated,PTH,ComponentDrill
T4C1.000
; #@! TA.AperFunction,Plated,PTH,ComponentDrill
T5C1.100
; #@! TA.AperFunction,NonPlated,NPTH,ComponentDrill
T6C3.000
%
G90
G05
T1
X130.75Y-88.25
X131.064Y-96.75
X153.5Y-95.75
X156.0Y-107.25
T2
X131.05Y-106.35
X131.05Y-111.35
X139.7Y-82.93
X139.7Y-90.55
X142.24Y-82.93
X142.24Y-90.55
X142.61Y-96.35
X144.78Y-82.93
X144.78Y-90.55
X147.32Y-82.93
X147.32Y-90.55
X147.61Y-96.35
X150.61Y-88.655
X150.61Y-91.195
X150.61Y-93.735
X150.61Y-96.275
X150.61Y-98.815
X150.61Y-101.355
X150.61Y-103.895
X158.23Y-88.655
X158.23Y-91.195
X158.23Y-93.735
X158.23Y-96.275
X158.23Y-98.815
X158.23Y-101.355
X158.23Y-103.895
X165.608Y-91.25
X165.608Y-96.25
T3
X125.42Y-83.25
X125.42Y-86.0
X126.492Y-91.75
X126.492Y-95.0
X126.492Y-98.16
X135.05Y-103.92
X135.05Y-114.08
X135.58Y-83.25
X135.58Y-86.0
X136.652Y-91.75
X136.652Y-95.0
X136.652Y-98.16
X137.9Y-103.92
X137.9Y-114.08
X151.29Y-108.94
X151.29Y-112.268
X151.29Y-115.824
X151.384Y-119.38
X161.45Y-108.94
X161.45Y-112.268
X161.45Y-115.824
X161.544Y-87.376
X161.544Y-97.536
X161.544Y-119.38
X165.608Y-98.92
X165.608Y-109.08
T4
X120.396Y-97.028
X120.396Y-99.568
X120.396Y-102.108
X120.396Y-104.648
X120.396Y-107.188
X120.396Y-109.728
T5
X125.62Y-117.64
X125.62Y-121.87
X133.24Y-117.64
X133.24Y-121.87
X136.35Y-117.64
X136.35Y-121.87
X143.97Y-117.64
X143.97Y-121.87
T6
X120.75Y-84.25
X120.75Y-122.25
X144.272Y-105.664
X166.75Y-84.25
X166.75Y-122.25
T0
M30
