%TF.GenerationSoftware,KiCad,Pcbnew,(6.0.0-0)*%
%TF.CreationDate,2022-01-05T21:11:28+01:00*%
%TF.ProjectId,218_trigger_mod,3231385f-7472-4696-9767-65725f6d6f64,rev?*%
%TF.SameCoordinates,Original*%
%TF.FileFunction,Soldermask,Bot*%
%TF.FilePolarity,Negative*%
%FSLAX46Y46*%
G04 Gerber Fmt 4.6, Leading zero omitted, Abs format (unit mm)*
G04 Created by KiCad (PCBNEW (6.0.0-0)) date 2022-01-05 21:11:28*
%MOMM*%
%LPD*%
G01*
G04 APERTURE LIST*
%ADD10R,1.600000X1.600000*%
%ADD11O,1.600000X1.600000*%
%ADD12R,1.700000X1.700000*%
%ADD13O,1.700000X1.700000*%
%ADD14C,1.320800*%
%ADD15C,1.600000*%
%ADD16C,3.000000*%
%ADD17R,2.200000X2.200000*%
%ADD18O,2.200000X2.200000*%
G04 APERTURE END LIST*
D10*
%TO.C,U1*%
X150610000Y-88655000D03*
D11*
X150610000Y-91195000D03*
X150610000Y-93735000D03*
X150610000Y-96275000D03*
X150610000Y-98815000D03*
X150610000Y-101355000D03*
X150610000Y-103895000D03*
X158230000Y-103895000D03*
X158230000Y-101355000D03*
X158230000Y-98815000D03*
X158230000Y-96275000D03*
X158230000Y-93735000D03*
X158230000Y-91195000D03*
X158230000Y-88655000D03*
%TD*%
D12*
%TO.C,J1*%
X120396000Y-109728000D03*
D13*
X120396000Y-107188000D03*
X120396000Y-104648000D03*
X120396000Y-102108000D03*
X120396000Y-99568000D03*
X120396000Y-97028000D03*
%TD*%
D14*
%TO.C,R5*%
X137900000Y-114080000D03*
X137900000Y-103920000D03*
%TD*%
%TO.C,R2*%
X151290000Y-115824000D03*
X161450000Y-115824000D03*
%TD*%
%TO.C,R8*%
X161544000Y-119380000D03*
X151384000Y-119380000D03*
%TD*%
%TO.C,R11*%
X136652000Y-95000000D03*
X126492000Y-95000000D03*
%TD*%
%TO.C,R12*%
X136652000Y-91750000D03*
X126492000Y-91750000D03*
%TD*%
D15*
%TO.C,C2*%
X165608000Y-96250000D03*
X165608000Y-91250000D03*
%TD*%
D14*
%TO.C,R10*%
X126492000Y-98160000D03*
X136652000Y-98160000D03*
%TD*%
%TO.C,R6*%
X151290000Y-108940000D03*
X161450000Y-108940000D03*
%TD*%
D10*
%TO.C,U2*%
X139700000Y-90550000D03*
D11*
X142240000Y-90550000D03*
X144780000Y-90550000D03*
X147320000Y-90550000D03*
X147320000Y-82930000D03*
X144780000Y-82930000D03*
X142240000Y-82930000D03*
X139700000Y-82930000D03*
%TD*%
D14*
%TO.C,R9*%
X161544000Y-97536000D03*
X161544000Y-87376000D03*
%TD*%
D16*
%TO.C,REF\u002A\u002A*%
X166750000Y-122250000D03*
%TD*%
D17*
%TO.C,D1*%
X133240000Y-117640000D03*
D18*
X125620000Y-117640000D03*
%TD*%
D14*
%TO.C,R13*%
X125420000Y-83250000D03*
X135580000Y-83250000D03*
%TD*%
D16*
%TO.C,REF\u002A\u002A*%
X120750000Y-122250000D03*
%TD*%
D17*
%TO.C,D2*%
X136350000Y-117640000D03*
D18*
X143970000Y-117640000D03*
%TD*%
D15*
%TO.C,C3*%
X147610000Y-96350000D03*
X142610000Y-96350000D03*
%TD*%
D17*
%TO.C,D3*%
X125620000Y-121870000D03*
D18*
X133240000Y-121870000D03*
%TD*%
D15*
%TO.C,C1*%
X131050000Y-111350000D03*
X131050000Y-106350000D03*
%TD*%
D16*
%TO.C,REF\u002A\u002A*%
X144272000Y-105664000D03*
%TD*%
D14*
%TO.C,R3*%
X125420000Y-86000000D03*
X135580000Y-86000000D03*
%TD*%
D17*
%TO.C,D4*%
X143970000Y-121870000D03*
D18*
X136350000Y-121870000D03*
%TD*%
D14*
%TO.C,R4*%
X151290000Y-112268000D03*
X161450000Y-112268000D03*
%TD*%
D16*
%TO.C,REF\u002A\u002A*%
X120750000Y-84250000D03*
%TD*%
D14*
%TO.C,R1*%
X135050000Y-103920000D03*
X135050000Y-114080000D03*
%TD*%
D16*
%TO.C,REF\u002A\u002A*%
X166750000Y-84250000D03*
%TD*%
D14*
%TO.C,R7*%
X165608000Y-109080000D03*
X165608000Y-98920000D03*
%TD*%
M02*
